<mxfile host="app.diagrams.net" modified="2022-02-20T18:36:33.592Z" agent="5.0 (Windows NT 10.0; Win64; x64) AppleWebKit/537.36 (KHTML, like Gecko) Chrome/98.0.4758.82 Safari/537.36" etag="_0Y7jH5Wgl_FxNpzjCSd" version="16.6.1" type="github">
  <diagram id="C5RBs43oDa-KdzZeNtuy" name="Page-1">
    <mxGraphModel dx="2058" dy="684" grid="1" gridSize="10" guides="1" tooltips="1" connect="1" arrows="1" fold="1" page="1" pageScale="1" pageWidth="827" pageHeight="1169" math="0" shadow="0">
      <root>
        <mxCell id="WIyWlLk6GJQsqaUBKTNV-0" />
        <mxCell id="WIyWlLk6GJQsqaUBKTNV-1" parent="WIyWlLk6GJQsqaUBKTNV-0" />
        <mxCell id="WIyWlLk6GJQsqaUBKTNV-2" value="" style="rounded=0;html=1;jettySize=auto;orthogonalLoop=1;fontSize=11;endArrow=block;endFill=0;endSize=8;strokeWidth=1;shadow=0;labelBackgroundColor=none;edgeStyle=orthogonalEdgeStyle;entryX=0.5;entryY=0;entryDx=0;entryDy=0;" parent="WIyWlLk6GJQsqaUBKTNV-1" source="WIyWlLk6GJQsqaUBKTNV-3" target="nKdXJ1BQ_bNErxqdGN9c-0" edge="1">
          <mxGeometry relative="1" as="geometry" />
        </mxCell>
        <mxCell id="WIyWlLk6GJQsqaUBKTNV-7" value="&lt;b&gt;jplag 전체코드를 수정하여 웹애플리케이션으로 만들기&lt;span style=&quot;color: rgba(0 , 0 , 0 , 0) ; font-family: monospace ; font-size: 0px&quot;&gt;%3CmxGraphModel%3E%3Croot%3E%3CmxCell%20id%3D%220%22%2F%3E%3CmxCell%20id%3D%221%22%20parent%3D%220%22%2F%3E%3CmxCell%20id%3D%222%22%20value%3D%22%22%20style%3D%22rounded%3D0%3Bhtml%3D1%3BjettySize%3Dauto%3BorthogonalLoop%3D1%3BfontSize%3D11%3BendArrow%3Dblock%3BendFill%3D0%3BendSize%3D8%3BstrokeWidth%3D1%3Bshadow%3D0%3BlabelBackgroundColor%3Dnone%3BedgeStyle%3DorthogonalEdgeStyle%3BentryX%3D0.5%3BentryY%3D0%3BentryDx%3D0%3BentryDy%3D0%3B%22%20edge%3D%221%22%20parent%3D%221%22%3E%3CmxGeometry%20relative%3D%221%22%20as%3D%22geometry%22%3E%3CmxPoint%20x%3D%22210%22%20y%3D%2270%22%20as%3D%22sourcePoint%22%2F%3E%3CmxPoint%20x%3D%22210%22%20y%3D%22150%22%20as%3D%22targetPoint%22%2F%3E%3C%2FmxGeometry%3E%3C%2FmxCell%3E%3C%2Froot%3E%3C%2FmxGraphModel%3E&lt;/span&gt;&lt;span style=&quot;color: rgba(0 , 0 , 0 , 0) ; font-family: monospace ; font-size: 0px&quot;&gt;%3CmxGraphModel%3E%3Croot%3E%3CmxCell%20id%3D%220%22%2F%3E%3CmxCell%20id%3D%221%22%20parent%3D%220%22%2F%3E%3CmxCell%20id%3D%222%22%20value%3D%22%22%20style%3D%22rounded%3D0%3Bhtml%3D1%3BjettySize%3Dauto%3BorthogonalLoop%3D1%3BfontSize%3D11%3BendArrow%3Dblock%3BendFill%3D0%3BendSize%3D8%3BstrokeWidth%3D1%3Bshadow%3D0%3BlabelBackgroundColor%3Dnone%3BedgeStyle%3DorthogonalEdgeStyle%3BentryX%3D0.5%3BentryY%3D0%3BentryDx%3D0%3BentryDy%3D0%3B%22%20edge%3D%221%22%20parent%3D%221%22%3E%3CmxGeometry%20relative%3D%221%22%20as%3D%22geometry%22%3E%3CmxPoint%20x%3D%22210%22%20y%3D%2270%22%20as%3D%22sourcePoint%22%2F%3E%3CmxPoint%20x%3D%22210%22%20y%3D%22150%22%20as%3D%22targetPoint%22%2F%3E%3C%2FmxGeometry%3E%3C%2FmxCell%3E%3C%2Froot%3E%3C%2FmxGraphModel%3E&lt;/span&gt;&lt;/b&gt;" style="rounded=1;whiteSpace=wrap;html=1;fontSize=12;glass=0;strokeWidth=1;shadow=0;" parent="WIyWlLk6GJQsqaUBKTNV-1" vertex="1">
          <mxGeometry x="130" y="700" width="160" height="60" as="geometry" />
        </mxCell>
        <mxCell id="nKdXJ1BQ_bNErxqdGN9c-5" value="" style="rounded=0;html=1;jettySize=auto;orthogonalLoop=1;fontSize=11;endArrow=block;endFill=0;endSize=8;strokeWidth=1;shadow=0;labelBackgroundColor=none;edgeStyle=orthogonalEdgeStyle;exitX=0.5;exitY=1;exitDx=0;exitDy=0;entryX=0.5;entryY=0;entryDx=0;entryDy=0;" edge="1" parent="WIyWlLk6GJQsqaUBKTNV-1" source="nKdXJ1BQ_bNErxqdGN9c-0" target="WIyWlLk6GJQsqaUBKTNV-7">
          <mxGeometry relative="1" as="geometry">
            <mxPoint x="220" y="80" as="sourcePoint" />
            <mxPoint x="230" y="280" as="targetPoint" />
          </mxGeometry>
        </mxCell>
        <mxCell id="nKdXJ1BQ_bNErxqdGN9c-8" value="" style="rounded=0;html=1;jettySize=auto;orthogonalLoop=1;fontSize=11;endArrow=block;endFill=0;endSize=8;strokeWidth=1;shadow=0;labelBackgroundColor=none;edgeStyle=orthogonalEdgeStyle;entryX=0.5;entryY=0;entryDx=0;entryDy=0;startArrow=none;" edge="1" parent="WIyWlLk6GJQsqaUBKTNV-1" source="nKdXJ1BQ_bNErxqdGN9c-0" target="nKdXJ1BQ_bNErxqdGN9c-7">
          <mxGeometry relative="1" as="geometry">
            <mxPoint x="210" y="300" as="sourcePoint" />
            <mxPoint x="200" y="300" as="targetPoint" />
            <Array as="points">
              <mxPoint x="210" y="620" />
              <mxPoint x="420" y="620" />
              <mxPoint x="420" y="690" />
            </Array>
          </mxGeometry>
        </mxCell>
        <mxCell id="nKdXJ1BQ_bNErxqdGN9c-9" value="&lt;b&gt;jplag전체코드를 스프링 프로젝트 내부에서 사용&lt;/b&gt;" style="rounded=1;whiteSpace=wrap;html=1;fontSize=12;glass=0;strokeWidth=1;shadow=0;" vertex="1" parent="WIyWlLk6GJQsqaUBKTNV-1">
          <mxGeometry x="-30" y="700" width="150" height="60" as="geometry" />
        </mxCell>
        <mxCell id="nKdXJ1BQ_bNErxqdGN9c-10" value="" style="rounded=0;html=1;jettySize=auto;orthogonalLoop=1;fontSize=11;endArrow=block;endFill=0;endSize=8;strokeWidth=1;shadow=0;labelBackgroundColor=none;edgeStyle=orthogonalEdgeStyle;exitX=0.5;exitY=1;exitDx=0;exitDy=0;" edge="1" parent="WIyWlLk6GJQsqaUBKTNV-1" source="nKdXJ1BQ_bNErxqdGN9c-0" target="nKdXJ1BQ_bNErxqdGN9c-9">
          <mxGeometry relative="1" as="geometry">
            <mxPoint x="210" y="230" as="sourcePoint" />
            <mxPoint x="200" y="300" as="targetPoint" />
            <Array as="points">
              <mxPoint x="210" y="620" />
              <mxPoint x="50" y="620" />
            </Array>
          </mxGeometry>
        </mxCell>
        <mxCell id="nKdXJ1BQ_bNErxqdGN9c-13" value="" style="shape=image;verticalLabelPosition=bottom;labelBackgroundColor=default;verticalAlign=top;aspect=fixed;imageAspect=0;image=data:image/png,iVBORw0KGgoAAAANSUhEUgAAAggAAAEICAYAAAA6FAz+AAAAAXNSR0IArs4c6QAAIABJREFUeF7sXQd4VEXXfnez6SGdEBJAQHoT6QiCICooigVUiqJSxN4Ldv1RsaN+oIL03qTZUAFRFOlNuvQOSQjpbXf/58y9Z3P2siBIAgnM/T4fNnfnzpx55+6c95w5c8bWtNlVbuhLI6AR0AhoBDQCGgGNgEDAVtIIgtPpRE5ONrKzs+F2Fxd3oXpt+kXQCGgENAIagYsQgcDAIISEhMDhcJTY3pF+c9lscNoAOwA/lxs228l6yRHsj+hacQiMDEb60TSgCNWizQ6ExpRBbmo2UrYdgzM73wuvEkUQiBwcP55SjMSgxL4rWjCNgEZAI6ARKGIEIiIiERAQUMS1nnt1RA5SA2zYEeXv0fdxmU5UyHDCT5AEIgexVyRg55It597ov9RQuXl1HFt3AO6CQgbikyCEhIYgKzPrjAQKDy+DtLT0fy3bsmULhIaFYeGChQgKCkJW1sn1p6Qkg0iCvMrGlUNKctJJ96Pia6ByYrgqmudwYO+yv5AXGok2bZoj7fAOHLNXwYmtPyM5A6q9ypUrY8uW4gf5X4HQBTQCGgGNwCWIQKurWqJ8+fL46eefz0hnMEQREeE4cSLtXxGrVavWSXM8WeQxMbG+LXN/Bwa++CIGD34P+fnelrNsrELFCggODla3jhw+gpiYGBxLOoaM9IyTZHrllZeQWCHRcz83Nw9PPvGUVzkiB8mBNuyK9De8Aew0cANhBW7USsn3yBtTPx771uz6177/1wIJV1TCwXV7PY9fcXszbJ+7wfP3SQShceNGWLduPQoKCs6ozYSEBNjtduzfv/+U5QcMeBBz5s6Fy+nCG2++hqlTp+PXRb96lXcWFCDleIrnXpkyZdDhhk7YsHYtoqKjkXriOLZv3er1TJW4CITGJSDNHozU9avhuLwRUnasRvMudyHjSDqObPweSelQg1u1ShVs3LTJeN4/DI8/0hc/fjsXyNmJbfsBe2RNPN2vLxZ9+yF2Hw/H1bXcmP3rP/+KwW13dEWwzQ+TZkxF3Y7dceSPOUhKPwW5CklE51aVcCA3Cl2bhOHlj6f5rD8quinCQg+hxQ1dsfOPWVi1eY8qFxUdhbQTaV5kqW7jqxCVFokl27//V1kf7NMDX42chJqN2uPYno14980uGPjKJKSknvyiWyuzB4Tgo8c6YtNRBwpiL8Ouv1ah111t0PfJdzBh/P/hkcffg3+ZWNzTuQU+GTYOzW7sjRN/L8TeY4fRqmlz1KldDTN/XovXBz6EBwc8jP53tEdAtaswd+wo3Hrj1Vi8cgvi6nfEoU1/ISB1Bxq1b4mDxwqQlZyCsq6DsNW9FeEpMzFizlE82OcWLP5jDbas/9sUswXatk7C4iXe43Vbv+exf81C7N6Zix49K2Lc+CWAXwD8bOFoXCsU85dsw8PPPozdv3+H75dt8+rydbd1wY5Zc7DTB6otm92Kpctnq2/ue+oJzPjkU3gjaMMnfe/AU1/P+Ncx0QU0ApcKAl99OQyLFy/G4cNHsHHTZkRERGDbNu/fHWPh7++vlHb9+vXRoH59/P33BqxbX6i4rJiRHurZ42588OHHJ8EZHByCsLAwr/v169fDY48/hipVKmPXrl344osvsWb1Wp9DER8fj8DAQPXdiRMnMOTTj/HYo08gPf1kw3j4iC/x9qB3Vbm+/fqgbds2uLlzF696SbNuLh+Mfh06YdHq5cgoKEDruvWRnpGJfcnHkL9mO4JcgF+QA46YQBzfk+R5Prx8JGCzoVytBKVP8zJykbTzCCo1qYr9a3YjPCESfg4/uApcOLLlICo1q4qD6/chPytX3bNeiVdehgNr93iWLQJCAxGIADhzDf3vRRCoM2TZM5s6dOgQjhw5elKlRAjq1asHu92gPuXKlcOKFSuRklKo4PmhuLiyaNWqFWbNmg0a9BYtmmPr1q04evSYV73ZWVnIyCycZuvUrYetWzbj6mvaYcniX9GmXXss/Pknr2dqV4xASFxlHMt3wL13Bw5mZqNsTATgyoM9qjoy9q5AWvbJBKHpbfchcOMMLNmWgaDYGgjI2IO7n3gWhzdlIGnvdPyTHInOTUMRGBKG35ZtQ6PmVyPHBRzethkxkQ5UaHUbtvy1AIt/WooevW6Bw1EGI8eMxJV39ENslh/c+dtwLL0A9RJDEFm+HKJrtsD0j19H/c69sHzCF7imx4MICInGmM8GY+DDd2NDih2ph3ahcdV47Ep1YPGCHcjOXo3MzCzc3/12rNl8GJUuvwxb/9kGW2464svHI7FyPSyaOQxt734CS+fvw+493wAIRa+7OiDXPxr/rFuGpg2qYPfuXch1BqFhg+rIcfrhq5HT8dwbL+KDN97F1HF98e6oJCQGnkCQIwqNW16GpfvdsG1ajPLhYfCvWhub/96BxMhMfLcqG2Hpf6PPQ0/AGRKGn79fhnbt6+LQyt/R/ak+uO76vnh24MuYPuJT0Ps8ec5wzJ2xCPNmjkNGVj6efvwBfD1mFm7r/jzGfvWCGscHXxyEgrwUlM0+gd2HduFQeDNE5R5FytblaHFTM6QeDcbwUVMxY0x/vPjaGLRuFoZNWe3QqaYLm3fsw/p/chGZWBk7l+9Fn94VsS/Vhk2r1uDy8hGoUzMWNeq3xuJVm/H94r/Qr0tbbNm4DpPn/Ya+b3yIuR+/jHJNbkZV+15E5gaiac9OmPLNNhzYsxot61VCYv3m+GP0BFSqFYfqNeKQ7heN5MNpmPnNdFzZrDdiA/9Bq6YJcNTuhGFPf4JbujdEkiMOyev/QmV7BqpVvlwThEtF8+l+nhEC9/TqgYCAQLWEvG/fPuzavQf//OPbCOvUsaMyGHfu3Amywps3a4pFv/6KggJvDzN5CO66s5vSPX8tW447br8da9asxtp16z0yURxCVFS0l4xEDF597VVUqlRR3Z8391uMHj0GaWkneypIL8bExqpy69auxcCXXkTfPv199pkIwvPPvYDU1BN47PFHcf31151EELL8gD2JZfBQuxuwbvsW7E0/gatq18cf69egbHQs9qz+G/E5bkRVK4uUI8nIPp7paSuwTBDK1a6A5J1HUKZcBALDgnF020EPQQiODEVwRAic+QU4uvUgmvVui+N7k3Dw7304sf9k/dz8/muwYsLvcOUbuPoFOBDsHwRXrvG3F0Egq53cI1u3bD3jOIDIyEilsLZs9u2+J+v9nnt7YfhXI1SDXW69BT//9MtJSwwUlJiRUcjILq9eA8lJx9DmmvaY//23aNGqNRYvXOABKrp8RZSL8IfdEQJbRBT2/vE70mx+aNmmDSgsJSKuMv76cbRPD0L967uj0ok/8N2yQtdKv1vbYkVyBcTm/omNR8PQpkoWwqpdg7St61ClQWOs+Ocg4oOPYPas5WhyY3c0rhWLdftSkbnqe1RtdSumjB+J1vc8h+T1y9Du6gYIDw/B5kW/oCDhctx6/z14pPMt6NuzI8Yt3IsXerXDXzsykLttISpXDca4ZbHoc299ZK9cjlVpgQjc48Dm7NXIQzDuuLYlYi6vjmBHICaMH43jycl48MH+CE9oiD9++QJVIoOxcFW8QRBqdUDbsN04aq+BXtfXwJDBQ5ACB/r06IG27a7Eb0tW4McV/6BJwCHMXHlIEYR/Umvju3FjERxVEx2vycPgH2zIWzMPr/XohhSbG+8On4ZB77yCZGcQPn3tBTx4bzesPx6MZrGR2LZzCSpe1QN3XhOJfq/OQt3Qw5i7cBWhj1HjBqFfn2dxY7XySLy2MxbOnYZte4+ie7/3MPnrgejz4EPYuvRnhDfphCMLhqNOl7fRvGk8Xnz0GXS+6jIEV4pBfk4iJk2ZjZH/1xn3PzcK991VA1vzrkPgP3OQ2LAb4qtEYPeOAqz+fQ2qVN6DjOCGuKGuAz8uXo9GzRvjmjgXeny2Dt3bBWLSzD9wz7NDMHHI83i9Xzu8/sV89LmvF2YvXoX+9auj8d0V0bXHr7jziZuRtHAagmo1Q3iSHTvStqBh04bYmRKOlpG7MWj4bLRsfjuWLvsWixZPwZIth/HRg8NwS48w7LdfjoWzvsW8Pjfjn6wcTRDOSG3oQpcKAsOGfo6lS/9C8+bN8MsvC/Dn0r9w9OjJBijh0fmmm5CQUB6rVq9G9WrVsGDBQhxLKrSkJWZk3d9/X2/8ungxbuzUCR9/MsQLUjJMIyOjvO6RR6Ffvz64qfNN6j55ET784CNs3XqyR6PDdR1QtmwsVq9ao5Q+PXtf7/v/M0HItQHrYx14qOPNWLhmBbJycxERVgZVy5bD8YwMHF6xAZH5QEjZMOQhH2mHUr3aqnZNHXWPCAL9S4QrpkpZ5UGggENXgRPkCSBiUKZcpHqWyhzbdugkmaOrlEXKrkJjnQhCSEAwnDk+PAj0dHh4uLL0k5OTz+i9rVW71inJAVfQqNGVqN+gAfLz8nDkyBE12NbL5XIhObnwBXD4++PGm2/B3t27kZhYAX8t/QPJp3hBEmrVRdqWjciwB+DWTs2xZLmxFHHieDLyC5wnLzHAjjvvewA5SUk4mLQftoimSN0yA9sP5aHvfXciMycPs6dMQ+eb2iHj4D5EVWsEZ34Gtq9bj9Vbt+OuPgNQNjgfkfY8DPpsPCpUqYfObWojNCQAPy47jiaNErDuz7Vo2aoeUpKOILZOQ3wzewPKOtfBUaE+jq/6EXuyQ/HmozcjJi4Kmw8Ai1ZuRJ9rm2LDgSTMmL4cLVomoEblChg9ZgJu63E/YsMcGDFuErpe2wwx5SvCGVgOQX77MeyDcQgu1xr16/lj385tuLp9e7hyXZjz/SLcf8/NOLJjJYIiKiGxcgX8tWwdQuOq4ZtJo4gr4rknr8PEBTm45opyOLDzOKpUPYGZq/2Qv3M57m7TCpVbXYt9e3bi0J5/UDM0E5/MXYO+9/WGPTAAS5euQ6DzCDbuTcMHL/bE4YJorPrtd6SnJKPSFfWwZa8TVROjMH/pGnRuUh5HDx3FgsV/4urre+PPhZPRt9dt+GffUWzbvgc33XQ9so7sxNaCBCQEuLB1+Y8oX6cSDh4ORMv6lfDTvOnYn1qA9q0TsHB1Lh7oeTvy0g7BHV0ToS4H5nzzC+7p2RBJyen4bvFK3H19M2Sm7cRhWwNcFhOoJqNWzRvBln0M4+cuRr2wIGxxl8WNzRLw85pduL5yAqq1jsB7H29B5Wrh6HB1E4TGRGL+hBnoeHMbpKXtgp89GgfzQxHuyMDqVSnYun0VBr39LL5ffQz5WzYiLCYZSbby2LBsJV7u0BSHc/Mx8uc/z+g3pAtpBC4FBDp1ugHl4sqhevXqmD59hrLWd+7yvb7etesd+PXXxQoWMkIPHjiArOxsnzBFhIfjoYcGKC9227ZX47XX37SQgTKeGAL+okXLFnjmmafw0sBX8O7gt/H5Z//D4sW/nXYY/Pz88PIrL2HF8hX44YcffZb939DPsXbtOuTm5qBx48aoWLEC7ri9m1dZUtbbIx3IDHYgyOGP7Pw8ON1uFZwYYrOj5qFsTwxCRO1YHNqwz+v5Co2qwD/IH8m7jyHt4HG15EBLD1nJGSjINWIpQqJCkSU8D6fqWNsnOuH3YT95PAgVGldB6sajnuWIErWLITX1+GmDRf7rjygoMBAVK1bE9lO4s/5rvef6nH9AKG5qbsfs39MRX7sxmgVnYu7qkhNI2ee2zhg569tz7aZ+XiOgEdAIeBAgi5+2IObl5SEzs9B9LiGKivK2+FNTDUv5bC9S6tHRMWf7WLGXz4cbm2L9kUc7FswgRdrmeHlqASJE+F/5xpfhwJa9yDlxZpsGzkXwkOhQlLs8EUfWFBKSEkUQ6AWg4I78/Lxz6ad+ViOgEdAIaAQucQTsdiIH0T53MFxoaEjXEd3J9rMhJciO0HwXovIMAmTNhRBTs5wiUim7veP2irIP0ZXLokxkOI5uOODVfokiCNRhAo6TJdGyg740AhoBjYBGQCNwpgiQgqVESbRU7ivx0JnWU5LK0Y4Gu78dYQmRsJmbA4pCPneBC5lH0uDKc6Eg5+StniWOIBRFp3UdGgGNgEZAI6AR0AicGwK2pcuWn/3Czrm1qZ8+SwT8HQ4ElsBsYGfZDV1cI6AR0AhoBEogAjm5OSclIyQxbcdPpGmCUAIHTIoUGOCP4KCgEi6lFk8joBHQCGgESiMClP/IV3JETRBKwWhqglAKBkmLqBHQCGgESikCTBAoBpCIAsVvaA9CKRlMTRBKyUBpMTUCGgGNQClEgDMoL126VOVA6tixoxHkqZcYSv5oaoJQ8sdIS6gR0AhoBEorAkwQ+JgFSk9NRypoglAKRlQThFIwSFpEjYBGQCNQShHQMQildOBIbE0QSvHgadE1AhoBjUAJR4CWFTZu3OglZWJi4qk9CJSk6L+ktizhOJRI8ZQrh1JunuLSBKFEDpsWSiOgEdAIXBQInBVBoEyGDj8HwsuEXjSZqEriKBIBy83LQ3pmFijXgSYIJXGUtEwaAY2ARuDiRuCsCUJMlHFMpL6KH4ETaekqL7cmCMWPtW5BI6AR0AhoBLwROCuCQJZtVES4xvA8IZCekQnnac6d0EsM52kgdDMaAY2ARuASREAThAs46ES4klKOIy09Q0lB5CtaeGjOlSBkD3oS7iPijFBPX23wH/A6/OvGXsDe66Y1AhoBjYBGoCQjcEEIgis/F/nwQ6D/qdfXSzJoRSVb6ok0HE1KQnxcHJ1XiSPHkhEXE40I00tzrgTBlZUBFPg++dIWFg6b/TQ9cRUA9kt7fIpqnHU9GgGNgEagNCJQBAQhH+vXboQjOBx1alZBZno67AHBCPK3IS09EyGhYXAV5CE3rwBlwkJwIi0DAbmp2J/rj4SYSISFhpRG3M5ZZvIebN+5GwnxcQgLDVX1HU89ASINVS6rqP4+V4KQ9+t3cKf7JgiOlh3gFxt86n643XQA+Tn3U1egEdAIaAQ0AqUTgSIgCC78vWEz4hMTEYR8bNqfitS923BN21ZISctAckYO8tMPI+Gy2tj99xpcXu8KBBZkYktSAcr45aJmnbqlE7lzlJoIwo5de1A2NgYR4WVUbckpxxUpqFypQpEQhNypw+FO9R3m6LipJxwVws6xF/pxjYBGQCOgEbhYESgCguCG0+nC7m1bERAVjdCoWEQ4bNi8fAnia12J48lH4crPQM3a9fDDd0txQ6erkJ98AIfd4XDkpyMx0bCWL7WLCAJ5DI4cS0JcbIzKLZGUnIKKFRIRGmJY9ufqQXDn5dLKhe/LPwA2u/YQXGrvne6vRkAjoBE4UwSKgCDkYuXy9QiPLY/qVRKw4+/1SMkPQt3KEfh7TwqqVCoHZ04myidehoLsE1ixbivqVrsMeQFhsBfkIDo65kxlvajKpaSm4sjRJFSqkIiklBTYYEN8XCwCAgI8/TxXgpD91uNwJ52CH/R5Gf5XlLuoMNWd0QhoBDQCGoGiQ6AICELRCXOp1EQel1179iKxfHkEBQWcMunUuRIEV2oy4PSNqi08Cjb/00UpXiqjofupEdAIaAQ0Ar4Q0AThAr0XtKRwujTKRbHEcIG6ppvVCGgENAIagYsAgbMiCC63C9ERERdBt0tHF9IyMuBynTqXok6UVDrGUUupEdAIaARKIwJnRRAKnE6Eh4bC39/xr9ZvaQSjpMhM3gUVxHgiHX5+p14G0AShpIyYlkMjoBHQCFx8CJwVQaDuFxQUqIOE9FW8CPjZ7QgMDNSnORYvzLp2jYBGQCOgETgFAmdNEDSSJQcB7UEoOWOhJdEIaAQ0AhcbApoglOIR1QShFA+eFl0joBHQCJRwBDRBKOEDdDrxNEEoxYOnRdcIaAQ0AiUcAU0QSvgAaYJQigdIi64R0AhoBEoxApoglOLB0x6EUjx4WnSNgEagVCDgdrkv2bT0miCUilfUt5DngyC4nAXIzy8wBLDZERAYgJz0VBxOyUBifAwOJmeickLsaVE8sHc/ylWoAIe5Y9NdkI0duw6g8uXVYCvIRXJ6FuJionzW4Xa7VPv+/v5qBw2dMGlzu+Gi0yYB2P384HY64efwh91ug8vlQkGBE7Q71OkC/AP8YYMbeXn5qjynss7Py4PNz0/V5aSkVbS1VHXRD/4Ov1L8VmjRNQIaASsCzoIC2P1oez5QkJeLo8mpiIyKRGBAoJorTnX9tfBH/LhiCzrefAda1Dn1uUH5OZn4489lyHL6o0WLxoguc+pTil0F+di3/wCycozdgHa7HxISE1EmNMinGPl5ucjLdyI4JAR0fA7/HRQcDL9iPk9HE4RS/Fs6HwRh599L8ejz7yGhQjx2ZcbhpwlvwpWXg5deehkvvfAsvlu2C23iTuBYdEM0qlYeLqdTKVnABTdsgNuNb2fMRoc7bkeQjfI+29RL3vXOu/D1hBmICgIWL/oZrdtcayh4txt2mw3M2nMy0zF81Hj0GfAgVi2aj5ywinCl7MDxjFwER0TCWaYCcncsR60WHdC4ViVsWbsEizYdx/V1y2LJznzcc9vVsOUcx9Cx3yIyOhy9unVRIz5l/FjUbnk9gtL34K89aagRlI4dWQFwZpxAu45dUCnOOGFTXxoBjUDpR2DlT1MRXa8DKsdH4edvZ2Pp5r0ICAxCn/t6o1zkqY+9/2TIp7i2c1c0qJZ4WhB+nTMev25JVmUSq9VDvzs6nLL89k1rEFO1ISIcTjhdbhw4cBg79uxBh2ta+3zm6N4dGDZ5Hq69pSda1y6L2ZMmYXd+KJ7qbcxlxXmdkiBkZmWfOoVfcUqk6z5jBBwOPwT4+59x+f9WMBNP9HwSfV94HAmXVcHyb77Gd+sPIDnTiUc7N8KoDXmIPbIMJ/wvQ4/21TDxx78QWiYOPVpVxvsT56P9jTdjyU8LMPith/Hy+yMRggJ89r9P0P3u7hgxbpoiCHNnTkZodAWc8IsC9q/G1Tfehj9+/R3XdbweoUEOfDNmOG65tz/Sd2/EQVssalaMwd7tGxBfqyEcTheWz/8WB+1l0e2GJpg7dTZcifVwW5s6WLktCU1qxCI3+QAm/rQK1S6/HG2aGceLL/lxLmq2vgWOzH1YdSgfbSq5kOJfHtF5x7D6QAFaNKj23+DST2kENAIlDoHDO1dj+PTfEBgcjPy8HBQ43SgTEY1nBtzrU1YydP5cshS/r1iJGjXqoFWrqxAfE+azbG52Bn6YOQlrD2Sp76PLV8E9XdojKsK3kfH3yhWoXqcWJs1fg2trR+CYKwIZSYfRtk0L37hlHccXU+YiNT0fzz7aG+O++hoFZaviwW43FDvOmiAUO8TF18D5IwhPod9LT6FGrRp44uH+GPjuMHz5/kA8/dAAPPz1Yrzd2obd8R2wdNrnuPOxQfhhxDvo9fCjePS9mZjy/sN44cnn8OTAJ/DJe58jN+MEXvlyKB4WBOG3Rb+gzTXXYPSwCbizezvsO16A1BO5aNGojgJvxsgv0Pi6W5B1aBcQVx11q5TDzs1rEF/7SpAjb8l3MxBRvioOHU9HbHwl7EnO9iIIzrwcpGUXIHX/ZsTXbQqyF04mCE5sS/JDZEgQypaLQ6C/o/gGTtesEdAInFcEcjNS8dmI8cjMKzy9rnqDFujZybdSdjoLMGPWXGzbuRdx5crh1lu7olyEb2OMCMLEkSOxN9OwqYMi4jGgVxdEhvn2TKxfvhyVq1fD7uxgNIh34M+1u5CfmYK2V5+aIPywZg+WLVmMZg2qISflBI4FxGiCcF7foFLY2PkgCPt3rMOTzwzGVde0xHfzd+LO66JwIC8KuzavQucbr8eEn9ZgzFPX4+1pq3FNnXgs3XoEbpcLva+/Ak8P+w4zvngN/fs/gy6334J5i5ajapkCXNGlJ0a+Owjv/28E6laOw/x53yAmoTK2H8rF3Z1bYurEyWjdsQsqxIQgPzcbY0eOQa9+/fHPyiVIDUpA6yurY/mvPyLs8iaoUzEWcyaPR8P2N2L9qtVoWb8q5q3ai5ubXIZFa/chITQffmExOJychjBko13HjqAFkMP//I0NBzLhyM/A5Y1aIm/nMqSGV0OTGqdeZyyFr4gWWSOgETARWP77Qsxfuh5ONxAWGYMB9/VEWODpT7T9+JNPcfOdvVA9Mca3p6EgD38t+R0/Ldvg9X3DRs1xY/uWCPARzrRx1QrUbngl1qxdh4J8N2rXr4c1q9eh7dXNfbaRn3YMP21KQnTyBuwLro3wlE3Y447UBEG/2adH4HwQBF8SOAtc8OOIQ7NAfr4T/v5+cFKA4CmC/E7/Xb4KNMzOOIH5Szejy3UtKIKhyC5yGcLmB7uYDygA0w37ac+7KDIBdEUaAY3AhUHA7Ubywf1Y8OdypGblo2LFCmjRrCmiwgL/VZ5/IwhUwcFd27Fq625s3LgZeW4/1K1VHdWq1cQVtS7zWf/xY4ewZst+lAkxPBIulxP2wDA0bVDTZ/m9O7dh24HjaNuiLnLdgVizfDky8u1o17oZgvyLN6BaLzH86ytScgtcKIJQnIjQDgm/4DJ6J0Fxgqzr1ghoBM4IgRUrVqBarXqIKnPqQMbCilxwuWhXwum9EmfUcAkppAlCCRmI/yLGxUgQ/gsO+hmNgEZAI6ARKHoENEEoekzPW42aIJw3qHVDGgGNgEbgkkNAE4RSPOSaIJTiwdOiawQ0AhqBEo6AJgglfIBOJ54mCKV48LToGgGNgEaghCOgCUIJHyBNEErxAGnRNQIaAY1AKUZAE4RSPHjag1CKB0+LrhHQCGgESjgCmiCU8AG60B4E15EjcO7eXYpR0qJrBDQCGoGLDwG/mjVhj4ws1o5pglCs8BZv5efDg5C/eDHyp00r3o7o2jUCGgGNgEbgrBAIfOgh+NWrd1bPnG1hTRDOFrESVP58EAR3djbcmZklqNdaFI2ARkAjoBGwhYfDFhBQrEBoglCs8BZv5eeDIBRvD3TtGgGNgEZAI1BSEdAEoaSOzBnIpQnCGYCki2gENAIaAY3Af0JAE4T/BFvJeEgThJIxDlqFd46SAAAgAElEQVQKjYBGQCNwMSJwVgRh77aNWL15N2pd0RS1Ksfh6D9r8efGA7iyaQtcluD7OMyLEbSS0idNEErKSGg5NAIaAY3AxYfAWREE5B7Bffc+iYjLG2LIoGfwdI+e2JHvxujxU5GXtAMbtx9B69ZNsGrlWlS+LB7bdhxEkytqYd3mnWh8ZW2sWrUBzZo1RoC/4+JD8gL0SBOECwC6blIjoBHQCFwiCJw1QXh50AQEF+zDg8+9hNeHzkPurt/xzpsv453hs3F/5xYYv/QQbg7fi6SqHZG5+htEN7oJf8wdi9feG4yHu92LT8aNQ1R4yCUCb/F2UxOE4sVX164R0AhoBC5lBM6aIDz/yhjcc/sV+HjcD3jxrXfwwYuP4NVnH8Wgkd+jf/fOCAqLRd7q2Tha4zY4N0yBq0oHrJk/Gc/931t49I5e+EgThCJ73zRBKDIodUUaAY2ARkAjYEHgrAjCxr9+xvBpi9CnX19MnTgeL/S/FS++PxJ9H3safy+Yi2P5djRv2xlL53wN/2ptEHRkOfKi66JhbC4Wb0lG7v6NuL7fy2hTN1EPRBEgoAlCEYCoq9AIaAQ0AhoBnwicFUHQGJYsBDRBKFnjoaXRCGgENAIXEwKaIJTi0dQEoRQPnhZdI6AR0AiUcAQ0QSjhA3Q68TRBKMWDp0XXCGgENAIlHAFNEEr4AGmCUIoHSIuuEdAIaARKMQKaIJTiwdMehFI8eFp0jYBGQCNQwhE4O4KwcgWwa3fRd6lbt6Kv8xKoUROES2CQdRc1AhoBjcAFQuDsCMKWLcDhQ0Uv6jXtir7OS6BGTRAugUHWXdQIaAQ0AhcIgbMjCBdISN2sbwQ0QdBvhkZAI6AR0AgUFwKaIBQXsuehXk0QzgPIugmNgEZAI3CJIqAJQikeeE0QSvHgadE1AhoBjUAJR0AThBI+QKcTTxOEUjx4WnSNgEZAI1DCEdAEoYQPkCYIpXiAtOgaAY2ARqAUI5CWlobjx4979SA4OBi2zKxsdynu1yUhuvYgXBLDrDupEdAIaAQuCAJZWVkoKCg4qW1NEC7IcJxdo5ognB1eurRGQCOgEdAInDkCmiCcOVYlrqQmCCVuSLRAGgGNgEbgokFAE4RSPJSaIJTiwdOiXxAE3G69cnpBgNeNFjkCNputyOu0VqgJQrFDXHwNaIJQfNjqmi9OBFKOHsb6ZX/A5XLBz89P/UsXzbV+fg44nU44HA44CwqM791u+Nnt6l+X2wW73a7+o3J+DgdcTqd6Xn2muqi8n59Zpw1umx+IlNj97B5AqZzdZvxNkzzVBxvgdhnkhdpXddlt6nu63LCpZ1RZ8zm663S6VBn+j+qx+/mZz9H31B9/Tztut4tEVHJSOdUvlws2u11hQPWQvA5HAJwFTk9fjP76wUYNMGCAksdtYkgVEFZu+p/b7alLYWYjDF1wupymLH6qrPqb+uSG+uxnJ9kBl8vAURI6wpBlojZcTpfCjZ4lueijzU5AFv5LbRKuakzhUs+r8TLrpvJqfEg+F2Hj9mBM5dRYUZ/M+wofNc5GGyyDGifzHpWlNpUs5mW8My5GT2FksxmYU1nGjORwul1KXrqn/m+SWlUvvV8OP4SViUBUdNli/5FqglDsEBdfA5ogFB+2uuaLE4GFs6chJztLKQhSeqzwPZOvSRpYUbKCICWmJmzzou+ZCEhlqCZ2U+kqZW53eD2jlL35PZWVJIEVgUchkRJTioQIgKH06T+PTOIz10PliaywTFJBeUiEKQMRhAKn01A6gtQYJKRQKUql6SEs5jNMsJi4cP+4nGxTfSYl73Qayhw21T9FVJhkMOkwCYanX6ZyZIwkeVCfScm6XB5s5DjxWLpJGZv1MjmUBIRl5f4yziQvXworm4EN1UEBfIwdleF3Spa3kg5uk8eSykri5zIJFt+T7xfjSrJVqFQVgUHBxfpD1QShWOEt3spLOkFIS0/HvO9+UCC0b9sG5cvHnxMgG/7eiPV/b0TVKpXRsnmzc6qrqB/OysrGrLnzPNXGxsbghg7Xqr8PHT6Mhb/+pj7ffGMnhIeXKermT6ovLy8PM2bNURNZnVo1cWXDK86oTZrwpn8z2zNh05am227p7LFkz6iSElzo24mjPNY0exF8KTU5wZtaXE3iyro1LTr6mxWVLyWqnrMbylp+T88pq529B6ZHQFqpSnl4yAEpbMPTQONjyFHoNZAWrkcxCkLD5aUlquQ2tK96hJUQkxYiCCwj35OK0xcBMKozCAwrYG6blSyRATKLqW07WeMmUTDMb8Oal9grz4Dd9LIYgnqIBRU15GB8yeNgeAEMS9/wBnjkdhveIkNOA0Mma8ZY0N+krA3PAJFC5dVgb4PNZhAAdu2bojIWVC4/P99TL48vjz+1y3VJQsRyeMbUz5CZLkWmTDn5veE+xSdUQkhoWLH+2jRBKFZ4i7fy80EQsnNyPEpe9uamjtcjNDQUO3ftxsrVa7w6mpBQHq1btsCBgwfRvXdf9d1HgwehaeNG/wpIRmYmvv/xJ69y/v7+uOWmTpgweSpGjp2ATjd0wMBnn/7Xus6mAP0g5/+yELTv93RXSEgwOnfqeFKRpKRk3N79Hs/9+nVrY+iQj9TfK1atwTMvvqw+Txw9AhUrJJ6NaP+pbEZGBm7u2l1NMD3u7IoB/R44o3pyc3Nx0+13Ii8vX5UnojNj4lgvt+sZVVRCCxFBYKXFClAuNbAykZOxoVAMZcKKmz7Te8luaemRUO5stjrtDg+5koREWtZUv1SkHiVtur+N7w1vA7XLXgp+jurlNtmz4U0wDKXNiszTf3OZgeqRshntFC5vsKKTpIBlkXjxPWmJM3YsKytL8iQotzstY5hKnJZUpLVMnIG+I+JASwWqDqIHQrGz9U5ueb6v2ixcDPG+byp3WZZfVVbKkoAVuAq9B1RO4kyyE1ngd4W+90UA2NvApMDqEbC+C9LTwXhJbxV7NsqVr4CQ0OI1NjRBKKET2ZmIdT4IQsrx4+ja/V7liuSLXtYpY0eiXLk4fD//Z7z/0RCPVUUve9urW+GtV1/C0WPH8Opb76jHnnhkgLJk/+06fOQIuvfuo9br+IqMiMDMyeMwYco0jB43ETd1uh4vPP3kv1V1Vt/TD7Hfw49j+46dXlaMtZJycXGYPnGMz7ozM7Nwb78BOHYsCZIgbNqyFZ8O/VI989arA0F10LVi1WocS0pGmbBQtL6qZZFa6VnZ2Xj2xVfgdLlwQ4f2uL3LzWeMB5GDp54fiA0bN110BOG7SaML1+tNRKQ17+szK13PmrCKVzDcy5JISEuPF8dtfgaJYKVDTbIbmhW99Ch4WYsU8+DnZ1rjhrBWcsODykslUhGTB4IVlnRhKwWqlC6tk9P6v/GvtyucFHFhvIO0hpkoyOUFaamzF4EVIcskPSBGwIPpRTAtfY7zIOWuYjbMmAwqp2RVXgdDJnqvaf7juA3lfTAW7A2vhBkToKx9M6bB+Gh6Acz+SuLHWMq+UjsKcyIvgmQpMuHxYBT+tKzLB554ErOIlXhSeX4fjDExPRem54Cep/dM1svvTVw8EQTtQTjjie1SK3g+CAJj+sSzL2LNuvWoVLECJowa7gU1vcA33HKHcq+9+cpAtGt79TkPRc/7+2Hf/gPo0P4avDbweUO5vvMeflm0GE8//ghuvfmmc27DVwULfv0Nb749WLkZB73+KkJDjTW+ggInBr72FqIiI09JEKhc734PYdfuPV4E4VSCPvvSq1i+YpVaMhn91dAiJQjnCs7r//cOFv225KIkCBIbq4JgRSqtQlXeo2hcynMgrU1rLIOhQE3lagYMsrJk5cMeBlamNOlLq1ZZjKz0TA8Cfa+CBUWcBD9D91hJe/pkBkZKy58VDhMKzzq76R0p9DLQUoBhHbMV64sMSetXWsq+vA3SVU+Q/tsSD/eVyjJ5UX0zlyNo3vEEJ5pLLh6cSaGbA83jw7EDTFSkPIXBqkZsCZM/XoJgDxFVyZ/JC6L6z/EU5lKSJBoSE35n5PhZl42U/H7G8o70OMix5XeobLlETRDOdaK7mJ8vyQQhMzMTObm5HvjLhJVBQID/GQ+HlSDQD6dbz95qopg8dhRcLicys7I89UWEhyM3Lw+/LfkTZUJD0aJFMzjMNUFaAiFLvUO7tggJCTmtDIUEwY65MyYjvIzhwqN2b7urFwKDAjF13ChPHdnZ2UabZcLQrElj9HnoMS+CYMWB5KQJ4vjxVLz5znuKdF1WqSI+ef8dlAkLQ2BgoKqbJodDhw4rQlSrZg1cUb8ugoKCPLIcTz2h1lvposmD6l234W8kJ6egVcsWyMouxIaeCxX9Jpn/2bkLy1asQoN6ddGgXh1P3dyxi5kgsPLivlotfOv3bLXnO42ANDlZM/4e17lnvdhYEmA/mFyTl3ELPNnTv6SU2DpU980gRYOfGEGKLCsTGUlUuD+e78hCN+MdpCdBfmaPidO668BOgYOFyxmsoLk9qQSlxS2Xawy5C5cNJAb0HQf4SRLC2HuWDsxAUq6rUF4j1oCUPittXu5RN8hbILwEajeH3QhM9eUN4d8491MuydA9JlZUjr0CdodZn+nZYMLDJIUzEHL/+F2RnhcPAVEBq8YSFnkt5Ltp9QJxH0pcDMK+9X/iSEBl2I6uRe3mHfHjpK+Q7Q7CLT174Ntp3+CuXt2xc/mP8LusFdb9PBuh5aJQqfKV2L9pCfLswWhz0y04tmI+HFWbo0LZMvhxzhwE+LnQtmNnjJvxIxwuG7r37ILCuN8z1ieXZMGSTBD+9+UITJs5yzMuZxqDwA/48iBs2bpNKWyKcaA4hcEfDfHU365tGyz5c6nyYtBFCvHtN1/Fq2+9jfT0DHWPLL+P338bV9Srd8r35VQEwfoA/bB/WbgI7330KfLMNsm7QNfx1FSPB+GzYV9ixqy5nscpBiGhfDxu6dod6RmGXHy98cqLKpiTliTeGPQuDh856vmOJqVut3fBgL5GLMFd9zwAWo6hKzoqCo0aNlBkgi7yuLz17vueZ2UMwuuD3sXi341tfvK68/Zb8ciAfh4vxsVMEKQSYGVKWLBVbbUa5fovlWPLkT6zMpCK24gvMxWjuTtA3THXq1lp87Ny+YHLqX9pm5zHMhaBeqYVS2VYkVktdpaTx7jQM2BdSlCecqVMvYmSYRdbXeTSAyK/4z5IosRtSsuZMaN/pSUt38WTCIPpvVErCKab30ri5Jhax4sxZbzlv9IzwARM/sv9leSD2/bEmvB2VLHsIIkUe0IkyeJ3zIODWA7i+plAMaYy/oGeI4IQHBLq9Tsu6j/OKgYhfddyjFm0ExG2LNzV7Q4sO+SHNlXz8feWJBzfvQqIrodN6zbhnge7YcHYr3HMEY9evW7GusXfIiAoFqHVG2H573+hapV4VA86gV2OaqgZbUNoWAjeGjoOHdpfi9b1qxR1Hy/a+i4EQUhMTMCXn33shSntGe/a8z5lEfASw+49e7F23QZ88r9hahItCoIgGz1y9Ch+/2MpPv9iuKo/KioK9/a4C4cOH/EiJrd0vhFVK1dSwY1EFEiJz5w8Xq1f+rqYINCPlAIxiVTwRcsaVSpfpv6keIMu3borcpAQH4+7ut2OHTt3Ya65a4NjEOjeosW/Y9ykKeo5IgiJCeUx/5cFmDxtJgin2JgY3NerOxo3ulJ5AmiZ4lhSEsrGxuCeHnerQNDZ875Tz7/wzJO48YbrsGr1Wnw3/ycsMEkBTaoUQEnegq+Hfoa/lq/AkKFfICcn1ytIsXffh7Brzx488mA/xJeLwz87dmLsxMmq7iEfvItG5m6Hi5UgUJAiKyZWFNLKlQral3JVClnkNKAyMi6gcK3f3MNvKl65E4CVAisMqTTZZa+UhOlON+5xbgODaEgrWMosrVXOo8D9k4rTShhg7owo9EgYSwyybm6Xy0hSIpWfVLCMj/R4WPvNhImeY2tZ/jZVHICJOQUp8sVyKE+C2GngSz7GWHp/pJdA1sllJGGSCt/qZeD3Qe2ncJl5Jcwx4nb/7Z3j2ANJjqyEgvFnucuVr1iylhhSti/FP45aCEvegGr1mmDaD6vRtrYD+cFVcGTPFmQe3ouKzW9AfPloLBg/De2634ycE1nYv2MdmrS+HvlZSZg840ccT81B77s7YOnGJNSu4MBlVWpjyl970DrWhbjqtRDke+6+aBX9f+3YhSAI/yarjEHIzs5Bp1u7KsukqAkCyUGWOrn9qf5333pNudbJg3BLtx4g1z4p81Ff/k9NHlOmz8Sw4SNVbMG3M6chLMw382aC4Kuf77/9Jlo0a6q+Wr9hIx59+jn1ediQD1Gvbh0lx933kmV/1DtIcfMWDHjc2HUhdzH4ikEggvHhkM8RGBCAWVMnICzMCEJ6duCrWL5yFS6vWkXFK9A1fdYcfD7sK6WgPv1wMK6oX+gZIaulS7ceoK2m0oPw9nsf4sjRY/hw8CAE+PsrvDrfcTdo2eGxhx5UXgq6LmaCwJOwVWlJ5czkQSoWVhikePmyWu5S2RnK0dx9ILbwWdfyWYnyvx6vgOlBMMoXRshz29Z+sGKm75V179kmachrXceme9ISV+147hlb/ggHJsm+MLHicDpcpBKW7UpPitUDoVzuPpYZqC6rB0IqVCtG9Ldn/MwvmThZCYvVg8DvgCf2wPQEsRfA6j2x4ipx4zb5HZBjTYGY1qUjz4sm4jC4vvjyFRFc0oMUlcvHzO4lO3Mmn91Ol3oh/SyM/Eye1WVoEvBTk/z5uDhIkdbI69au5dUkvbBr129Qk8mFIgjvDXpD5UagHxy538nD0LJ5U7w36E0l67zvf8QHn3ymtiXNmzlVxQz4uiRBoN0Y/mYyGyrb/c6uqF7tcvXY+ElTMWL0WDXB/jB7uie2wVeQ4qazIAhEDogklI8vh6njR3tEHD9pCkaMHoeoyAjMmW5Y/EwQAgIC8N030xAYGOApfyqCQPhQ/MH+/QeQlpau9nl/MWIUKG/CowP64847blV1XKwEgXYxSAuQ3eTSm2BVLvI7pTzM8DcmFKxA2Krnvw0lQNatA26RFleSCLaa5ZKPZ9mDXetKICMgTlrY/DcrPymPUlLmfvpTER+5pMJKjWIRDMXrrYClzCyfVLjSuyC9GFavhbT25WdfStj6+7QqTythUSh5ZZo0auDYAE8uBt5WaTbgwVsQJuldYKUux1VibiU4sjyXY9mkJ4L7p8qLrMnSgyGJFJfndyAunoIU9TZHnxO5vnlhCMLZ7GI4nx6EoiYI9COVQYrW9+2rr8dg4tRpyrr6fhYpZyO48FwJwrsffowf5v+CCgkJmDT2a0+zlPTos2FfqSRL386c+p8IAk1O737wMX78eYFSNpTHgggTeRnouhQIAidKkhO1dLfzhM7K0xpQxpM5kwFem2YFWagcDYXucRmLYD2p6KyfZb0el7La7mgYAiwrK16rtWtV3oZXwDt9MNdBslvjCJjI2O20RHKyh8FKpKwkQSppq+XP3zGmVnIklbtU/nINn38Q0hsiiQaTAMaHyrOnwbqk4GuJQv7OuQ4ZfyDJjyQCUqlbZbSSA6unQ8lhxjHIHTEsrzLCzaUVhYu57VJvc9Qs4LQIXAgPwqVMECjqPzU1FRQQOWvOPAwdbijw72dN9yxZnCtBGPrVCEydMUvFJXwzZbxn/Id+9TWmzvgGZcvGYuakcf+JINC2UQr+pOvl55/Bte3aKvdtlzt7goKRLgWC8P3kMZ4tiqwg2EXMyk6uPfsKAiRrT1p2UkkXKvxCcqAUvRmsyIFnTASkQmNFd5LiUUGEhTEIUgmf5N0w9+0zmVDK0VxqYGUpszFKZUafiSAY7RcmSuK6uJ9Up+yz1avB30nXu1Sg8r6HBJnZF9lToWQxXe6SzDFZkM9JYsER/tKjwURIEhbpReL+safBSmT4ffDlsZDYSMIh3w/CR23JFEmaZBv0HAWK0hkL1BbL4UW+BFlTmTxtgE6UpAnCRUcQ6KWn9W66KI2vdO/JzvraxWAFQ8YgnA8PQr9HnlBBfXOmT0JSUhLu6/+IEol2DVC+hhNpabij+73KXe+VKOkUSwzPvfSq2moYEx2NGZPGKktn9dp1ePK5gWoyoaRKbVq3UnECvR7or2Ibmjdtgg/eees/EYTf//gTL78xSD07afQIVKiQiNQTJ5TM1MalQBDIg3Aq5SOtTqkUrO+oUqDmLgNWCtbJn5cEWFGR614qE+syw8nPc8yAscPASFFcuGvCWpdUolJhKmVtehBYwbFylOTAQ0p4X78fHRhlbLtjWaViP9VOAV+EirGU3hKpwGW9cmz4M/f1VO556U3wNbZSWdP3vpYPJCZU3pclzxhJosQYSmIiFTvV64ugnDSxm8mg5HuhtmWau41UWmpO2U15EtxulEuoiJAQnShJ04RTIHA+PAiUsve9jz9V6ZQpcp/Wu1s0a4Jnn3wMlOGQFNrkaTOwfOVq9QLTGv117a9BvTp1MGr8BKxcZaRhrlO7JnrdfRdq1qiOO8yUxJPGfI0KiQlevSML/YMhn6sEQpTXgLbwNW/aGM8//YTXoSiUjIisagrco4tyBfS97x4l58xZc5FfUKC2RPbu1QNxZWMxatwElZ+ALopNeOyh/qiQWJjymGSntXjKbkg7D0510cRIBCEoMAh33XM/klNSVFHKZUDbDikDJFkLlG+hfdur0bpVS0ycMh10jgRdV17RAA/c2wtXNKiHMeMnKbnooh0F/e7vraz6QYM/8GxZJLzI8icLn/ozfOgQJJQvr7wJFFexd99+NYkTcXjp+afVmBBReffDT7Bs2Qo1wcSXK4cO7dvirq63o2uP3qB0ytHRUbi8ShWFF0+8lLDp/nt7qnwKvyz4VZEHckETXi89/4xXLoXS+qOcN2GkEt3qKmYlJP+VFqNU4B7lZjOyIsoIeqNe4zRCVq5KKZnLA/ws48d/n+Q1UHkJzDMYKJZAkANJAGQ/rErO850ZVCk9FNb2rIqdTqHkSypgnzhYDlZiJS2DCOVzvkiEZylG5GOQ7Vs9CzxOkrzweFm9FYyLVOJSRv7MClgSgNN5Beg76ZXgeqyERGLNZSTpVITCHGPeyqj6YnoNWC5JYGlJoizFIGiCUFqnouKX+3wQBEro0+M+4zwFeY0d8QXi4spi/s8LMOR/X3h917JFM7Rt3QqDP/zE6z4pH3LPn44gHDlyxGOZ88O0Vj557NdeWw4pKHLgq0YAIl8P9e+Dn35Z6KXgr2lztTr7gIL85PXx+++gds0anlv0I3z4iWfUtsPTXfRDnjJulEpqREF+r7w5CBs3b1Fr+ddfd62qc+iXI1QVUVGR6HpbF4wYNdarSiJXRAQoqRHlcli1Zq1SJvf2vBu9e3ZXCpzIA21tJJJE+eivbNgAfXrfowgWXUQi/li6zKveMSOGqTTOx44dw719H/L6jojbZx+9hx9/WqCCK8n7EhYaqtqbv2Ah9u3br8rTtspFv/2ughjlNWXcSERERBT/S13MLZAHQbrl+bNcViARJDlgkVjB8t8cBGhVTIaCKDxQSVmRgiDQ81bFRn9LC5vKGAcKGadIFh7h7A0QKyNf1j2X5JTLvPZPioaVqNU74rHSzUOmvJSSpQ9WkmHFTSpKVrqFh0EZ0kmrnNu2kh5fJMq6g8EzJiLWg+XhdlgG6zhKua3yyLKsqOX7Y21DEgoeE65TekAYd483wwxIVXWb8QY0p3h5Jtx0CJaRUEl5EEraNsf8/AIV9ayv84cA7VI4lRv+fBCEou4p5Skgy5t+NGSJk8WrL43A+UJg7vivfW7389W+dPdKEuCJVTCT29CzJy9JGArfE2gmFBd7FlhhSOualRl7IihYkPfI83eSsEhiIffasyWqvBtmzAS3K1MYWxViodeh8HAofo4VnqdP4lRLSXqk4mcywopOKmOOZaB7KtOheciV1ZtgtcilN8GKiSQ+Uk6uQ2IuCY78XpICJlXSi8IeCQ5etHqFrARH4mElF552PWdcGgdSWful2jJTTPMzOgbhfM0apbSd0kgQlvz5F156/S3cfGNHPPfU46UUeS12aUWAlhhOst5Mi166i+UkL61TaY3SCYJywmeFY9RvpABm4uBHh+4IJcjKkZ6xRukXKmJjmYEzKkrFyCdJSuOBP3Odnh0KdiMjIsWZyDLS6yCVsFLUxpqGOi9J7piwekskCZLWtCQuUkEylpxSmtfnpeKWXh3pVWBFrDwyIhiTFTrXxYqb2yJZ5KFHcmx9eTCsnhH2HNB9Xk6S96yEhuX31SdZt8TLYARmemincUCU9b2Tp1pSPUQQgvUSQ2mdiopf7tJIEOb98CM+G/oV5s2YgqAgY2ugvjQC5wsB8iCwouGIcXlQkreSN089tJzix4qVjxgm2U+e0O1K8ctMnEpxe/IMGKmuWenQZxntbihet4pnoM8qSY/IKCi9ARQXRJckGr5SJJMNSn0mmSQGkvRIS1q1qdo3s0KKJQaW1UoErArd6la3WvIyfoMtc0kA5HiwNc94S2LA7SiZzfMW5DZFSYBYoXs8QeYOCsaP/uW2+GAuep53f8jnuQ3rlk5uj+8zaeNxk98zWWLSweNh9USoXQ5moCI9r7c5nq9Zo5S2UxoJgprI6Af5H5NrldKh0mKXEATIgyCD5Kx75KUCkxY2P8OTuVJSYlsaK8pC69H77ASe/O0Oh1d8g1SA0kI2FIl3umPyJKgtboJYSBc4W/OsdNlqZqXECZ74PnsxpPtcximoPpu7GVhRym2GLAf9Kz0pvtzo0pqW7bHi5fql94BfGR4HaX0zEZCEgAmGlIv6YI2j4Da4fikvEz0mKVbyZ1Xi3Cb3g8dQEgHpbZCxLrIuluV03gtaYlA7WsxET/o0xxIyqZRUMUorQSipeGq5Ln4EOAaBeiqVKys5acWyspBLEtJTwHUQUeCJvdAFT9sEDeXkpZDMyZ2VOSs/qTSlRc9LFQYrgCdY0aqEZfQ0NUEAACAASURBVBvcB66T//Xzdyjr2qp4pWJleT2yq4yKDnUuBBMMls+KlVXxSmUpSYRcHmBZpOte4k3Ega1wqVCtBxexTPSsr90KfF+SDZKPlyOs4yrbshIa6RWQWPL7xPUyeZHPWz0qkqxyHySJ4HdMPWcuQXCb2oNw8c9X59RDTRDOCT798CWIwOyxwz1Km5UCT+gehS+sNEkcaMJn17q0SokgyInf8EIYpyayBepRBGY+A+ktkFYot2d4NnirY+GBUJySlwmJJCBW2aheGesgEyZx+6y8rATD0z/VICV6oliIwhMfuV+cAIjrk4ra6o2QLnPpnWEvDtdJ/7KS5z74GhtWpBJn6QGyegZkoKRVsfNzPE6SpDDG7CXiPkuvCMvHuElPCH3m3Rsyv4LVgyBlkO8Xy8S7Wfi5EreL4RKcT0p0lzVBKNHDo4UrgQiQB0FaydKSl9H9PClbPQDS0uQYBvYgcHcN5VC4ldDLOqZDlMyYBo7cZ4JCdUsFY6Q6LtwuqYLbLdv4mAD4sky5LmnRqnv2wu1zVk8EK3hW1qp9iN0Y6ovCgwOkvHKZhest9KgU1uFLObNytL4y7KqXJIA+W61sJh/sIWGFbLXQrUqd+ym9DlZPiCRRjI9Vmcv+smz0HAWG+iINFDdCREPWx7LR8zKI00NkyfsEI/cC1VniPAjUgfTU4wgICYfdmYP0rBwEBIfBz5UHR3AoctNPICAsAhmpx5U7JDIyHKmpaQgMDkVIUABoT310TAwyThyHIygUwUGFh8uUwLmkxIukCUKJHyItYAlDgA9rogmeJm9WQGy5y4Ax6Y5mxSOtfbbi850FhYGETqdKJmYmwPMEA7JVTMcqS5ezXMaQQXCFCtpIv6sUEO1GEC53qcxZqXB9bGUygZCKkteyWSGxBc8ERVr+lPiL9knKLYgwD4GSik8OMxMFrofb4Z0XLKt0yUuiwp4QwleSOTlW1tfK6sZn4mdV6Pyc9BRwMCnJIEmiN+HjFNRGAix+D+Qz1uUNuZwjA2F5+YbynTAmHFQql1/YK8NeB2MnTIGn7RJHEP7+7TuE1L4WSWt/R83mzRESHIwFq3ajYegBzNvqQod6MahSozZGjFqMzg0LEFyvE7asXY2wEJs6Dnfk2CW4p1M0dueWR+rxY2h2Zf0SNn2ULnHOB0GQlgmjcyq2X7rQ09JeigjITIoe163IBCgVjbT+pMtXWqFKsZkKkyd3h8NfLQ9Y19qVJW+4BTxpc1lx8G+KCYpxZoPDDFQ0lhiUohBZFVkJshKV/1oj+VlmVb8Z7Eb3mBxYlR69G4pcgNo1LFqlbMkqdhrnCjBWTKRY8fF3LAPjbI0bYCLB2y9JHlaYVvLCCpmJk/QiSNLGRI9lkYpceiHkjg/GnuThszI8pMzsp+yTrFMuj3DwpyRpJI9cXpDeBa6Hd03IZRprP9XYqgEo3DFTNi6hZB33vPCnBWhQLQFfzV6ER/v2BAqAsIgyOLbpN2w65gCCgtC+RQN8+cXP6P3AdQgODsBvi/9ERnoKbux0nSIIzWL3o8J19yIqWJxveSnOVEXQ5/NBEOgEwd/++NMj7bAhHyKubNkikF5XoRE4/wgQQWDrmid9Vo5yjZotOqslKpW+JBOG9jSWAAwlZVicMnWuVCZUTp3KZwbKsUKQSlclSVJbHY3TGL2WN8QBTFaFxcqdFaJ8XipWh79DERaSS27xk303YuOMtuVSiFKqfoUBgdJ44JwL7AGg76yufmlkyLrZ4uc+MN7WQEV+hokT48djycpWKnpZNxMJ7rvHjW+OH5MFeV/izFjI9uS7YvVocH/5nePlKUkgqH4Z0yExVf10OdU7o+SADXEJFREcElqsPyJK8c5LIbIhW2ZWthFhI67UYwcxdep0hMZVR+PyTsxYsgkxFRuiun0/8qq2REjSFjRv2w5PDRyMxLhg3HdPD0z89k90bnY5ylSpjfff/hgfD3oW48ZPQUC5arjvjuuLtXMXe+XniyDMnvctCgqM6Oep40ejfHy5IoWWXsAHHnwUWeYhTlz5Ky88i4ZX1FfnDTz9wstebVatfBkG9HsAz7/8+hnJUrtWDXTpfCMGfzjEq3yN6tXwzpuvnlQHyfTQ48+olMTyouRO38yZix07d3vdv6nT9bj/np4n1TN63ER89+NPPmW8ulVLPPHIAK/vjh47hoefePak8l8P+wyRkREYNnwkFv76m9f3Pe66A+vWb1Qpn60XTSx0FgWd3/D80497rJkzAu0iLPQtEQRTYXkpbLOvUrFIJcCKgt3frLCVxenvUOlxKeOhUY48BIXnPVgVB/2dl5+vlgvokl46ud3P8FoYSpiXCjxDYjlfgRUl512wnhopvR6srGTQIvePFTJ7I4z2iPRQCmBjt4bHQjYPGJIWuNUrIRUoLyNwGaqZ8eT2WPH7yh8g25FjIz0XTESkB0F6GPg5+QxjysTR6gFgZa+QECcyMtny5RmxEhP5rNW7Qd9JzwL9zeOnZDIP26JEW7Q9nEgdndNQLrEiQkLLFOuv9KwIQrFKois/awTOB0EgoVasXI1nBr6i5CsOgkA/jolTpqljjtPS01U7dFZB/wfuU2SEDg36+NOhypNBZcmD0av7nahTqyb6Pvy4mr4oiYjxwzKIjDGBG65ccpE2qF8PA599Ep9/MRxLl63wTMo0oU4aM0KdYSCv9X9vxKNPPed1r+3VrfFgn/vUAVUTJk9VpyvS1bTxlehxVzc0vrLhSWP4xqDBWLjYW6Fzoevat8OrA73boAOxho8ajTnf/uBJanN7l87qHIagoCB1/sJXI0d7zoy48or66PfAfepAJzpvYv+Bg6p6Q6EAbpfbcyJczerV8NF7b6tDny7Va964EYYVZlHMPIGzAmBlwe+SVcFyOaXIzHdPWsUUpEgX18MKnr0UijSY48Rr8ayYmFAYytL70CRWJKzcqX52YcsxZQIj19qtSohd1txHVp4yuFGSE8qyLy13VviU/EktfZi7NvhfGc9hzcnAz0plLPvNSlTKL/vHz0uFzWPI/ZQufH7W6sbnZ+hf65IQEwOWS7bJngdZL3/mcvw394XfB1lO5tUg2YgYyABFJS+RQXNZSqW2NN+bWDqsKVSf5nipzmX/2u8LRRDo5EH+MclJ8V8F/pcCo8ZNxJjxE9U65HffTFUKUV63dO2uyAIpy969umPb9n8UQeh4fQe89NzTSE9Px02336UeeeHpJ3BTpxuw/Z8d6PPQY4og/O/j95U1duNtd6ojp/lH3rnTDeq0SHl9OvRLzJw9V50VQW3S9cPs6aCDo+ha8udSvPT6/6nPdFTzqZZdHnvmBaxbvwEP9euD7nfeocrn5OTg3r4D0KxpEzz7xKM+Uen5QH91gFKjhg0w5IPBXmXoyOkHBhjPjf5qKC6vWkV95qOi6TMdrkReA5qsvp//M977yPCcPPXYw7jtls7nOlSl9vl547821nLNixUQT+r8TrClzJasDF5jq5iVG0X10z1vS99QmNKCpiY9lrqyDI3Laj2zgjXuG3V7PUsZFc3cCyw/f29VnKzQWfnLenhJRHofrEpeek7gNt3bliRn6qwH8551PmAlKwmW1SKXz8igRJ+kykyxbHX3U7/4Hn+2WvsSI1mGMJQky1q3h5SZu098lZeeCX53ZL+sfWbvgwwi9bxPgrwq3HjpioiYuauF7sdRqmVNEErtXFTsgl8IgvDuW6/jf18Ox4GDh5CYmIBBr7+MqpUrY+Gvv2PYcOMUQ7563NkNNWpUwxuD3vXcox/BuK+/QnCwt/KnAmdLEOh45XETp6Bl82Ygd70vgpCRkYlhw41jpcnKlwShRbOm+Gv5CsTGxGDm5HGeiTg7Owdde9yLzKxMPNy/L/5nns54tgSBfsS97u+PfQcO4MN3/w/NmjQ+43eiqAgCNUh97tKth/LO0NHZH7xjEJtL8aI8CLzGztsM2YKXLmZpaUqLUHoYCD9WBupZ81Akuk+7GFjpSKLASwjSyqWdDXxxu7JN9iRYFaDhhSi0KFl+roMVjlVp8/esjPkQIFZivgiJ6qeNgiYNWZkQ8TO8XKNkpLwQPo63lha6VMJScUsZfJWRZaWilgGR7PLnslaS4um3SeB8EQlW+NLDYfV6MCFkkuYreRN7H6wERhJKJgvyHZD9lO8Ee4bI00AxCNqDcCnOYmfY5wtBEEg0muToBaUXOzAwEHOnT8Kfy1bgwyGfIzMzU0lP1j+542mN//mXXkNmVpa6T+voU8eNLhKCYIXJF0GwlpEE4c1XBuKNtwerflDwZd06tdXE98NPP+PdDz5RpIJiBJ576TVVzdkSBMLolm49kJGRgaFDPsDnw4Zj7/4DePmFZ9GscSMEBp56m29REgSawLr26I2k5GQ0vvIKfPJ+IWE7w1ftoik2h5YYLMfo8uRttfbpbxmnwJ9lBLzXLgBzd4BBGoyshdIipvu8a4FJiWqb3MjsQjaRZsu/UCkZuwisLnciJday0osgCQwrdkl+WBHRuRJyWYLllmUpBoHK0K4DdoNz/RIHSqXOXhXZL2udLCdjwTsYeDz4pbN6FWQ/rHXQ32yVe3tijF0lcv3fGoMi+2994ZlEWJchuJwkdHSPSSjLw2PHYyX/ll6bU3kv+N3heZeeL5dYqWQFKV40s8RF0pELQRBeeOZJtGvTGrt278VDTzytkOzcqaMKgMvJzcXtd/cCWe3t2rbBGy+/oCa+sRMnY+SY8SqeYPLYwtP0rMPAHgS6Hx5exnMuOpcjC5h+QLzEcK4E4YtPP8aYCZOwbMVKJJSPx6QxxlHARAjoHnkcaI3/vxKEtLR03NKtuyelr5SXyMf4kV+dlCeeyxQVQSC8tm7bjv6PPqmqfvSh/rjz9lsvkl/A2Xdj1pivfCpjnpilZc9WJCtBdsXzJM/LD1YloaxndY6CYWn78kawMqJ21Rq+GZ1Oz3hZ4+Z9Pz/jgKWT1uYpwyEFSJqBbKyQWOkwAWCyY839IOMSPNa/KQ8TKQ589CyzuL2Psub+ecVSmMGMLvPgJKVgaY3dZRzr7EtOxovx9fKymCBLL4qVVKk+qsROUJjS2r1qxzw+mfM3UICfW50zYcSicLvKI2EzPCROc5cI1UZleRmF26R6/SmI1G2UlZ4CHkuJh3yX5FsrvRdcXgZuStnkEgQ9VzY+US8xnP0UcOk8cSEIAgcp0g/k9UHv4tfflihvwfezpqkf/sefD8Psud8qT8GcaZPUpEYxABQLcHuXm/Hkow+dcoAkQTjdKBYVQfj0w8HIysrGwNfeVJPyrKkT1A/+jh73qmjhGZPHY/OWLf+ZIHCsAGFA3orEhPI4cOgwXv+/d9TERXEU1Bdf17kSBIqdoAmFLA4O/KTdDGNHfInQ0JBL50di6SkRBL6k5c2KlKPH6W+rS5kmcKnYpGKUk7edAkTthacKstVvdW1zm8a5joVr6FZSYXxbmFFRKklul0+WZJk50FCWlTsTrMsPTChIafpSYKyo6F8/O+V5MDwO0kPBcrPLXAY7cv0usY9f4mtdWuB6lbKmQFDLNktJgBhHVZ/alAkjANQ8TIsIgpKJvS1E3NxUxogD4bZUOyZjcJvkwtiTYlMEgQiOHGcKGLSb2z25z6zwvWQSW1kZRyaB/G4w8bC+k5IUMg5MRkpcDAJts6B9ufo6fwgQCVAvoY/rQhIEEod2Hnw1coySbP7cmQgODsamzVsw4PGnDc/BiC8QEOCPnvf3Vz/Q8SO/RMUKFU4JHhME+vFQMJ2/mZyFH6DAQdoKWVQEgVzttWpWR7eevZXXY0Df+5GenoGJU6ejZfOmeG/Qm8qT8F89CDzp5+blISiw8Gjr/o88gS3btqNxo4b45L13fOJxrgSB3g0jugkICw3F/ff2RMfrrlVjdClfc8YOV78ncoNzYJ0vt7G0TqWr2qo8ZTnjsxGwx7OkdFtTPdLlrJQtnblgRv9zDgVWIqwcjFgGQxnzd1IJq3KmxcvysNKzeiY8RMCTr8EIpPQEZ9op1sCIbWCFb1V2HiXpPlkm+Qy//1xeKTZxGiXtfCCgPGSDovUVcMZygDokShEnlyflNOPP8hn+Ar5oN4WBp8JK6SpKZGWelaGC/EjZi8BPVYKKGmX9zOrcZkAmEyZ6jv7jRFeqRXqH1AlKZkyG6Xmxeg54rCQp4zKSDEovg3WcJEHi73QMwqU8k51B3y80QaCtfsNHjTUJwjcqroBefCIIW7ZuU+vdUVFR+GXhr6dVhtzVsw1StEJ0tjEIg//vdVzVojnGTZqCr0ePU54QUqa0Vk8Wf7u2V581QcjIzMSWrduRUL4cysfHe9Lkyihp2jJKW0fr1amNYZ9+5HOk73/wEezYuQt1atfCF59+5FEOVHjz1q148NGn1HNEwqpUvkx99rWL4Qxeo0uqyNyxwz2KjwweVsqsfNmqZcub/5YWs3Xylla0OqRJqZrC5Ea8LGDoFMPylmTBY12LJQnZPilvimlgRSPXt+meWrs3KYmsm135kiRIZS3JDd9ni5ZiCCS5YZIgn6FdDUxypOXM/WQ5fXlEuH/yOV/yWL04XL7AbfhdyOLn5xTZMr0EzoIClUxIfWfuMrERCaDBIe+ASZ8d5OkxlxCIiNDoKXlhpLhW5EKxGCYXRhWqrQInHOK0TpJJ4s+Ych+s428lfFac5DvHz9K/XE4vMVxSU9fZd/ZCEIQp40ap9Xp66Sn4cNnKVcplPW/GVBhWK9S+f9r/TxcF4uXm5qnAvBs6tD9tJy8UQaDdEHf2ut8jG+1qmDZhtFoyOVsPwvoNG/Ho08+hT+9eKif/FyNGISoyEt9MGe8JWOv3yBNqi2aLZk3w/ttv+cSEtiVSgiWa/OdMn6SIC12E+9AvR2DaN7M9yyK0nKAJwpn9fniJQbp05QTOEzArcOlS5nJyImflzgpPSUFKyTjC4CSPgVQa8hnDC2BcVve/oUgKrXVZhnut9sqTe91UflYFbCVA3AdrOQ/5Ma17Pz/T6le5DozfN7u4mUCorZimJe/lgrfkmmDlyf/KZRA5Htwn9rZIQqbGhWSgnRKktMWwU70FrnzQmQVKHpdJHpSFb1cWv6qLxsckCMo7y6mvyYNAZIKWNVzGsgZULAmNJ5EBAwuXy8CZ1imUjDY/uJwuDxGR7xD3S+IsSajcccHPMcYys6fEhMuVo0yKepvjmf3wL8VSF4IgkFJ75MH+WL12LT75fJiCnZIWUVIjvk6kpeHWO3t6zp4ny5ziEXxtbWSlRxkLx0+aqnIPUL9GfzVMrdnzD+josSSV84C8BN1uvxX3dL9LxTnwlZeXpzIucn6A/g/0xs03dkJERLinDAVoHTl6DA8MeAQ5ObmgrIhtr25luOD7P4xde/aqsvf0uBv97r9X5T/4c+kyDDZzCIwZPlQtkdAyx+LfluDDT/+nyn84eBCioyLV55Wr1qhsh0QQaBvlg489pSwR+vz4Q/2xfOVqDBn6hSpLuRcoB4OvS+Y6qHZ5Vbz64nNqTfWPP5fhixEj1SO33nwTnn78EfWZAiKXrViB/xv8ofr7s4/eQ+2aNU+7U+JS/M18M/pL1W2pIJUHwLxH7meamOmSCo3dv6wcfVm+hcqRLFfj9EJrND89x+58VhSeqHuxlMheh8LEOd7BjtLil9kXjRTOhWWlVc6eDv7NSWXOeDA2kjQZyyAuRRCkwmMMKCU0sSFJfiTG9FnuvpBYMs5WmWQwptUT4cuDQ8+rIEoHp7oGHCKwk9uUGLCb/2TlTbzAeA/cKu8A/WeQEUVQFEGww203vA2uAhf8KC226TnitpgA8e9MEky6R2PLAaDcf0nkfL1rTJpIdk0QLsUZ7Cz6fCEIAmXh46A3EpX+nj1t4kmJRihe4Js581RvetzZVaVFPtVFPxTap5+ekeFV5KN3B6Fpk0bYtXsPevfzDm6krIAjhn3mKT/3u+/x4RBDYfNFrndywfO1dNlyvPDKG15lKPvhJ++/g+07dqKPmXxo1FdDUa1qFfTq8yD27t3nVf7tN1/FhElTsXnrttOOFBGEe3t2x6hxEzB2wuSTyl57TVu89tLzXksHshBNBL//sRSvvDnIZzvkxZkwytjTT9eTz72I1WvXe5V95olHVXppfRUiQASB13Pl+QN8TypGaenxxM2KS3oYpFuZWiKFSevnakuazdjyxsGPnHuBFa38l9zZMiDPW5GefB6C0ZYZdW/uFlDK1BI/QLLKZQ7uq3yelaTsP/dLyah2ZhRux5R4ye2C1HdllJsueok1kxAZvMgj46t9qQytBEZ5CwqMQ6NU8CXtJTBjD04KCnUVblc12napZQXyAjgL3PBz0JKPGXQJPyObob+Ba4GLSIDay6BOuVZtwIxpMJNc+vv5w1lAZMIgZyw3ewAkMZCfuQ9MBOR2Tmqbt30yqaH6+P2hekrcWQx6oilZCJwvgkA5DCgxErnjYmNjsHL1GpWuuEP7a1C/bh2P+1uic+DgQXTv3VfdIkVOCv1UF73sO3ft9qQE5nLkQQgNCVFLFHv2eStqCvqrVLEw4JGsffIyyCswIACXVarouUU5GmgXgbzoRFLackiTCslAV9UqldXEu3vPXpUzX14J8fFIOX5cbek83RUTHYWY6Gg1WRB2VPei335HrerVVTwGkRerhWGtj549evQYklNS8PPCXxWBatPqKuVZIRmlFbv/wAFkZed4VUG7Fnj5oWS9uRdOmlmjvvB4D2TAmdX1LxWStOTYeqUeMP5W69TwHhgxCKRVpPXMitCz1i+g8Fj0lkyFRlvGmrh1ZwDLafUOqHbMJT+5JCDLy+yQViuayQO36SFIwpNQ6EEwvCWS7FBSJf5bejsk6WC52EPAmDKpkIF8kqzJOrgN9hxQWnW7jXaRkNfCaVj4ToOkeXYBmIpdjaUZR2EzvQH8NzlFjD4ZWxmN5QQjWFItH5lkhAm67L98l7gvHDNBfZRBsbKv1ndQ9pPHg/7ld1DHIFy4eaRUtHy+CMJ/AePLr0dh0tQZSvmebr//f6lbP6MR+K8IzB79pSfPAAUp0oFJNGFbFbdU/tyW1eV7KrKgNsaRIjGzK1oVBrfFCpH+lkqSLFFWBB4LWbjwJSGxKmEpIx9D7SEelq2bkgRZrXVqnz0DMgmS8iKInA2SKHlbwqoxg0SJ7YEqUsI8ulq1Qa55N7noyWI3IwpsxnZF3qCgdlUowkV2PMUJUNCmDTR+SsGarv1C69wOlX/BPNCKvDlqLMydKxRXwR4gFZugPDFM5JjsMAE0vCYGATDeBOOUTdrBwCdsqmAHo69ukpGjSYgfGt4GDmC0vleSWMj3TL7f0pMk350SRxCS9mzD1oMnEBwajqpxgUCZ8ogMDcSaFcthczsRVbUBDm9cimZtrkXKzo1IccTCmX4EuTm5CIivAb/961DxyquwYe06JMTFYNf+AwgKDlbR7ms27YTd5o8r6xl55fX17wiURIJAqY/n/7xApRemi9z3vg4x+vfe6RIagaJHYI6ZB0FazDxJK6LALmtzSyKTAGl5S+vf24tguKP5Yne/JBKyR6y4Zd2qrAico/LkanY6vc91kMTAl6XOhEMtb5AJbdbDilEuM0glL3FhkiItWY6X4O8MjemdCZJd5VavBvfdep//JjENQlHojTDqosRGhhVPipz7KxUqY8yycp94fLhfVk+E5/wMWjYwNjyait48d8LjbVApL5VnQu1RoeBEOy3vESEw8OWjsVlOJQOMCv6fvfcKkuu80gS/9Ka8996iqlBVqIJ3BAhPIzqJRq53JjQTu9sROxsb+7Bv+7Av+7CxO909babVmm6NREmkRIkkSIkgQHhbKKAMynvvvU2fG/9/77l56rIoERIBFMjMEIWszHt/c+7N+33Hi+wKkpne8kT7ICJGe9DvSbOWqLEgiSnpsG+lds/L/XX4bfMKzjx7EI7gPBzOBMl8z73/G0RnFWNfbSU++fE/IeHkG+iqO499O3ZhYqIXfks8Du2pQde5n6DJVI0ojwunnzuA1qYmFFRVwehZRf2de0hJK0RBYfpX/1T4mo64FQnCf/rf/w80NDXL++LF507hP/31/7SxuMjX9FqEt/V0SEAQhM3AhNRDxTetgLw4Th9zQKmDHEg3xg1Qe2a1NLKuVwLX/jmYcW3dx1IhQyCojCfxmLkguP+fa5qcdAhLwudcAKImQSCg+bk5SRDjc7cEyYu7xGh8spJwMkHkg8gIL9DE10/EQAQPK3Mq5nwRIMiJjMzOEFYEYWlg2v9m8iPw5fvhMSB8XL4vv09YAYibCYuBsG4oc0rDgOyZJIIViagYIc4Ra5bLloRStRiIKBBq/a3WivCq7g5as961QPEKnATQNaM9kctF7E3IVHRzdGwlgrDUX4du0zZsixOlLNckQfD4grhz9QqOHnsGS64gGj96D72zkzj2+nfgW/BgfHYCB3bvxuKyG1O330FScSV+cX4M//N/eFEjCNaADz6/Ae/97jzeev300/Gk2QKr3IoEYQuIJbyEsAS+UAIiBkE8nCmTQItkZ0WI5ANZ9akLc7iIVSDA5MQgZKYOmaEVAAiZobUCRGqFQgJFPVEQCxbBcQTOErxUU74CxqEMAg7+XCulNVK/B265EOsQlgQCebIEkD+cZ24QAPEYBT0xIQDmJm++dhpXVitU5UdEgWvI3M1Bc5CWz8GUWwBoX1KLZ6mXnKiJscQaeAYEfcYJFl0HTtA4iRDHKuBtlO4Cn98rSYpcNwUrGtT0SfGJtCooAC7O04iZ6sIQ5ZlFSqRBrfLIiRi3jHDLFd3MevLzjWr37Fl3wWy3y0jR8OvLSSBMEL6cnMJHhSVAEhCFkuihzDUyYcHmD2vhw9a0PBWIKGqexuJAwzVWBeCUxkZawyYq4CNS59TxyDqhH0cDFbEmCTShqoL8WA6kNL+Yj9IeJSlQSYcEX7PyN2+KRMdQsJ0Yk39PjdlINgTIHJxJHjSGFr0vIv8FBVtkggAAIABJREFUIKqWCiIhesAjkBZ1Q4goEZng2j9dL/psg5VEV2WS1ivG47UGuBWEg7CeKJCcCZR9XtFDwqK5GCR5kcGKwqKguiUkW6OYBsVCQ+MIC4LYX1Bc/4DMuZB7JRLEg0/1AY9EWIjwiDUJWYbTHMPPtT8qgTBBCN8gYQk8nASEBYG0RQJv0vaE/Vh2IlQf3NxqwIMIuSbK3RXSH62r7Cce5gTScl7W2Ic0RvqXm50JmATAis9FNg0vuczPJXLArRIEsHrtXe0+oJUHJmDirhROdsSYJB8CM/EZj3Eg4OfH8WMJ0GQshQBNFcyVugUmWMwWuT/xXq85i0qHQmacTImaJ2QB4bLT4gnUNQvXBW80tcE6o6uFQddUablgkMSGgFl8p1mCZFElYSkQliXVIiMCE0WcBCsjTfcQ3Z28t4MgCGRB4NeMyAx1y+Rj8L3R/ZSUlrm1XAwP91MMH/2oJRAmCI9awuHxv24SEFkM/EFOWrgEgICSH8/N7wRMUjlUTeWygA6zApDbQMEHBTxDfnUl2I20XWqqxAGUA7w4jzRpTXuVEfmKW0SAk55I0HEaqVDjC/hx3CrAOz8SaNKxZKbnJn2+d25BoM+5Vk574e4Buof0cxAAkqYtOyayPgmijLFSX2BjIyvuOuFEicgMfU/j0pj68zYjWUGRJqmmp5I8uUtD7oFqPKixByIOQa38LLfKr4dGnqwi0NQvSzYLciGyGvh9xokat2TRe9ob3VdinjBB+Lo9nb7i/YQJwlcs0PBwX3sJiCBFzT/Ocvc1071qvuUmdBGDwLVjvZD0QKOAq3mDiZnAVGqMYjy1RgEBMTdx07EEoNRxUGq5IpJeBVFaM5meORHhlg0Ca/pMgpHanZDM2XqNnwM1D2YkywQHfQJFPakgSw1pxpuRD+7aUIIEyeevlDPmzZAUGZFpXkkllVGN1GJBixcQ3zGXkUg5VYsryxLJYiK1ToQWCMgsB0JD12SvNngi4qhQQOX/lTFFMKOosSAAnz5TSm1zmarcUfaHkNdJDbakMs+cWHDixeMhhDwFQaBrsOXSHL/2T4+nbINhgvCUXbDwcp+4BISLgV7cR8/BjKcxKg92JQ+eND56aHPzNvc3K+eLaoobTebkQ5fzquZ1WgsBsl5r5eRDARaLBB4CClo3nUfxB3xcMkmTpUOzNAiQUi0j5NfncQRiHl4ISG8p4KDGtXROeug9J0g8joLLkEgZncOvg3582gsnJ3otnObhLpANN6CaMimvrZqeStYVKnEtyYAgIGpsnNTkVRIjjpX3BNQ6DapFQcm6UNIbtRgU6tipLoDWRpYETu7EeuhvTu64DMR7YUFwhnsxPPFnypZdQJggbNlLE17YFpXAb3/yD1rhGwpe49qyeE8PdfFwFq26RTElCrwT/nMqFERaPwc88WAX2qTFYtUi2IkokJlY+NDle1EmWyZMKIAg/uMaNYEgd2dALbxDmifFAtAaCPyF+Dlp4Wuk92J+6S6BEphIoERkiAiNcHlwzZXLS8xDaxDnc58/3wsnWATqRAC4f5/G5mMSYSCwJIsJ7ZGIGw8iJXcGt2rQ9aJ1+fw+WRJbFn9SYwgE6MtU1kBQLeAksg4UFw9ZDMSxciwiCJJcCAahxq/Iwk5KJcdQQGWoVDbJWaxfprSaqOCS4krRKj6q6azkZtATsoSU9K1FEOgm3qK//a/lsvQ/Rr7JMEH4Wl7y8KYeoQSo1DLXPGk6AmpKExR/yxRHygagMrdq+iGPpidAIo1YBrKpBW14VLpeY5Z/qySBuw7EeKT5yuh3imMQhXcEiQkGNlg1aA967Z32SeRE/EtAShYC8bcAOzEPESFumeBWDCIgRHponXprCQ/q5C4QrlHrQZy7O3i9Ca45i/PFOj+XEso0cw6wRAq4HIh4kXz1z1j6nvYthzZAWn3kukSaokoQxL/6+0AcHPDLwgmyyZM4xutR1k3yo73KAEwWo8ItBkQMuBVHLIUIniiUtKW6OdIP6BH+fsND6yRAP6LNBBMmCOHbJSyBh5MAVVIkENnsbNLkJXDKeAE1noC6+antgfVaO7coqMkQcniuWROAU6CjHIN1XyStmACS/ibNXFQblMBhUCLreRojmdgJrLXgPxWA9JooWSZIO+YaOicUXOMnqwsnRFyGtAYCQm6V4M8yDpT0OffZi++FjDhZo3m4lYTWSdeTEzDaL41PbgMCZ06G6DwiM/o5FKIoUhtFbqNyDQRJEy8iUyHLgOpikKEOSrqs6AApXhQsqrmp1FgUTiJJhpwkUvwId0UkpWXAGRH1cD+Ahzx6bW1N3mP6l2F1bV2JwAi/tqwEwgTh0V4ar2sdFrtj00m862sw2x1f2I3R7fLAZlfyuh/m5fd6hOESZota4/VhTg4f+yclILIYqLMiN8ETuBO48uAw+V6tSUDnEnBzvzxlMRCg0sOcm5S5lYAsFPr2zGSO10BEDUrcEG+g5tuL9DmuaZISJz7jGrpYE33Gfdzic66hato6Kw3M4xq4q4L2yckArYW7VWgd3EJAe6S6DDxWYTPQ1YM9n5P2xi8+Ab7eEkHXjcuGkwFyd/B4CH3shSY/1TUgAg/l3kQ2g4qaEtBloKRasMmkWGf4vDzuRRbFUotKcfcKkSaxbr0LKByk+Cd/7t/sAx4XQViem8HHl+rw7ZdPw6xWhJsc7ETbNFCWHomk1DS8/eEVnKgtQNfILHYUpeJC6wQOFychIiEVzdc+RWzBbjhNbmRmZWgX7fbVqzBEp2BPdQlmx0dx9noDvvfyaTR2jqG2JAofn2tGYXYMAnFZKM9KkNFCvz93DXt2lGF53Y3YiHV4HFmI946jY8qENIcbrfMmHK7Mg2jh9rsrDXj5yE64lmdxs6EHtYVJWLOnIj3BKddw4bOrqCorws26+3jxhVP4ye+u4dXD5QiabBgb7EJKTjFunb+CF7/zPC7fbkFBIjDhiUaEexQJ2eVoun0Vh0+dwcXfn0Vu5SE43OPIKy7Dv/30N3j9tVPoHl1CdpQXHYsWVGU40TZnxO50oHV4HaXJZnxwdwgHKnKQkJ4Ki/BHLo3hVucCEs0epFdXoe69/45nXv4BZucW0draie3b8pCcHI+f/fM7OPPqaQQsTqTEOQG/C31D82i6fgGHntmP6NRsXLh2G3sqirAatCPK7MH7n1zHD7/7Kq6dOwtz6jbsyo/Bu1e7cbQ8CavWJMy1XkX+vueREq0Qk9mBJnza4sZbL+zGxMQkujraUVlWgpj4RPznX1zAD0/vQtBiQWJczFP1I6Q0RyIEpJlxMzM38xIIin+pBDKBGz20uVYnXAsEWASIevJBApNgK1spK2Zo7qffOKYSDEeEQYKpQS29rP4eaUw6joCOAJKAnbRyvm+aiwiE/E6tWMc1clojyUrvVuDj0PhcFtziwoGPuyvIckDHcksF17I164dqzeEkjMbmFgl+LTgwc4sIt+6Qe0h/HTb8TSQqEIRIyZScQG3kJOdWeztIcqO0a9iQxrmB0JiMMsWW7gFxDiejXF40zpYrtfxUPQm+AYt9XAShu/UeklNTsG5MRGqcXUp2ZrQHLZPAzuJMREba8fMPrqI61YJgYjYK4i34uL4fe0tykZmdgvuXz8GaWoaczERER4Y08qt1LbIPx96De7A8PYU5GLGy4gV8BlQVReD8Zx04dmAb/u1CJ/79C7Vy3k8u3MDemnJExcdibWkIfkc6Yr2T6Bg3Is3pRsu8CQfKlBbPH91owgsHquT77pZmDIzP4sSJo9qdcenydRRmJKFj2oPje8vwL7+5iNO7tyEtOxPzk8PoHJxGZGwCqkpzcPbcVeQmRcGZnI3Bpps49vyLWO1vxGpsIdrau+A0ehCXGIOiwlJ0NdzBuiESSZlZcHpm0b5kxd6iFPzr2x9jR44TuTuPIC4wj3euduFwdRHSMlKVNQV9uHGjDtGx8SirKMW193+OAy98DxazAZeu1ePooZ0iLhq/+Ke3cfD0UaRnZsBsDjUH+vDtn+PF735fpnj94cIVVBQVISMnHSvz85haGUNcVArGOrqw4kzDrrwY/OTjOuyvzEZiRh6G6y8if+/zSIwQU/jw3q/PIifehMKDZxDrtODGtWs4cOgQ4Pfi//vZOXz7SBXSsrKgWkifml8bBSnSgjno6jMCCNwItCg4kXzG/IFP4BLS8kJgwC0BenM0B03hjyb/Nwc8TlI0N4ZKEKT2y/zhfM2kdZOGrNfk6XNu1dCnImp7FKWC1ToQHCSJiHDLgl47p/0T6HKNna4D/4yTA651k2y4e4jvkdwNXN4UaCmO48RAs5SoKr/eMkIEh1tC5E/0C9w1ch0y0FGQBOF22Nj/QlRY5CRUjEXuDOluUtNOSd60Ly4f/T0WtiA8NY+dJ7PQx0EQAj43fv/xZRw8WIuPb3bhrRf2yUpoU0Nd6FuLxN5S0VwriJ+fvYkz1QkYXo9CYYIJlzpmcLQyC1abE43XLyCl/BAiDGtITE6Wx6+Od2Jo2QGbZxYrEdnIdHqxIDTZhk/gSq7B/lInPrnQiu1FyRjzRWJPSZo87w+f3cbpZ/fKH9vayiyGl4JIcI1hzpSGJNMSGqf8qE5zIjYlHR9cuYfjldlYDTpg9S+gaRI4UpmtXayLl25gX00JLjaO4LmDFfjJBzfx5okaeP1+jA30Iq94Gz47+zucfu113GkewMGaQnluw63LyC3bhfa7l7D9wAnU3W3Goep8/OqTG/jht8/g3359DW9+aw9uP+hFZZoT7UsWHCjPwXj7LXzWb8H3ntuJwMI4zt4fx9EdebBExcFpBlwTfehcsSLCNQNTSil6r76Lwy99H1azAecv3cHxI3skiXj7x+/ipe++BJcHSEqIVLhFMID3f/Y2XvrB9yF0l3NX7+BATQVWVj2wmwNYi47DuV+8ixeO7kTXvElaEN67PYK3TlbL8299ehYZVUdhWJ9DTJQdzWMubM80YXwOKM1Px9UrV3DomSNAwIu/+eUl/Oil/fD6A4iLjX4yN/+fOStZEDhwcLKgtx7Q33S8BDJdu2Ou+dN70X2RTNMENvTQJ62VEwzpblCj4gnkOUkgcNBALqikIBIYQs2r5+snoOYgyteqJx5kLeBEieIcpNlbJTAkL7I4cOCkNdPeCcw3umJCFhFx7mYkg9bGgZrkwkGTBySSVYFbL/gexedkvif3EidPm1lViJCRrPVWHk5+ZLlugygtLbIelFVqFhiDWXtPRIFiIOQcQrZqYCrFXfDrT+PQfEL24UJJf+ZD4Gk+bXl6As6EFJFZi7mldSTEKgCw2etxEARxEytpW2aI9CyL1SoJgs/rlYzZahXG8QBcLqUCnN/vk9ZJr+iOBvG9VT1W0Y5sNuGXD8LjFqVVzbKPq1/0ejdA/mu1WWWXNPGT8foUn50yh3gF4HZ5YbZalP7xwSDcrjX4YYbDboPf54VPRhgDVrMZbq8SXCN9qAG/HF+ZXz7S4HZ7ZH31gN8nff5ut3K8WJfJAKytrMAWEQUT/PD4lXNl7/lgAKtLy7BFRErtXq7JYpF7kaljPi+WV1yIio6QtddJTuI8EdxsFg8Cn0/uT8rIZlMtukG4VlfhN5jhdFjhdnulPIwGsU9l32J+j8errdNCBXcCAbg9XmWNwQBcHnUvspmNmNcAsxCy6FAYFA9lEc0e0OQhZEEgJA8zGCHCIFweP2xCNh6fXKe4LmJdJCea/2n5zQkLAn/I0oOXP4C5BizvFLWrI08p1CwF5HRW4wRCYyuBjVJOLJtBTxr02rSMdZCuh1ChHS5bAnvhYuAapWZOF+RFrUhIayTgpHG41YIAkNapz9tXWk2LZkVKrIMetOR61PLR4hgyi9OxerIRsrCE+heQ7HlA4mbnc8sFgSyfjzRyfRwGXQeSA7kb9C4S/T2sgbuonsgqPOr3oFlm1BgCUdyJ0mEpjVW4GOja07gbYmDUYFVJUtRqjiKuke4P7taiz8IuhqflqfMVrnNlfhoXbzbCDA/2HDyChBhh89389TgIwle4tfBQYQk8cQm89y9/L9fAH/7ibwINAVKCCOuzCDiRoPMJrIO6RkHKg1+JEfgiczoBDoEZBw/pwlAzG7hWy0GKOgnqTfvyXDUugQgECV0PcnyPHPgJnPVEgsgEB325P1nTQYld4eul/eu1cI3ksDx/WiMPZOTXifYixuJ1KjaArEpi+LziPL2VgdZJ+6MxiAyJ7zXQ15Xe5uukRlZ0PGWjiEwH0Z5aFmykuAO18yPJQu/SEOdSVoAovSRJjUoUuZWC5hJ7Sk7P2lq9GK6d+z3yqqswN+mBZ+Ayqp7/Id49dx/fro3CxQ4PLPP9qNxbg19/eAd//eYu/D8/v4f/9T+cxMcfXMTe/TVITErC3/zdf8MPXtiBYUM+PMP3sfPgIfzkp1fwH3/0HLVkf+IPkSe6gGAQa0sL8Brt0l+vPns2XVKYIDzRKxWe/CmUABEE7uMlcCRg5IBK7wmU6G95jgpwsgGR7H+gtIVWAErxRytdmxXNWwMS5svmBEIDDbX3AI3PwZGDmyjmI4IiOdBLEqBa1ygVkgDwi8CX5uUaup4EkVuESAYnG8qGxf8UsiCsXNTFUfjipQzUiH+qPcDJBycMetM/yXuzyH5uGeHvOfnSkwUuSz1JpGNJW+dr4dYgSpcUx3PNXloLVO1fjq1ccbl3WY1RjV+g60B7E/uXKZOqlcIsCy2FCALNw2UvxtpyLgbv2hLqGx/AYI5D1FIjSp59C+9facW3qyPwXz9qRnFmDKqqKxGYfIDLNwdgyCjHa6e249/+8V9Rc+w5VBRkoHNyCtP3ryGm4gQCYw+wY88u/OvPb+Pf/VUoeOwpfO48kSWHCcITEXt40qdYAsLFQEAg/iXtUv/Q5oDOtWs6V3wmshrI9K4At9JLQNEblcqIopGP+Iyb+2kM0sS5tsoBTZjuiVToNXwiFpRfz90iBCSiRiJ3C9A5eqsGJwhkyeAATpebzuPxBCQ3Drz6tUrgY+mYes1dv0cuKy5fTrToc73LY7NrRcdygiQ+41kCm1mI+H1CIE1y1pMLPQGUx0tSuLFKop4sEgmRdwyVcxbdHkVcgvr3F7l24pNSt1ahpK62ZiSlpGFwYhWFyUDAlojpZQ9yY3zonPADK2PILiiCzRGBjsEZBN1rqCjNQGdrH1ITHYhJzsD4khuLvfcQk7cTWJmEzRmBkTUrqnNin+LHzpNZepggPBm5h2d9eiUgLAgEZgQY9LBXQF55OHNQ5BolJwhkPiYLgnKOQhBCQKA05+EBhfrUOg5EG4CWLBHqYkjTJgKgaM2qK0NtNU1jyWPVXHzBM2QrZdaRUg9+3K1A8qB1cznR3PpsDE4+NPKiNrmS4Ml9+EI+Mj1RifYnc4vMEhEBMmr8hZ7IcFDWWzuIZHCysYFsbeIq0F9nkj2dt5k1g1wERJK4i4NborQxKO2VGk2peyPCoVli1HRX2cdBdUsIgseJEL8/xedbrpLi0/tY+HquPEwQvp7XNbyrRycBQRC4CVoPNAQS5FLgAW5iVfrANqmJqr0USLtUHuQbSQYHfoo74ECv10wJeKS2rdYkIKlIk7QaOEhjiOh5xaWhkBMCP659isZA+kqIf4oo8HVo2i4HfuqCqLaY5mmBGvixWAxaH1kReACkdl3UbA5OTDjxIW2dr50IiziH9rhZASguc2414HIiQsjvEz151O+NkwuFuKmNugzCgqT0epD7UbNN+DHcfcWtKzwGgbthiKQkp2VuLQvCo/vZhkf+cyQQJgh/jtTC53yTJUAuBnrg6/8VD2IC4A3g6hONfZRAPAJfzbyuFjmSwKwcIAmCHoCIbFBwm15D1vviyeogzPNiTNEwyWK2SHM9AZL4V3NliGbCLJuCxtO0XaG9qsFzesDj2jaBFB3D/yaSRDKi2ADxud4UzskA7VVfPplAnEBfrp81RuJZHyRPk1FpV03y5JYFvSWDCCB35/B9bUY2+H71Vgaak0gYP5/LUIK4tEYpBIH6N8hgRGal2sxKol0basutypYHWwr3SJggfJOfZF9i72GC8CWEFD4kLAEmAdGsifdBoIe1Hmx4pD6d/kUmZ/E9Bd8pICGCzpT0Wj4XBy9OFvR+fL3ZWm/+J9cBmZ+VoDmRghvqX8D3owdhajHMyY5esybA56SFtF7uy+eaMA/Yo7WJcfjx/GbkVg7SormMpAtHZ32glFG6bprmrgIv1VSg/Yh/eYEkLkt9TAK3HnHLyQaLAKuGyK01pNXTsfS36L4pZallJoQsS3xdJG8iAeLe8fh9G0imnliEXQzhR9sflUCYIIRvkLAEHk4C5GLgFQP5CHrTLwEWj6LX+9/pnNCYSh0JbqImkzM3m9Nn3HfN3Q8EGlzbpzFF1DvX2IWmKqwDBOgE/rS2DSRHFFhiAZCbxRjQ8TQeL97D3QMcsDWLhxrDoScMeoJFe+GxFeIYamjEzfj8umzmRqEiTmRN4MdvlJOiwXOZi3P01RmJaHCrAJEdsh7Q/siKQP+Kc7U5jdToS7UoscBDTgz5XjVyp8Zn0LjcaiGOFwTB7vziNPiH+2VsfnS4WdNXIcUnNEaYIDwhwYenfWol8Ot//ju5dm7+50CuJwt6kBff66PfNfBVa/HL0gDBgAJEZGKmgkr61DimIevBjcYVn/PUOlq/opqGXBlEOExGy+fM70Q2SLOXgZVUv0G4MFhNAn1cAAdbvdz+mDtCb/nQtH11Y0S+yI1Ae6Q5xGE8Y4Jr0LQfbm2hY2n9vLCVBHOLUlyK5uWEhZMZ+pyvl1s2Nsif1X7YjIho8qHmWroCWHr58XtTNOLipEN8xy0tYYLw1D6GHs/CwwTh8cg5PMvXRwI8i4GAhD/wuZ+Xa5XcpE3vNbAVtfRlXQSRKaAUQBAVJwVg+WTKmmJNoIc9ncc1d26+54FqBDoEiOI4XvaXgt64Vmsx2+QF4/5yrjWT1r8BFEOW7w2gzPdIc3Aiw0353B3BZSo+56Z/vhe9hYO7drg1hOamO5HIEMmHwFwvY3E87V3WI2DZFDQWzcPJCLkINsianUv71pv9iUjQvCQ/kY4qx2TlqrkFgp9HshNpjpycccIoPt9yvRhW19bh9iplVsOvxyOB6Ain1o5VP2OYIDyeaxCe5esjAV5qmVsHOBATyPBdc1JAwEugxAPpJOjLCngiil1YERRXgCAJopASP5bPw8FVb5onsCHiwEFRIxtU5pf53EOme1GbTwEofZaBBkbCoiCC4qigk0UxjRNw8fVxudH8JCsetKjXuokYbAauHPy4W0Mf76A/jgMxd9lwEkL7JguFZnWQpp6N1S454eEEkqepEnnQEyZOiug9kRPNqqPWg+By53Li5EuzSJhFf4dQ2W6SQUJK+taqpPj1eUx8PXYSJghfj+sY3sXjkwC5GLjGSQ9oblImQiAezAR6BBik5UoLgU/pecEtBDK4zki9Eqj8cKjrJgEWWSj4uRyIxRoo6p8sB9xvTfNKIBExBaqGK/7e4JIICmJg1lwjfL8EiLRH+lvk4IuXPlVQbxLnWjeBMv2rt8CIczfrZ0H7oLm5PDUNXFefgseBcFfGZiBN++UuBUnONinexK0JnMBx4qDX9vm+yQWgD7oUvTNkfImuT4betaERPn7fCZKp9vPgc4cJwuN7bjyVM4UJwlN52cKLfoISIBcD14JJCyVzLq+uyE33eisDgQCZz6XpHiYEhOUAisYnLAmcWNBcm2m+JBZaG/dpcxeEPriNm/DpvRjDKxqnaaWfhQXBBL/P/7l0TSJGRIa0y2MwwGI2w+f3K83RVLeFZsnQFV/imrAewGm/JE8iYFSzgLs9+F65LPTERozJXQ1EpiijhH9He+LBolpZaLWGg7SgsBgBMZ8gWiJoku+Nu5vEeCL9lIgUJ2dCnuI/pWGdao0xhdJSRXVlTrC4tYTmlnJUyR+RCSKUwsUQDlJ8gg+TrT51mCBs9SsUXt9Wk8BvfvxfNlRS1FsNCPy4G0E8/AUI0LEc5Eh7lA930WhbUeRFlKKSXgdFmydtlACBWyY2A0GpbaoFdzi4EggSmPAeCdz/rgGL6oMXIBXwC3D6fAMp7vcnEOLmcyIqNCeBuWgxTQGb3AXDizhpxzJyQVoyEQ7xN8+AoGvA/ftcfgSQdBwRNG55EN/prTF6VxAnJZz00LpoPJKF/l7m6+PEg/a3YZ1Bo0IkbIq7QFh0BEHgcuPkke4rSUAE0RP3EnP5iLHD3Ry32tNli63ncRGE6ZEuPJi04tna3C0mgdByGtv6kZ+ZCI/bjcSkRPnFXHcTXAkFSI//4pbZX+WGfF431rwmRDuV8rdf9hXwrSNgsMKsFuL5ovO8i9O4ObSAiY5JvPGdg192+Ed23K3bd2AxmFBQtRNx9o3TBL1uzLsCiI9yPLL5/5yB3/2vf7uhfC0BImmdIb/9xkJHeq2dQInM1pp2J0oeq4FoihYvwEAWz1XqIwhtXL3Omn9affhzrZtS/Tjo8YA1bgqnNRDIkXuBFXOUYCnnFdUWJRIp7Zs56IjxxbwEVHrzPicgkjSoGRR8jfpziPzwc+l4brYnUCbQ1lwdqrxIMycyQUSJ7gHxOX3GrUNcZpyYEADzoFRJCo1KJ0U+D3dhcNDnLgiSnfiXuzKIaCKoEhaD0sLe7xflppXPuLuLXEm0Hykrk1I2mx8nvg9bEP6cJ8A36JzHRRDuXrsKeNZRc/Qk7tx/AOP6AhJSUzG8EEBaYArFO3fgQes45qamsHtfFVaWV3GvdRxJ3k6kVz2L4Yl57NtRgrnxUfQt+4CRTlTUFONuxyJKU5xoGF9HdrQXJWU7MDGziOaWHpSkmjDhjUROihOLywG0NHfilddOoL/5PqLzStBRfx9+1xpKtxXA40jE/Ow8DJ5lREXakJKaCWeEE/M9zZIgWLyrGB8ZRHZ6MmY8DqQkxWNsegYZNi+6Z93o6p/Cvu15yMpJVyrhAZiFzYZ7AAAgAElEQVSZmsDszATyCgrQ1juJzNQUJMZHobmxEQU5mWhfMCIJ6xjta0FxaSnu9c2iMi8Bk55ojM3N47mdMejr92J0qAdlZSVISEpCILCMlvZJTI6MITXZCUN0ChaHurF7Ry7clgzca26Fzb+C6NRcjPf34diJI3ItU1MzWJvuhzE6F/0LCkF45VQZll1uzK74MDbQhdysLPTP+2Gc6kDN3r3oGl+WhOlBYyuKCzKxYEnCg3t3cWjPDrS1NKK0MAddkwG4RjtQUV4IrzMe/W0tqK6tRXxcNO5f/BSpRSWY91jhW19BVXEKPrk9gtOHy7RfWHPTA6ytLCEjrxAPeibxzO5CdPWMAiszSEnPwMCqAVMN13H49HFMu2woSY9+4r9OEYOg10Z52iKBNl8of1jrNXYFjES3PkEMBLAoGrpwNUjQCyoxCiajGX5/AAY14IyAhsBMLxgOnnpw5W4DvZ+cg7UGPsIVoPrwFU1dIQgEhBz09KDNrRsEfpvFHXBLjAjSFGZxvYuEQJeTKrEeIX9Ng2eASUSFa/BiDHpxS4PezaIHUwWUFXLGtXZ+HTTiorZe5hYcOo6OoT0Q0eB/0/ic8GnX36ikWYo8F8puITnRfuX9opJGuVfW9pn2L/4NxyA88cfJ1l7A4yAIqzNjOHurHdFWYM+BQxgbG0dBZjKWZ0exYM5Epq8P9oR4DM0ZkRIfhYGeLkQmJONuwwCyzAOoPP4Wmls7sbuqBKMDA7ClZMMycg+m+HjMe+IRZ1hC77oTGdHriHE40TW6hv6+EVRkWWHN2AnjYg9sCRmwGQxwOO2AdxmfXbiDzKodeHD1Np771rOw2Wxo6RyUBCEuLgrZOXnywgkLwrLJidE5L6LNa0iKtiMlv0J+19Y7ijSbC4PeKORHG3D+RgNefvEkTOL541nCZzfbkJsRhYysFLgCUYh1Kqlj4/29GFpew46SQly634cEzyAyc8sxFbAjNzqIvkUbBqem8WJVFHonDEiLNaGusRPPHj2IwPoERhYtSIx2YrCjExk11ZhquI2cvGRJEMYXZmGYGUdcSS2G7l/Bjv3PKHNOTmN5vAf2hEKVIEwg0TaDygOHMD27DNfyAgrz0tC/Eo3Y6dtwxKZiPTIdOSkOXL7UjP17tuFG/yrWl6fx3N4K3KlvwK6qInx0sR0L09N47dWjsNqsaO/oQmX5NjnnJ+++gwPPfws2qwWt7T2oLEzBJ/XjOL2/GEazWRKp5tZ2lBQVwrMyh96VKFRn+zA+HYBpcRjzfgdmAzYsdDThzCsvoHVoGRXZUU/8B0UEgQMDBzf+oKdjOAgTQNDDXCED0qcgLQeBgPDXi7gDQRaMMBiVYD/F32wGBf/px9G7LThob5hLLevMTfcEGmTF4OAoQVTXy4HcDHJ9gsoIDVXVmk1ms5bJQOPJ+aXdQYlJkPKQ/ayV8soKZos0zoDUdCUIaymBSqAlX6/S4ZJKDtMYIcISIhYbe0oo2ji11A5lZHDA5+4SDryciIn33JVC15fk5g/4pUn/cxYTlWTpSQWdx+VFNzrNK9Ic5XrEHSD6ZZgs2vicUPAaFPS5sAQpZZsVckTWqy3X7rm/6RaaB+YRE5+KdNM8GjqHYIhKx8GqFAwvObCnthgt1y6g/OBxLAx3omMqiH21RTj/2w9x6LVXYQ8Gce63v0F8TglKSgoRdC2i8X4rSnfvw8S9T5FY9SwykqLQ1dSAGY8Fu6tL8dt3P0BxeSlKygpx9cOP4HfG4LnnTj7xB81WWMDjIAhDgwPIzM4F/F7c7BhDonsCLeNreGZPMdaNiUjyj8OamI26q1cwh2jsK0nE1aZ+ZCclwu6bQGHtcfQMDKGsMBvBgB+3Lp2HP74YB0sjMbXmQDRWMeqxIynCjUhnHN7/+FOkJGehMM0Gc1Ip4m0efPqH8zAnFeD43lIp9oZ7jaiurcbawiQ+ungHp06cwPTsAgzeNWSkxOGTG414+fRRLI/2whOZhLrrN5CeX4DtRbn43dlPsfPgs5jtbcSaF0jOykVL431kFVXBO9qMmmPPw2EK4upnn8KalIc9lUW4fO48IjJLsLsiF0H/Gj673IRjR3bh7EefIDMtEbnZuZgPWpHqDGLcFQF3701MmRNRlpOG5nt34UjOx8GdpfKBcOPiRSyb41GWFonE4iLMd7ciNS0OXnMiZpeXgMVZRGWXYLKzEcXbq+V+L56/AIvNhuLS7RhfWcHs4By2ZwF3hjyoLc/GysIiMtISML7uRORCG2Lzq3D3+hU4krKRGW3AzQf9ePm5Y6hrG8De8jzcunYF4wtuPH/mOIKr0/jw4l08e/QoFuenUZCnuJE86yv48Nwl7D10GIGZYbSOzSE1IRvu2U7sfuaUVGoGh0eRk5WBtaU5jK07UZhix92rV7DqSMSB0lR0zPqxOtSDPYf3o39yDfkpzif+sxExCOTf16fkETngD3y9tk0PeTJXc5OydCNAmIMFOVCIgfhbAKJ48HONVDzwhZZNGvRm/nC+DtKWiVgQSOnPF9+TWZv88CR0AkwyY8t+BrrmTjQ+Jxubae16KwKthzR0pQ11EGaLYkmhcYMiToOVKxbHCFIlzqcxQwCsyC5EpgQ5UFw/IuBSv09aJ4+B4PLibiIxF7fEEGkgUNZIikqeiMDp98lvaG7p0M8lLDY+nx9mi+JSgHQvhAJYuYyJEGqyVLjYBneE2KMgCM6IR+s+fahKisv9degwFGNnToy8SL/82/8Xr/z1/wb7Uj9uDFlRm2PAO/WzeP1IORzmdfzLP/wML5zcg8ttM3jzWyekLG++8zaqXvsemutuI7gyh/0nTuLH//BLvHogBp68U0jyjeBSjwE1WVYsR6Xiym8vY3/+CkylJzHfU4/q3QdVn94Tf9Y88QU8DoLwxDcZXsBXLoHm1g5Ulitk65v2ElkMBNYEwFzT5KCjuBsU2JdAI1iRfLYr/mAxDvnsFdKhuBJEMyW/X6kXI9LbaB4CIQItYU0gkOKgpl8XjxUgEkPgwcGfExyenijXwVIMaR3UFGkzoOQmf701Q7M2qFq2Rjj4zSR97uR2UUBd7ttklsCokAJxjFKZkoIUOTiG6kYo54rxhLVDAXFBHBSrhjK20vqaYkn02jbJgLsl6DPxLydotA0pY1G9UCUwRADIXUHXke4ZIjlErnhsiMhikNkQxqDiUpGWmpBcxFjc9bLBfWJR9sXdC+LY5PSsrVUHgQhCdnABKXm5nyMIqZYJOONS8cHHD/A//ugQets78fvzjTh2sBRlNftDBOHV19Bw+wGsgQXs2n8A//jzm3hjx5okCL6FXrS3L6G8PBWxaZn4zduXEWmawgvf+y5abl9FybYqmGJjsLVCn57MYzZMEJ6M3MOzPr0SIAuCBpKs+yEBBlkYNPOwat79IleDyA5QYhN8SpqcQclmELZ3CkQTD3gCDq4tCtO9X9fdj+bVWzTIakGAROZ0LdZA9d+LzwUI0Tz0PQ+OJDO1WLc8Xk1l1PaoqxHA18wJw2bvSY60DwJSLj/NpSJqLbDgXHlddOmUdLdx0qOPS1BIlUkSCAVMqTiVkm5K1iIaQyNpfv+G9tDc3SADRUXKqihwpZZpJlkSSeIkg4M8tzSI91oQrEoYqaIixbTwOhREkmjf0l2juolofWIdWy4GYX5qDJPzq7A7IpCTmYrOrm4ZxOVensOKz4ygexnpGZlo7+xGVkoCFj1GJMY4MD4yhqyiQpiDQfT09iJotCAvJwsBzzr6hydQUJiP6aFeLHqCSE5NB9zLWFzzyzm6unuQm5EMr8mKyeER+GBCQUkhlFjbb/YrTBC+2dc/vPuHlwAPUiRNkAMv19a1B7SOIBBYhszIghQIjVY89hVfsQhSJPeDvgqf3pwsrPF8XnJFcBDi5EJPXGg8DsBcm6X9if3w2g0ERDQfnS/BSq3MSESCyAUBJC9BTNYMbonhpIVrvgScBNB6EiGvier24Bo6P04zvavXhf8dAlxRuyAUW8HXoPn21XlI9nqwJ7nI72VtC+W1mfw3I1C0V7oWkrjIltxij4pFgaxZZDEgOYt/RVqkvEYyqFGxNnH5hbs5Pvzv/xt1RpggfKMud3izX4EEBEHQAzwNq9cKyZJAQMrNvgS6BDbKMYrVW3mIh3LcNzufwEhqzBLoJPQoS2FNeug4siZw0KHvyCVBa+Egwt0HHNzEeAJM6Vj9+CJYkcdAaKZ9tb4AT9ck+XE/vR4w5T5FOWcV5Ghe7n7RgFcdUMs4UBau9DKgIEhmdeFxA58nAiLFVAFX4bKgmAZOyLiM9O4TkhkFem6UiUICiUjwa6MnERp5k+mlSvEjLiN97INcH90SsreHYkUQTbbovHAdhK/ggfB1HuJxE4TZzgaYMvLgdxuRkPDnpawF/T58+tllVO0+iNTYjcnzft8K/AE7uoZnEec0ICMtWV4+v8+HmdUAUmKsf/JyutfXAYcDSs5B6DU/O424hKQNny0vrSAq+ouDfG5+dgn7jx39k3N+1QdMjo8jJS1NG9a7sgCfNRoOa6hc7186Z/9AD1LiEzC4HgOrbx4FGQl/dMjpyQkkpaRqx7T0z6Ii74+fs3FAD9bWg3A69FfmL93Jw51PdRDoLL3WLT7ncQjib34MvedgEPpMSXfkr800Zr2LgGvHEiik7zukMX4uV58FrIm5COAIzAjEaB0ciDYjOXQet1JwLZvM8hqYs6yHzebk8RGbWQg4GPLzObjztWtrVg7W0hT1ZIPLgtdECF0PJdtkM2sC18759+Jz8Z/P71NiUJi8xXGbZR1sBvz0mbA0ybgW1RXC3UR0X5AVRARoSNeCyBZRMlM3WDG2nIvh4X6K4aMftQQeC0EI+HDzylWsmKKxIzEIc3Y25qaCWJsbkJHwGSU1GOgdwPNHtqN3YAhm7yqa+yZx4sgeXKnvwvrcNBLj7DBHJmJvdSmWZ0bwk7M38R/feA5Xr95ETnEFEq1e3HzQg1PHKhDwxaJ7dB5B1wKSI8242zGEk8f2o3/GgLnuOwg4E3B4VzkCXg8+u3gZ5pgs5EYuoHfaj8i4RER65tC54MGxHYW4drcNtbv2ID0pBoN9XYhPSMHgYB8Gp9dRlRuJT29149SJY2htvIu0vHLM9zVj3RKF8uJ0NHUMwexyobowGfFFVbhy6wHSI4OYW1sFjDbMzM3h+PFjiLSZsDg9gZv3mlG+YxeG2xrhtsbg8N4c3L7agpWgFUf2V+LKxRsYn5rGqT3lsGZuw0h/L0oKMnHj5l0kZBShqixbq8Fw785tpMY60DM8hciMMsz31WHJloUDxfG40zaAA/v3oq3uJoYnZ3Do6LMY7OmAKTIZ27Os6OoZRmHlXkRHuPHZufvwmI2ItfgQiC5AdV4krt66j+zCUtiNa0hNSEL/WixmpwaR6J9F36wbz504oGbwA59+/AlgtSCvdDsCy9NIiovBlfvtOHXyKLqH5lFVkATX8jzOX7mDgso96L93AwanHSlxsZhYcuPEkV14cLcOs14HMkyzuD8WwOvfOf058vaofyd8fHIx6DVmevCTW4CAjcCZiIMCViFtmALllPFC4KNoq2p9BNWUza0N3FrBrRFyHhE0x+ol8GA3IixkwicwpmNoH1xDp/H1hIGDN4EwrYv+5uRDA3PVJSLBzR/QDB/6QD/uZuDAyuciKwYnZZxA0Ho2WBfUgEcC9c9ZP9QaAputXVmTIFWK9k++f35tOGnR3ENqQKS4LrzPBcmZgJ72qd8PjUlZLdJhoZXdDFW35NdRVKqUpEztECr7OKgkRXwedjE8zifHUzjX4yAIfq8LNy5eQtvIJF7ZWw5rTiamx5ewsACUFsSgb8mJ3s5evHaqGl29gzCtL+BiXRte/t4ruNM8hmdTPZhzZGBhcgQV5WXwu9fwfv0gXtiRho8/uQRbYi7S7G7U7N4Lj2ccXl8cekYX4FmZRWqUEc1DS3h2fxV6ZgwYvn8OhVV7UJyTAp97HZ+dO4/m4TW8dCANcQX7MTPcjbjIKFizs3Dpx3+POXsC8kt24NjuEvR1tyMxMRWu2Dh4W27CmV+C4f5lmLxjuNUyBJ/XhoLoIA6/9iqaGpqxu6YSV/7wKYozY5GwrRbnrzQi2+lD7t49aLvyGar37MOY24K8WAuu3mzA4f07ZIyMMT0TSSu9mIMVC3MWGNfnYE9LRGPHDKb7B/HczjQEUksx2NOFKLsH1+71wOcFfvQ/vAmzaiAQBCE52o6sbVX48INr2J5vgjNnN+6c/w0mV4PILavFzPQikoLLKCxMwEfXWhEVFYVXjmxDREKBmuWziHsNM0iIMyI3Nw+//tWHEFmGu1/4FlobmxEba9MIwvhYHxLXR+GJTMXOqhKlFgSAs7/6Lc68+So6Ovph9C7JAlMX7/XipdOH0T4wKwnC2vw0Pjp/Cd6oItinu/DyD99AV18/nG43EB+J989ehdPkx5vHazFrSUNuatwT/aUJC4J4kY+XQIyAlxMFMkNLDdLn04rXUBEkshzQGCK1UfiqeQqgku4XaubE5+OgQvNrZnUBgtSESbVq8HgAAiYOwnpTO4EUP1av0fO10d43c0twqwQ3qUvNeJN0SS4bPq7+c+5i0N8YfB16rZ/IiIhXoBdp+3qLi37/RBA4MePr2sw9QPeCcL1QVgOfV8iaV7/UW2q0ay0zF5RYAnl9WI0KTuSke0sNTpR3UECpPSGIBd0jCclpcGylNMcn+ssOT/45CTwOgjA90ouuaR86G+rw/J5SlSAEMDrUhaQoE3wpNWi/8D4qyrPhi8/GytgwDO4VlBw5groH4zia4t6UIJQaB2CJzkTfbAAZEWtwxmciK8O8gSAkR1oRDHhhz8zH9LwBUb5pdPWN4uSzezA5OoQ5rxXnz1/H6V1JiC/Yj+nhbiTFRmF43YGU5Tasx+XD7nAgIzlBIwjuuDh4HgiCUIX2plbkpCbiwdgy4mwWrAx24tC3X0HrzeuwxyahvmUAL+9Nx7I5EZ/d6kR1ugN5+/ag9fJGgtDdeBsLwUikJsTjelM/Ihd7cPz15zE+6pMEIa4gGz/98S9hiU3Evz+5HR3TAXR29uPE/m243jqD+AgznJ5R5NUeQ2yEFXqCsGdbJGZMaXBP9yE6JQsmeyIuffArrFmd+KvvnMSVay2oLEpFXIwBTkYQ7jfMIJ4Iwjsf4sy+fAysOzA7M4/MtKgNBCEj0oTF8RFklORiHQkoSXPi7Du/w3NvvIJ2lSDEOuywOmzwxKZhemJJEoTG+3WIjonFva5VGGe68fIPXlcIgseNmLxMvPfOeZyoSUdKdiY6BtZQUVmkWSiexE+aCAIBjh5EueWAQFsfZCif18wXzLVGDngSdIIK6+PjcmLAtVg9MAkNUu/u4JkIBDJ0Hpm8ObCGyIvqw1eBjLtKCJi4LLjpm64TzUN71/onMHM5rYnHN3DzPZEL+pdkqQ90pLnEueQu4OeSpi1AlMdT8GqJRCLEeSRnynAIXZNQMSZ+neg9EQO6FyxWixYHQISM7iX+N7fgcEuGcDEI65J2ranypuo60fYlLAdqy22NiAiXhuzjoBSaihcEwRnxSH9GD1UH4ZGuJDz4Q0vgcRCEDSZX5Vej1nIPYmluEgNrMajKtEuCK/OeRbSvDMQJVUpTqqyFSq/K4izqD1th0yLXOKB1jFNqxasV6Og8WY1OCdChh544R4zDtSB6QNEPW5jkxDHiXLUOrni6K2xcDZqSD0bB1lX/r5ibmza179VceFoHn1f7YavM3yT3r+xjZLAfXlsshu6ex+7T34bNrDysxbrEHqir3IYHsJxLrFGRlV+arJXjvS4X2scWYJ5sR1zJXmQkOFWzqVyRlhce2rLwlSo9AeQDUvg2VZOpJmvxEIUBHrcLVodTWhEC4ljhDxcXV34bKqwjC7fIh5roWKeWj5UV4tRStoqaJuUuA8tYx7yNXvqHvu3/ohMoBoGuLwElAeIGE68af8C1V6nZqfcmtwYogKAURiJAovtD/Kv3NX+OSDArA/fh8zHE/UCAyE3btD7970APePpxNeDRRcdzCwiZ4GmvHKT1lgaycNB+iTjJ36QWKBgKVKTv+To4QNL6eTEoTnjEsWLODdq6SSk+RMdxQsVBP3RN1ZLYatAmJy56wiUJgGrV4XLQW0H0hIFnWYj6DSLgULuHzKH5SR60LzqGXAs0D8U9bLleDOIhQ4v+i36l4ZO/tATEQ50/APiJj4Mg/LGFKqVVDRBgGH59sQTEb8brVerNi2v2l77EeD6vT5onpab2lw74DTqfLAhiy5wkkJZLn5NICOw1wqmrm0APdQke4kpI4qk04iEQF8cQoJCWTuMT4eWxDvy7DeRC1CsQpZxZsyc6lkCIiAhps3oSoycT9DfXtvk5HOz1hIO0cq4503tODuQaWWYGt3joLRw0B5eX3mpC53NioSkgVD6J9Wzge9aTGiLUssiVSm5pTQTUdL68BxQWuKFTJN0bm1lruPVEWa9SbVPWyBDPTXWdnBjpn/dEEOjeoXWKGIRwu+dv0MPrYbf6pAnCw643fHxYAk9aAoIgbKbh68GcHtIbTL5qgJjYg76cL1ecJAgFFfcA1245+BGY8O8JTLj7ggBXgAJvrUznqSEOmhJBoE3gppc3BzEO/jQPn4/2RCSGW1IIkDmZ4Z/x/XEAJRloxErt88AJmt66opnj1RRHcilwYiLO14oRyf4TIT+/3l2iH18hI0plHTEXWUL010Oug1kQuDz0pI7vc2NMimIcNaqKgmZJIAvbJt0dhVVO1E3QzyfSHO2OR1u+POxieNJPrL9g/jBB+AuEFz71GykBcjFwjZ1bCbh5mpuKhbA2A0UBVkQEOKkQJZcVkKDKfjzzYWO3PgJAAjmah4D1i1wOkkiYFX+0HqD0xEOvbRNAc22cWx3oeAJjWgsfZ7N1ieMEkaES1BzcuTatfa4o1RtcMHoSoZevXlPn6yZZUHVKbq2Qrg7mpuTX16heL5Ibj3ug9cjzVQsCtyoQyOvvD9ovkU9lnUq5blljWn3R93T9OVmS38nszJArla5FOAbhG/kI+/Kb3soEYaa/HQm5pZhdXsHqshs5GYlffmPqkV6fFxazBetr63A4HZhaWEKs0wGr9fHV0VwcbIMjPQlLizYkJv55tR8eeuNf4oSg142gyaqYKR/i5Xa5YbN/hbUIfOt40DOL7aWZn1vF+voaHA4nfK41GKwO2ayLl7p9iGV/ZYeSi4GAgoOPqFzHtT1uaiY/+EbwVgzGehO77DOgPv8F8CgxHKFmO+I99zPrTcoEAHoQ2uzzzwlGBRQ9iJIWTdYAiqXgIKY33dP85OfnbZnJJUHgyS0o+iZYtEa9bPWkRtQG4GArexeotQb0oKkHek4SuMVCAXQlLmczghfSyhXXH/XXIGJEQY/8cy2mgP30aHySsxiLjtOvVSEalOWoxFTRPbGp1ULEDslOlqGXOC5MEL6yx8LXc6DHQRDEj+rBrcvoXInEizWpePvTu3jrtZcw3NWIO80DeO2159A17kF1rhHDQwu4V3cbWRX7kGWcQXJxFSYXl7A4tw7Dyhjqeqfx/VdOaRfj/oN29Le349Dp5xERXMPbH5zDD954DS0tvZiZm8LyZB98tkQMjQzj9MtvIdExjw/fv4idh44j3j+J+oEVvP7iUfT1dGBq1Yb91fnobLqDOy3DePlIBT66P4O3XjiAS+f+AH90Bg5XF+Cn734Ia0QiKoqzMdbbgsoDJ5FgXsMvP7qM77/5Gpw2Czrae1C6rRCt9+8gLcqKiNw0zM/ZMNL7ACMrRpzYW4aOvnH0z3hgXR5E+a4DyIkz4+e/PYfnX30D/dc/xHx0EU7WpOL6rXb4bVGwmoPoHJzED189gbvXLsHtTEVlThyGpmYQmbodBSp/mhrsxkc3WvG918/gyq1WDA8NojwzFl7RNXVHIT47+wFSth9C+5WzWIrOx49ePYKg343fvXcWu469gBTjDP772Wso2FaF4jjgRsc4vn36EN7+5W9QXHsIbXcuIqu0FsmmebRNePH6C8/gl++8h8rdh7C9IA0jY0Povn8P2bXP4PL5C3jzjVfRcf8WhpaAU/srMOmJQ6qrC+6YbIy03cN80AazNQHJhglcap/GX73+IixqnmRj/S1U79yH6ZbbmHF7ceFeL95483tIjn58BE//yycXA2m6ehAmENEHMdI43OwumwkJAqAG0pKPWCh7gaDSXCfgV4gBATYfR8sC4LX6VbDQWwUI2Lnlg2vHBPgysFUlI9wkzQGM3nPSwseiNZJGS8AujtGb3zn407h8XpKNYsZXQJgAkd5rLhWV7HL3BCdfmtWBpTZy0sH3oLlMFAYj56XPeDpiaP3iOirHkPWDLEu0Hx6TIGXDUlrFsbQPfW0Fvm5tvdKypMT08R4Tm7k3hDtCuDb0bq0wQfh64vpXtqvHQRBmRnoxa8pAYaIRv7veilefqcSDjgF41+ZRU16MT1om4OltQ2F2DDKr96PxxhVMrQXxTGmKRhAmJhbhmemHNSkf1SVZ2v4/+ewOTh7dhXt1dXAvLuLA8WP4zfkmSRZOnjyAnrYWlFSU4d13LuD1N06hf2oac+OzqMiOw70xD3bkxGDOEIHx4UnsLE2XD+SGuuso316Nq52LqLJPIphWhtG2erSPL+DEznw4k/PRNrCE+eEeHDu2F43197BtWwHOfnoVhTXHUZsXiYb7D7CjZjvqr11AfmqCRhCWpgZwrbEPL71wCH2zViQt3EP8toPo7RuG2b+KisrtWFtZxbrFjqi5Xkz6TJhcMKEyJxrX+1dwpCIZC/Nj+OAP9fB4Ajjz3D6sIhVl6Q56hmFpagR/uHQb2RW16OoYxw9eKsDYlBkTo6OIjzDgUlM3/GvLOFGVg/ht+xETYUXzvVto6B6Ha82Dohg/KndVY8GQgrpLv4fLYEbN/lNoqLuGN155HrduNeDZI7vQ396MGy29+O5rZwsjp8IAACAASURBVPDrDy/jW8+dgNNmRmdXGwoKi/DO2+fw1vdOY3p6HkvTo7ja0IuXXjyMGU8SstaasR5fiLHhYWwvTMGFu2OwLfYgs+YZ5KWKTq/KJeYEwV5QitnJVeTkZGjff2U/hIcY6Ff/+J8/V2qZHvz6QEHuHxbv6QG9waeskgPlXFE4KJTRQaAuiQJLiyStmIO+eM8b9hCgEkgR0OrBd1MiIYFY6UQpz2NFl7hVgMbmPnoO3gq2hkzbHOi4Rs5dDQJceaMoOodbADgB4SRBuBrMZouScUQkhyxkqhWAgJ4DOa2FW4NIfvI7yoDSERROlEJAHQou5d9vRqCE6Z+sFWLfnCTo752Qe0UWTZZuA048SO78XqH4Em45ouPE+OFSyw/xw/8mHvo4CIJrcRKX7o+gLC8VzU0N2FNThim3Fd7lGewoK8DHzRN4JtuHCy3rqEr2wuVIQ393N2rzEzYQhNQoMyYmxlBcug1eewRiTMDZD36Pqqpy9I7NIdW8ioySMjQMrmJ9YhSnT+5Fa1MD8opKcO79j3Hm1VcxtjiLsb5h7NxehKt3mlCcHo2Ewgr0DS+gKl8p+9tYfxPlFdW40b2MSvsE1gx2jK4AqzMjqK2twmc372NbRTVGewdw/NndaLh7F97VGeTnF2LYn4YdeZFob6iHPTEdTfX3cLgiUyUIZgwPj8K1OI/SmjKMLkUifrYOsaUH0NcnKkguIDIxE9ExUajrGEL8yhAKKsswNBXEtgwnfn3pAfbnWZCYX46GB30oyU2HJbiOBVse8uL8WPD4kOCw4fqNOmQl2DHqj8JA3yy++2IOxifMGBsdQV5qNB5MriM/0gabdxLexBJkpMRhuLcDsx47Im1mOJb7cGvIJast9rQ0oqy0DKbYSBhcPlxp6kOUZx67dm3D9foBxFpWsHtXNZZdBrQNzmJfdSG6ujtQXFSEX/7iU7z13TOYmpzAwNAEPMsLqNhVhRsPppC43IGCfScwMzGO0txEnL89hOy0OEx33UJ+xU5YY5ORGBOBjuZ62OMyUX/7Ll565SQ6OgewraQIZqoI9QR+tO/8099os/IARAJDAk2u6WraqJpPTwNw8BPuCaWLYygNVxxHGiEHcnrg8+2Tds6JBF+THqi5RkzHbabpyjm0FsmhSo/cDM+JAF8bafL6Doh0vB70uQWBZKOXFScWm62BSBNfk0jAVZpjhmz6ZJXRj09y4YCrWXjUg/UmfU4mRBoit3pwQCbw1iwcZiXFklsa9OdyOUgLU1BtV61mp/HxOTmTZEMlIJzIEfEQW0lMTZeNEx/l66GDFG9/+j6cZcdQnmzC//3Pf8DuHCNqDh1H/Y2b2Lk9BxfbF7HUcw8vHt2OSWsRZvqbERkdh6rt2/DR+dtICIyg7PBLaG5pQ3qECQ8Wgihea0PByR/ixpXLiLZYsP3QEUQ9OSvko5T3Vzr24yAIYsEiN94XNMpeAGsuDxwOh+yPYDGb4PYFYLOY4PUFZCVA8b3VYpZ59KL3u/ABClNswOdFQDBn3wockQkyNe/8lfs4sKsUNrtD5uWvrbsQ4XTA4/HCZrPKOTw+PyxGIGC0yLiegOhwZjRBtDLx+AJw2O3w+QOwqKDj9XqkFiLXYxCVykxwu1wwWSxoq7uE4sr9+PhiHV48cwh2q0V2TBNKisvjh9Vmk+Zx4SvfuA8RkW6AGFtURbdazfCLSOSADwazBX6fH2aTAWvrbhkr4XO7EDCYYbca4fUD/tUF3B5Yxq6iVDgddng9bvgCgN1qRkDkRfsW4EMEbGI9Hg98ak62zx+EwyZMi0ID9cNiMcO9LsY2wm6zYN3lVXobBINYFz0oDAb88v0r+PapnegYmUdtWS5cbh8cDpuUrd1uhyHol2uCWLvJDKvFhLU15TuRUquUkTXB5fLAbrfJUroedd82mwWi14WoJmcyW+SazCYj3F4/gj4vgkazrPEQNChtd4UmKOa12e3yOLFGq83+RNNiiSCEHrShuhH0GT2Q6eGvaXWUnkZAJWrjywp3SiGeEFiE6iEQiPIIezqWHgb8XA72ZGnghZr490RcCDgJcCk+QNOo1Zocwv1AMROy3r+o6UDdJ3WBjnwsLgciPeIzshRwCwInMnytBOjkCuFWGJ5iSQSCuyOomZUEW1ZqmJM4ukYkKwJbTniEXYIICL8GypxEQJRYBTE/N/dzQqbFFqi1Hfh33MrCYzHo3qJujtSLgRMITo6IINA15rIkS9fWS3P0r+OnP/0VAiYH/t33XsHfvteCvz4RgZ75OCxPDqC0IAXn2xbhmhrGG0fz0ONKh2+6A70TLuzeVQ5vTDIy1fio+sZ7iDNHwuv0wDPYhsIDpzE1toxoawDWxGxE/um+PF8p2D6Ngz0ugvCoZLPucsPxVQbM/YmF+n1erKyuwxkZCYvpq2t89KfkE/T74fYHJSF41C+vax1rHh8iIyO0wlOPes6naXwiCKSpK22ZRbEqxTVAQWkEfvQAV1r1KhojDzCUIGWCBpYENqJiHh3LtT560GuAwfoKEOCRK4PAgQCavt/MfM2PJcCiuehfDtIybTLg36CZE5nRgxaNTcCot2ZwEzidS0F++gwEDup8PB7cx/dJ48k51WZFRAL0BIHuQ07KuCWBwvzoey5HQfy5hUJ8t1k7Zk5gqPiT/lrSOEQ0OOEUFgrZhoG5GPh1oj4Pch51v2K9RAr4GrdcDMLog5vwZ+xEcLIFWUXl+OnZRkQt9+G5t15HZ2MjinJT0LEai525kfBNtWPIm4b5kU44HQ7klRbhX352AadKAkioPoOh/k7EWR2Iys/BB3/7f+HN/+X/xIXLd1AS40VU2TNI++Ime0/T8+iRrvVpJwiPVDjhwcMS2EQCWpCicAdIP32IGNADXQKsqA6pVrKUD2vpF99YNllzBwhLFatgqVTQVDTRDWOyYEbxOQEdgSgHCq7hUvDj5ywDLMKfHy/BX0015FYG/l6SDmVCrZSx6CPBAZm0favVqpUzFqcQieIaMgdtru0SoHLNnT7jbgI9CRJjEMmg42U2glEJlKSMCr3FQu+24NYPUYVS/i0tJxtrHsgKhzoXBtfeiYxwsBamR/E3Zb8QyaF/N5AJNQZFFkkSzb5Yu2f9Hui2pV4MG4lMKO5hyxGE8BNna0kgTBC21vUIr2brS4DqIPi8SvdFyjaglWtgJAFeARHKiad/BXCRy0BLeVOJBo1D5IFM5dzqsBkh0GcnkBWAg4wGHCrR4ODLrQR6jV+/NwJrDtRca5eARJ0EjUapSfMUR9LAxT44iPM96rMLSCPnLgZusaH5iaBwgqO5C8SaWIqoOFYfYMoJAp1HZIwsM1q5+A3ZHmpsgEoiuFWEWyrousixVYJA8qZCVgT4RBRoz1JuEBktJsU6oLtnxNj8fjKaRW8ar1ItlWViKPePCXFJKXCGmzVt/YfOk1rh00QQetqa0DayhMNHDiGWuY+GhofhWV9DYXHJQ4mxrakVZVXlyjmeBUwsGpCaFPOlxxifmkFa8udrMzS19KKqokAbZ32yD+aEHBlv8bhesxPjsCWlIfJRTBlcw9DQMrLVjpj3Bxexuzj1C7fW3tiCouoKPIxzpLmlC5UVxY9LXA81j8hikFq90QK/34egTApUXhtN02YZW0IPZr2ZV3wuNEfxL/mqCRS5S4GDOAHaBq1W9XdLn7MavU8AzjfG5yEQJXAk0NIDGc3DXR3CGiBe/FwO1LTeoJo9QHPxsQl4OSnRz83lqQ8G5f598Z7Go/2TZYHkpY0lYinYteLuC1o3JzN6AkR7oSJK/DqISooE5NySwDM8uNVH7l3tbULXiaw4dB/RdeEWApEWK9Ibxbn8OnKyoM0vSIgal8llqOxLCVIMN2t6qJ//N+vgx0EQPCuLaB+cwPyyF0b3DEoqdyLauI7Ld1px4PAhuMa7cbdnHNU1u+Ca6MXwMnBkz3Y0193GgjUFh3cUwLM8i198+Blqa3YipyADo6PTGOgfxPFnDmB8bATTIz2YXTXi2WOH0dbUhsrqMgyNTMKGdTT2jOPUkX3ywg4NDqKjbwLHjuxBZ0sbslKicaWhG8cPbMfCuhWpSdEY6etAW+84njl2BDbfCs5dbcChwwfhnp9AXfsATh3ZL8fqGxpBcG0Ro4teHN5Tjb7mOoz44hFjNyI+0ob56WHYkouQYVmGLTEL9XduIzo1F+UFGdpN9v47v0bloePAbCecuXsx212HOX8UDu7MQNu9dhjiMzA33IfSmr1IjLIi6JpGU2M3nOl5GOvtxo69BxBcGsf1pm6cenYP5pe8WF+Yh81hhy02ErPjcxidd8HmnkFmwTZYDB6kJKeg7V4DtlXk4w9X6rF3737ERzuwsjCN6w2dOHnkAEZHJ7Cw5oPVM4eZdRO2Z0fivasdeP3FZxFh82FweAWRNi/utfTCH5uNM7W5wnCMa1euobhqN3wLY0jPzkNz/ySsK/PILUjH5ZsNqKmpxcTsDMYnZmXr6MjUXBRlxOHalZvIKq9BbnIULl66jCWXGS+fObglf4y//HuR5kipbErsgXypXRdp0aGcc9FITGn1TEBKwEPR/dyaICwTemAia4KmCas+ZU4oCCBk8KCId1AL+xBZ0Kdgcg2XBwmSS4PcABwEaf280yKBFIEb/cuJgQQptVeBFrshtHeZlqjUgdhIWoQZXQnaJN++SQT/SpeLhFaI1tihcxTNmQgHyZW7f4hUaG4d9UIJoCUCwdfB90XjasAr4xlCwYjKujZWo+Tn0zUgmZPVhFo183gL7urhxIAImdLUTsmUEC/aN10vOkeSJdbum19jZeuim2NqmCBsyafMFlnU4yAI67MTuDW4hhLLFOKKanDrQTcObsvAvaZmLCEOyyPD2JlnQ1z5QfT39SPJGUAwYRu8ow9Q33gfL37nh7BbDGhoakF6fAxMSQm4eKsXr+6Jx+RSBObmxuFankdNzQ785lwrIoLzePFbJ9HwoAsm9xxsibkoyVU03Mv1HdibbUfnqgNzPe2ItfkQkbMdRYk+9M5YUZiThLu3rqB6xy6cvTeE4HALYtOSYRGpQGt+7D9YoxUlEQTBHvSgvqUP+/fXYNprRWG8AxevNyHZ5kFOVS36G28gLykGEbnb0dPRhtahebz+/DPa1f/dex8jLTkadiuQWnYIrrFWtHb04syLezA2ZUFH8wMcOLIHd++04vChWgSW+jDjTUR9XSOOH6tG/f0RVJYk4l5LN7ZVV2OwtRnWmBTEmQIwpcShe8iD9LVWxJXsw9DgCKIijCguLMKnv/4ttpWlYzKYhB1leTIY8ffvvQtrXDKSinZjemwQR3aWYHywF43dgzhxcDeaJgzYnR8Jg2EJTc1zWFsYQXV1BS53L0qCcP/Kp5jwR8Dv8SAv0YzyHftw9k4nopcmkJGbinm3GdWFaXjvVg9eLjJj1pGN4cEh2ao6o6AIA/XXEOk0IqZoL+ruNODUMYXUbbXXu//0XzRNnYITpXXAFyrkQ4CvMgdpZSCtlmv5BDwhS4JZxh4QwHPNWK91c6AjUOC+Zg7U3CXB5clBg2u9nFwQ0PHvCVA5sNL6CAxpLRzkOGmQczArA8lCISSCJFFWAGnKRAhEu2MhTzKxG2EyhexTfO36uAZa74Y9qU2guKzpe31FRyJLwoLACYkSR6B0gCQiKMYglwHJXE+m9BYEshzwPYhzuWVBtvQyfL6NtziHrjPdG9SkicYg8kcEISE5Ndysaas9YLbSeh4XQWiaCaLIOIGovEpcb+yEaW0R5cWZaOhZhWOpA8akXOys3o6BoWHEWj2YckdhYT0A38B17Dn1HZkeeb+pBRlx0TAmJaC+bQpnaqMwNm7CzNw4lmcnsL2qGhfrxxGx0ovdhw+gpXcSFfmpGB8bQklFtVRi6ttHsTPdgMZZI+Z7O1CxvQQrY12IycjAnCtGEgRRB6G6uha/vt2LmOVx7Nq3CxYzUF/XjF27KxERqZRL7hsaxMz4HGzGADKL89E+soyytFjcbe5BsiOIsj216K6/jvSYCEQkxGJk2S7rHezdUQSjMx4RVkAQhJdfPoEPP3gflTsOYHBuDTGrQ6g6WIGFRSceNLfhmWf24NbNeuzbvxOB5T4sIw319S04drQKdXc6MTs+iNraCiA2CZ3N7XBEOJDstEmCMDlvR9LCfUQV7cFg/xAcZi+S0jJw/sNPcezUQQRd85j1x6MkLwW3Ll1E1e59MDrteNA1iV0FDtyoH4TD4kH5thJc717Bs5WpGkFYXRhG+bYi3BxyS4LQUXcTjtxSxFrNGOluRv627fikYQhxq1PYvrcWvoVpdM8HMO8x4MXcAKasmRgcGERChAn2uBT0N9UjPzMKhsRtqK9vxgunD22ln4q2lnf+8e9keqbmWgiGTL28D4OwLMj22n6RE6oGhqlVEQkM5XciV12tqyyz9antOdQeDSJqXbUTE9hSkB0Har0WzkFQb37mMQYEHhzsvwjUOYjz84gUcDDTxoOyfwmcUAswiYRlqYGLTq4mKUvpIpeBn4q5gUqA62MRaNyNsQLmDaRBFpyS7c0V64B+DE62SP5UpplIAO2VW0Y2kBjljw0VLhWAVywZerJG14PPLZNE1XgQusH0FhiNaEFYoAR/VOYki4H+RyKPNykEgt8D5MYKkRUjEpLTYHeGmzVtyQfNVljU4yAIAb8PHj9ggQ9Giw3rbi8shoBMpTO4V3GrewH7iuMw4zEjMzEKMjbcYMbqypJMYbTY7DAaDHC53DIX3mAyweXxIcIu8qjVB3DAhzW3F7GxMQj6PFhcEfUE7Ah43TJnPyZaSWlxub2wmw1wBwC/yM0P+OHyA3GRdngDBll/weVah91mx4rLi0ibCfOLyzKQxxj0YWXdg7hYhSCI9stu9zqCMCEi0gH3ygq8Bous3yBKKljtdnhc6zCL3HGLDUuLS7BYbbCaDTCYbBAhCSsrqzKd0LW2CrPNibWVJdnnQNRJCASM8HjcsmaES9QgcNgR9HtkfQS3ywOn0wrXuhcGiBRIAyIc4hxRmtcnnJswmY2yVoIp4IHRYofPK/pSGLG4vCbTJYVldWXdi9iYaAXIfF75XUxstNSGxDH/f3tfGmVXdV6531jjq3nWWJrnAZAEBoFAjMLgxnbiKY7dbnvZnfzopFcnWav7R/daSbp/ZcB23E6IE8s2NsYjNFYYhJEAMQgJzWhClKSqUk0q1aCa3tzrnHP3vd+7KmEUqOK94jwtrap6795zz9nnvrv3N5zvjFweBkJRlJcUYWhoCOUVFQgFs4jHMwgGMhgdTyBSVIQy5QJBVo8xFC1GcSSIoZExU7MgqyyrAEYnkqiKlWE8kUZZBEgFwrpPqh7D8PBlREvK9DUHB4cQjkRRXlaSD1+RK/rw2He+aQiMLm+nXB0fyG7SW8bkF9Cy0yQaMERGEpjMste5BNqCNlaqKrVMYvIe7rleBl6DHgG/tS8J/2qgkhgZJycRk+woAjg+v8dBegc4Lt0mRB5GIOxsUWzc41kHu3DECAdT4lkl1KkcB2ORTyZ0ZNjD9DfqYGpGZ7ZeNol5fgK+KlaON0OGaKSwkFa8Gz4SYQ1vbkwoifeDDCP5+60qVFIA8HxZDZP9131KORU2neREKTT83iK1AZf0MElBSBHLJMW82s3x8ugo4nFVLMa+pguByooYIuHJU8SmQyC86zizilQGEU8BtbVVWgjYl0UgnxH4yT887Fi3hgT48DVx5JDON9DWrS6ZzM2DDCEyd0G5nknAksRIFp71qZLqzDWUta3+USzQipR1+2WbPI5uZdft7MSuSfAUBH63thQlkoA4NyQ7utXd8sgBb4tqKUxIaMSL/WY7rsuee0mICoMyfCEFihQprDkgvRm63FRQETZTE9UcGFJm8qA7NifpT4ZGKE4mE17qMxVqkH0zx5v2iaf07NDr4YopsVEa+6PwlXPqhjmcHBcub+R12aZ7HVWAytnUjFhp0ZnJuKKJOQ9VdQ35td2zXy3l84NgJvXNb1F4ajWEaMSWnJxJc23HMrUIKA+CTBqkReZ6AwIOoevFDcaCJdnyge3voTpGLoGkBao3BcqmcjZt0sTkhC38IkP9La13eT2/y5t9khb1ZHkOfgJnDoW/fLL7jNE1HTySyw0FmE2nJmsjpz/ODoqSfHmezJtQ78n+XZmXoVaIKOPI21JbJT1y5YOcR5IqiVb2x7O6c4ujqYqgXDbp9dV4EKTg8rfpiiXHHpIignNKUlc461wGXQnWbPAkxZbfy6HnOWTGKJeW8r4w3hWz8iPvBMLUfnVt69eKwIfuQbjWDtvjLQIfMgImB8FbaaC6I0WAIRbj5pYGkbH4TdghqGsEqM9NgSQ3V0HVTVBWpfIWOIloJlvfFMeRXgFel5andMWrz6RwUZ9JImE76ieT6iS5sm1p5VNISLe/TiYMKj5yXOXaA+itLuCxMpQijRVpBXNaXSGgvJ7Kc8JtrifZYZL99IchvHLJJnQhCVsJBCksJFlTbBAf6aWR1j/PT6SMeOOYzPsmjOTHVrr5eV+wkiLPlxY/++IJI7OMUpWN5pzLVSwUErqUtEj+pLfEq+zpFetSqxjyKsTwIX+37eV9CMwkgZCYGMNwqhgDQ/1YPKv+Q5vrgZ5OFNe0oCRSeOESlRMwFA+i9n0WUOhqb0PznFZ3DvoudKGypRm/q/r5xKUeBGJ1em+OfH0pD4IMK9ClrR/eOrveszJJuiRXONa1n+jVObKynyYMupSFGCEZScvXL04kbn5LVgoDKTBkf6SLniQlvQ9s3xynKhN6V5RYqHf9Fn4uUZvPJ7OuJeE6qkgTo3pNtvETr8V+MiHPv68CcxM43pz+6KqXyg3v3Xt+S12GWrQIcJY7yjmnAKEHQeLFfrp4O/kEsv8UVfI8jZFIvGQ/pFCVqyq4i6Ocb4YVVPIm8bUCIV+fMnnSr+kSCL2d5zERrsDchhiOnzyDcHE55jdV4vT5HqxY0oqe820YTBcj0X8emarZWFhfivM9A1i+eAHaz55FOlKG1tkNBrV0HN97fA9uXFGNyqa5KAumMDiRRX0sjHPj1TjTdgL3X9+Kk+e6sWTRAvRe6MTA5TEsW7oQO59/GetuWIdQYhQjqRDmNtXixKm30Tx7LiLpUfQMT6CytAKJ+BhaZjVhYCSBUoyjrWcIyxbO1ZdPjFzCqfZ+LF3civNtbSivbUJFOImunotomN2KicFOlNbOw3BfO9KRSjRVBdFzoQ+B8jo015kEx672sxhJF2HRvGacP/sOouU1aK6vQjI+jtNnOxErKUesBLrty0ODKC8twql32rF4yWJc7L2EkcsDqKmuxNB4Egvntrh308l9u1C7fAvqyoDxkUG809mvMRwYGtabHtWWR9HeN4zF82fr9y4Nx1ESjCMaq0FDdQypZAL9EyGEEsO42D+ARYsW4FJ3BwbjWcytLkE4VoOL/YMojYZweWQI4ZJK9PV0Y5naYVFZxak4Tp5px2B3GzZt3qqxnT13Hs4dOYx5mzZgvPM8RrIlaJ1dj6HeLqSi5airiuFiVwf6xzKYXRHCSDKFt8/14bobbkBJHka/VA4CH+i0FEm2/gcyH8SuJ0HFwh2i89bRq9K9uuSiR5bOYdLali7rqz0+pDV7BZn5djP0exxUmyRW2Y753VxR94c7BDqlpHU1SUGs7LMkeUmW8rp8n16MyciU49Blg32ue0m48nfpmfBn+ysLn1a59HCocIEamxRffkEjhYXGSlj0bJO7cUocpAgixvp4p9aDnNsc/LRHydnt0QlXUQjQu+EKuoCqt2EEqjpHvS/rYRhMvHtM/a0qKVoPQp6QcT52YzoEwkhfJ3Yd7UJs4gLmNFSgYsF16OzqQXyoF+WxCpwfK0Li8hBuuW4Zuk4dQvOam1AUH8a5jgtoWrkCxw8cx8pF81BV4WxLmo7jkcdexJ0fm4fisiocP3YC0XAYrSuWYDBhBEJ4sAsL5tWjd6wEI+3HcNvdW3F+pAhtJ4/hno3z8MxLb6GqLIB165egvWsC8+a0YP/BY1g9vwavvD2G7EAH7rt/Kw63DaK77QiaKooQr5iDDUuasfOJJ7HqpptRX1eJrvZOnDnbjnnVRahfvAY7frMLq+ZFUVq/AMfP96EsNYTr18zBIBpx7I39uP2+O3RFwZ7Odrxz4i1cd8MKdI8Uo7m+Wq9cOH7oDbQuWYFHfv4atrRmsWDTnTh97AhWLFuEjvYOqOWiE2+fwAOfvBH7D11AY3Uxli1fdqVAKEni2Wf24Jab1+Hs5SBOHD6E+27fhNdffhFVNdUoaV6KU20dWBLtQbh5JYa6O3Dd9eswMTaC04MlOHl4L7bd2Irj7Zcw3DOE9RtWIdF+DOWLb8Bre49gVnkK0VnLcPzlp3HHfdtwYTSLBXXlOLB3H1pXrsSrO5/B+qUtKJ2zGntePYjZsTDqF7SgrTeLBUUDqJq7HAeOnsYNa5YgHE7h+Wf34fqNq5HsPI7IvDno685i0cJZLjHl03dHehAoDBQB+C1higc+8CfzLkhSk+eT1GRsWnojpCAhNjLJzS9M1N8yFEHSzbV8TUskzZy4uJN4yHH6rWy/R4Mxbul5kCQoCZy4TEao0prmTop+8SJd8VKgSTIniZo+eEsTpYeE3g6zy4J5yeREKXJcjMRqBb4nkxTVORIbf/9UKMAvnqTXQh+vl4aazZnkfPnFkk6YDJnwiVekyxMEzD2Q36Xquka7zDGfHi7T0ZdTh/Zh7rK1CGUTOPp2N9aLsr/+60+HQBjoOouz4xVYPbsMoeQl7DvZj6VLF+HMiWNYuWatia1mU/i3J59D67xqtKy8Ecde2YXVa1YhVd+AqvgEnnvpIO7cfB2ixUUIpOPY/uRBfOmhTQDG8OaBc1i9ahHio0OuB6E4NYYtN67TX5bdO3fhtjtuxom+IM6fPoK717XgjfNj2LB8rnaRToxcxsHzw4hkxrF2fjVeODaIbH8bSQ3OSAAAIABJREFU7rzndhztGMf4pQ7csHapdvGpLZknxuNoO/QqRtTyyPnrMHzhNOpKQ2hcshbP/WoH5rfGUFQxG/FIFZbNqUTqcjtQNhcH1Hbmd9yGZP8F7D03hvmBXjQ31aI/3KitdzUXR/a/huVr1uN7j72MWxZmMGvdFpw6dgQV0SzmtC7EjsMXEOzrx6ce2oAjh9sRqyjG3LktSKTMTo/Kg1C56GOoK03g2V3HsHXzShzpjGNs+CJuvW4pXn/lNVy/4QakM0kcak9gTvIU0LQKg51nsXzVclcgtJ85gq0bFuDY8Q4sXzIfe/fswqrZtYjMW4tX9h5Fa1UYzevX4eizO3Dj1ntwdmACC+rKsG/fAaxesxJvvPhbtNSVomnZTXhp96toqSpB5bx6DE5UYU75JZTG5qBvaBCzG+rVWjeMj01g78u/xbJZ9ShunY+eCyksXpTfAoEPYplnwIc2SU/9dC1gJ5OcZCUFg/ydyWmS+GQYge+TbORnJCRJRIxBS8In0UsCnsyyd0lILFVU56rkSfkiucvrSlKWn/tFkUesudYtj6PQUvsKuKSvSyZ4uye6VvQkSZokVUP2xoGjHCFqS3c5dxRQaukhX1JoTbYzY65XgxEHkwB4NWEoBQCrOF49/yMLtaunUW65S2blSgd6I7iVNXHi/Wfm0asYyfukrrEZRSV5Vgehv7cXVQ0NyMTHcfhUF+bHEjg7GMT1q+fjped3Y/Pdd2L/zh3oG8+ipmUhqqPjyJbXo+etY9h43x14ccez2nV70/oFePX1A1i8dhMWzjUx55HeszjeMYqVCxqw98AJrJhbha54Dcb7TiERjOGWm6/D/hd3Y8OW24HUEN441IWq4AjOdHSjccEKlMS7sXT9TXhp53PabXry/EW01hfhYqYS65bPmw5+f9/XSCfG8cRTzyAdjOLB++9513judAgE9SUcvnQRwxMZnHrjVazfcgcOHjmNWzetRGf3RdQ1NOJSXw9KyqtQXR5GT/8oyouAy4kA6hqq0dd5AWUVVXo9fblas5/N4ELfZbQ0mH0TRoYGcGkkgZaGakxkwhgfH0NNWQQdXb2oa2hCfPQyqqorMZYMIDN2CZlIKYKpCQyPJbVbv72rD83NTchMjGJwqB9vnU/i5jXN6BuaQFVNDYoRx4W+ATQ2N+v1/Zd6unV4YnZjNTq7elFZVYXLHacQiDWgqr4R2fgwImXVGB24iLEU0FRbBoSKMTI4hFhNNQLZDLoudCEWi6EsFkNPdzeKyipRU1GKVCKOzt5evPDCKXzp87ei/UIvKioqdKGo3v5hlJbHkEok0dhQgZGROEKhIKKRkMa2urwIo8OX0DswirLyGCpLI+juH8acWU26JkF1TNVbGEFP/zBaZjVibCKD4uw4EC1DMj6h6zGovQXGUyHsPXgMi2bVYlZzA3q6uhEqiaGhJob2jk6UlMZQGg0iGothtP8iKmtqMZ7M6LBDJpVAR9dFVFaUoiJWgY7OLtTU1yMbn0BxRQwjl/ownomiqa4ScVUDQdX1z6ZxobMbweIYqouzCJWUo6+nB7UNLZiG3a2v+ftGD4I/9k8C9ltvdD2T8OTnkuRJ2pIYKS7Ue3Tj0+KUIQRtYTpL66QF6e8jSSvHte7E3OX57LN7vMNRUuz4vRLSQyFBZfggx3XOwlF0ifvCB37hIttzEydVjQgnYU+1LTdnkiKEv0vPg3pP7Z1A3Dhe7f53VglQiElBl+uJMAmUqg8m18HzBkhxx7YpDNKZNFQ4g3hw9QrHIAWTnuuMsxLG2dhJnpeTd6CSMUVOB0WA6YuX78H+qD5X1tTnnwfhjZ1P4HLREtx+0wL81Xd+hm987n709ndjsK8PGzZtwi8f/SXuefAe/OJXu/CZz9yLnhNHULZqA7pf/hnWbf00fr63DfesaER5LIJdzyrrJI1lm+7Uk/3I93+B37t/C0pqYnj0x0/is5+8FxOBEPY+8Qw23LkKR0+nEBvdhwsVt2L8+A6svOshVPcfx3D9BjTHskgOvI3H/+0EakuBT37+97Fn9x4sndOIieZFmF+Wu8Tlmp8s03hCOhlHOhBG9HdsEDQdAkEOe6ivG8PxNErKYqirNvH4vHql47jQP+GKj/fat9HBfpRV1b7Xw3/HcRmcfrsbixd5uQUfUMPvuZkLF4fQUvfeN656zw3PgAN//O2/z4lh08KVZCw9CNLi5/D91iXP9RM6H+Yyxi+FgUxSM6QXynEvSwLktV1L2VluyHMmywNwrxX01vVL17brahf1ACQhklClsGA/2Z/JxADJlDjJPrrjFFsuS++HFAd+z4UkVIYC5PH6us4KgJwQC1dSiN0T1bEpJ4HUjMW499VLCjG273oJVBqHSGT191GGf3RuirNFuAxHSIHH+8vZIdzN03Df1yLK2+9CrpSoqW/MLw9CYuAsnt7biWi8F/du24Zv/uIoFkUvoHnZYoz19eLmW2/Gjx55FF/46h/iX//1CXzlK5/AO/tew2jtPFw69BxuffAL+PHuY7hzcR2qW2rxwm92YmRoGJ/6g8/piXnnfBcGTx9E9fotePnpp/DJT9yLZDCM1594Bmvv2YxTR0+jvngYvW3nEV77IBorA4j1vYXO4mWYEwshmu1FUXEF/uaRJ/EXf/5HeHX3K5jfVIvgvKWYVTwDnm6+IUy3QJh5CNoRfdQQUAJBkoD63XWDOxYc35ssvs7P6AkgiZNMuTxRWoCTXYPxcWn5sy3OCQWHXA4nLWNJ3NL1zd/Vqgs/2ZHw5HWlp4MEPllYQR0nVxbQm5JL3Ca5Tnoe/Na/7JN080uyZ/9kHgHnzYRdTIhBWuwaZycHQYoOvxfAnStnJYPByzMgXfyEZ8cVRiqiKu4Z/9zwvtDzL/op7xO/J0iNQ6/ycMIQ0lvj3YOmf9pT5fxUIYa8SlI8fXAfSmctx1jncdQtXoVdL7yG++9ci96BNGpKs3jljSNYveFmNFYW4Tc7nsYdd92NcycOIVjVjO6jB3HTPbfj2edeQiAFbNq4Gkff7sCKudWon7VAD/7ogTdwcTSLWz62ET1tb+HEuT5suW0z9ry4GxMZYO2663Hm4OtYc8tNCA734XBXGrXZQZzpu4yKWD2qo8OoX3ITTh3Yhxtv2YCzxw+j/dIEbr15I3fNnFHPQysQZtR02sFMAwJKIJC8eTlp0bkPYYd8/PkI0gKXZCDj4ZLIpCVIgpVCQLYhh8/3pftctitFjl9s8LNA0EvYU+1MJi6kO90Qr1c+2O9N4Nj950hPgxQDbEsSrgy1OErNzUfwiyrpnZACyAgJs5pBCjXdXyfZj1hKoSAx1WJCLz9ktczcstCyXUnY6nhTB8MpNy1CQ+y/e4/oTuR6JaTwypl7ZytrYn6l+Muto6GuXluvNmvKsxyEafgO20u8RwSsQHiPQNnDLAIOAhQI8uFMq19uzCSr2PHBL3cHlCQvyYi/S+tarojwW+aStGg1sw35tyR3KQ781r/ZNMkrIcxjpdCQ7nf2h8T9bpn/vNbVrGZJ4qpduVrC366Lg1OLgHhSyKi/eY5/GaaJyZuKh0YsePUYuGmT/MyPgStiVI6Az0tA4aEtdS5pdcIOejyOB8EvIHKJ3yxJVKXnTckl8+J1c1a0ONtVy/Hzd65ckKErV5gAyDsPgn3K5BcCH6pASAzhub1diHefwv2ffnBGemjya7Ztbz4IBCgQZFt86MpsdLkGnUTHrHK/UPB7EkgEcttn9Tu9EX4XtswrINmRJPzXIiGScCTZmHGYjaj8BCmFhMro9yrzefUJpMeABEnCppdAih0SODdIkoKAY5TeBfY9x5NhBnLFngj+pE4KBs+aN6sNiJMrFNxtpj1CVp/529N9cK5Nz4kZv0fmktRdseYTCMRMFoDSfVLVjrRY85aocgwypMWiSLyH2Bczr17YQ4oyrh9WOQh5FWL4IL6gto0PDoHpEAjj/d14/Pn9aC5O4PZtD6JvcBDZgXaky2fh5Jl+LRDuu20VDr7Tg1jjPJw9/iaixRUYHB3F5b4+fOaLX9Q7INqXRSAfEJA5CFIE8OGdTCZz3OwkJFnbwJ+bQDL1W4gkAsbt381DQGIgKflDFnSnq2vIPAeJKftq2lKucK8IkuqLv4ohryHDD/ydfSfx+q156f53LXLHSmYoRYoM9lNiQZJ2BZgvxKHOYZ+JnSlJrHaYzA2ZuMLKWS3AvymM/N4N3R/Hg2AEmvJEKLyM52Cy1RsK90g06uzWeWXhJzdEk/FKdYciYTfx1C+Q1N9q43Hixbn1xJjnCaIQcYWE8iA0NOVXkmI+fMFtHzwEpksgHOzLYN08IBhqQP/w0BUCYcXiWsRLmpGNBDExOISl85txtC+I1vhplC3egLLiyXejtHNpEZhuBJRAINmoh6566EuXO3+XP123rm8pIslcWrH8nQTjXzbJ8UrConUrhQeJjeENEp60zEkoJFF5vl454GxZTTKXHgw5Pkn2JHCOjR4KmU9APGRyonpPb04lylVLbwjbU+/JVQ0UEZqkhRteHu/3XpjrmnakR0NfO+yFHqTYikaj2msiPTIqn0AtWTRzZM7jPcFzc0MHnleA88hQCnEyuAYRcvZ0UEmT0vqnmFI/tRdH7UIpVkXw/iF2ZrMqbxMvV7BmMlAehJJSpwDdFH2RxsbGdD/9r8Do2LiX4TJFF7fNvj8EpksgqAqAa+eqG70Bu158CeHUBBatvcH1ILQ2laEzXY4585oxMTiIpfOacLQvhNbEaZS2LkH/UBpzWz68/RXeH8r27JmEwKPf+rsrqt/xAUxyk7v/SSLl51JQUADIB7sUDCRxSRJ+YiPpS5KRhEyykK5pdQ2SWU58X1vQZmNple8uxZAkY2lZy/clgUmRIoUNrVh6GyQG/sREig8piGQogtfT/XQSJP0eCY5VeiYkoVNgcaxMVCSZEm/XwmeCocIwFHIEi7cUlH0mLkpUaEJPpxCO5BZoYpvyO6KWN+r+6bLJxosjBY++3/Q7JklSCgCOQcUnZOiK5yuvB0VjrQoxWIEwkx5PH+xYpkMgfLA9tq1ZBD5cBFgHgSTOxESSCUn6Cpeuk7RGAvQ/1DkqSXh8z3voe3Fx/26NMjzg9xJIcpHnkcBzCdckKbI9tsU2eI5sU5K3JDxa+0zYlAQr2+Xv0hMhcfK3yb9J7G74RhRcUv2TuRlSNBhcvboFPFbirFYacIMo6X2RHhlFtnolg76u8SAQH3kfaKwUkTubM9EDIj0bUlgpD4Le6FOd56x4YB94nAotSNx5rxgMRdKl0yd9vzkraygMa/NtN8dkMgVVScq+pg+BaMTsIz7ZywqE6ZsHe6WZgQBzECgQJImTNOWqBmmdy3NINFIQ0PVO4mDb/toIJL7JCIkua55DK1a663PJyEtIdEUATB0Cihj9u1OjmH3TbWgb1ogWafn7PSV+kSEtbNneZOKDfWCfea4cO8WMXnIobjP2i+OSFjUT+My5Xv8zqpJiIKiJ2f/clN4Uw9666pEjCoxAkHMlPUUsqyyFF+eGGCiIvaRRZyWDEAgy/KKSE2X7WvI4xa84NuIphQ8TFNV7eScQZsYjYuaMwgqEmTOXdiTTg8CPvvm37oNYPqBd97Sz7bMkYfXgZhzWTxB+oeGStJPoRveyvJa/XLO0HiUKPEda43Trq89oecsMfeXSzmZVTD2AbNokJrqEzw2DVN+CZsmeskrpupeESiuf45W5CMSDrne/MPALGIoCjzxzlyf6kzhVqIEC7GohCw93FVIxYkiLKLEp0tXyIVxCV7sjil0WpcCT3gvVttppMRwxWLqCxslZ4Hlq3wUtEnR9BW9lhvS8uOGGsFmFQexkmEYvkfRVdeR9lUqn3WJVVbUNKLF1EKbnwVGIV7ECoRBnzfb5w0RACQRaotJq4wNYPcDlA50Pf1qWUgDIdkiKfgJR55PAOW6SH0lAEifJhwQowwes++8nckkmmUxaGcXGKxAwSZhMHlTkqQlXkZz657jNKTr8sXxpuavPmAzJ6zERU45ZfpZj+TqDlx4X1S+JhYuH71j/fKmPPeFgSFv9rf4n0yk9Xi7jZJt8j3Ou29ShA4/02TctCNJpTdIu/s6SRc7hZOEWhamqo6AEgvK0q8RI3k9SfOjriGRKigb2TQkEWZNDCgnWbVDH2mWOH+aTpACubQVCAUyS7WJeIfDotx42BXkdC5+WmyQERS7+xDIpFEga0sqVD3T5vlo26bmgjQNdEpEkZUk6UihIcpZWsevNcGL3mpBVgqITkXS9FloOmHi4vp4qMqQT9ILaMpYWv0dSxgVO63+ysII8liQmkzE5HhlrzyFdp0gRz+WOi8qDQFzodudN5F1HZfd7xZhckeWEFvzueynSXIGlRYJnxUvM/dejuPKLOek90YmFqj0nQZRzLXGi2MlqT4+5H7yVFbnLwV3PkVhdod5T96cqNV1dV4/ikpIp/X7ZVQxTCu/UNm4FwtTia1ufeQj86JtqmaOyOI11TUtdWrYctXpPuvH9VqA8Vya1kcT97cvwgP9cuVSRhEHCkrFoP3FFnBCC+75OzjMhBu1FUPkHOqteVfUzhK//QyXoZdwsehIXhYAUNWyHokkuhZRjkp4M2R77z+Q+XoMEKj0iut+OQJCiRJ5jCNdsYCSta/V7SnlQROElKchcQeWUaNZJjDos4Ak3/xgo9vTqAYfUOTbpQTFeGhWwYAEmI7AYqpD3lD5fCASOgbkHvH94bdU7Yu55U4KoqW+wAmHmPaI+uBFZgfDBYWlb+mgg8JN/+BaUG16JBGNlsq4+H+YOmTrJ2NK9TatUEpO0+hWC6uHuj31LF7wUBpK8iL6frPziQHofaGHqfokiRUr8KFIJhY3HwKTxmZCCPp/H6mWQyl1vthQ2bTs/fYnRFDDEQ3od+Lvfi8CxUkT4RZg8Xo4r7dtdUl7TEwRebRXpoZAbHnnEa8SS+lt7jJwcBzOfJn9B4kzi1x/4Qgucs9x5D2ivjA5Z6LwG5zzxleL4WGCRyZi5ItDri8RXTYoMcZk+hKwH4aPxyPr3j9IKhH8/dvbMjyYCyoOgKwSobHedJGZcvSqxT1qm6nOSJfMIpFVMMUAS8hO/3zUurU4KjavlNUhrU1qh/hUVOdaxb5tiLTSczZqUt4BEZMZovAiSeNX7UnAolzrPoQeB/ZJeA7+ngePmMeyjtPT9oQvpfdHYhLwEPr8goRigB4HjcUneWd7oT26U44OzWsDUGvA2U/J7KcwN4W2SxLHwWl7yqEbYW7YoVihIQaHbU4WRnKWLfuGjPRDiMzlHekmmKEKlBEJVbV1+eRDa9j2PV3qK8OnNy/A//8/38Nd//ecYbtuP02PV2Lh6IV7a8Sus3PQx7DrWj03lHegrW4m3X34K13/iDxHpO4wXO2NovbQHDbd8Egd278bWOzbg+dffQjpYhs98/Bakxwfx6GNPoLFpFm66fgn+5am9qEYSX/jy5zB49hDevJDF2vkVeOPVlxAJRrHprodQVTED93F+j89uKxDeI1D2MIuAg8APH1aFkmgxOkVsHPe7tq11yV1leaskNWO50ZpLp2UGu2mQIQi6gyUR5mamm+OlFS1FBM+X7nv/8ZLkpMWtSVO42xlC0SEF7RVQBOZZyf6kSZlT4Vq6YttkKSjkuVJAyP5I0SCteLkaQyY8ssIhx8sNjibL9fDEU+5mTa5QcwhdihB/P+UGSiqW79ZhEJ4LenJUZUaZz8B5Mn1zSFt7oUxOhy7f7NRWkEKPokKFFiYTWhQHWiA4B0gc5XjUtdT/vAsxXG7bi58dGMGWlfV486Wj+NRXP4fHfvA4yuoa8cC225CeGMbf/OV38Od/9RcIXHwLp8ZbMNx5CkODl9Df3YH6Wz6H1u4dCK/+BM6eOKJFxT/90w/xH77wHzGrIaZv4m8//LdYtGYL7rh+Nv7Xd3+J4lAJ/sd//RJeeHonoiVhbN6yBZe7j6G4dimikY92CV8rECzvWQSuDYEff/ubjsdAWWvqQatoNIusE4tWRrchB08M8OHMjXw8AnDq4TlLBflAl4ls0vtAApTCgFYiiUcbre4WxLmJgtKCJeHoZMNgUCxndGooigRD1Qf/ngZSqBBBaXXL5YJ0ubuk6XggJqs4KUldWtryepL4ZL8oRFSIQWKlfqf1bOZCeRgMcdOjwPZJ6JKcpfdEt+vUWzDvX7lltCzHrO8NR9jxWt4cmZ2bXBEkdmZk/4mZe5c6dRGIgRKdHDdzPFRuhEz2lJ4E5fFiP/IuSVEJhGOXy/DyKycwPzSBT33tCzhxthMlF48jPe8WjLW9jvlLVuHV9gzubuzGqYlZGO54G5HMZQRmr0B/MoaN0aPozLbi3NvHsXBWIyLNc/DYI4/iv/3Z17VA2PfmEVTHopjTWI0nT6fR/9KT+OqffBUH3zyKhmgKE81r0Jg8ZQWCTlwJQRVSsi+LgEXgvSHww28/DO1UzkKXzuWSwIwTaoBe3maS+0iA3s6HhkzoGVDHSevSH4oggZFApIvYtZadJXqS0PwrG3ie37Wv23AEghQPyqGgl/wlky7Rql9kHgFJkyEM9bkMMSjXOvvNZZJSvDD5Tv3kcdJDoN7jskwZ32dbLqGLUsMMZXBPBjleKQYMVt4SxByXvRYAuTtUkqS5SkKFGLy5MXsxyDHk4O+A7Bdyuv/IzRnwhyN4b0hhwQJJnkj0VmJwTlibQoaUeDwFgmo77zwIyUQcGQQRDgYwEU+gtDiCZDaIYDal308nkyguLsboeNzs4BcMI51KIBItRhAZjCfSKCspwujoKKJFxQiHAhgbHUe0pAQRpawyKX2ucomVFEX08UWqnofOTtXhG6TV3ZNJIRgp0ud8lF/TJRD8LrNCwDyrHo5ODfVC6K/t4/Qg8INv/b0JISRT2iWc4ZJHGItU5SIYcaCSGL2QgLHupHPaEKpc3iiTEUlaJEpJYi4RODFlaeFK7wFJQRIMUVKhA4oC6ULX2scZg3yfhChXSLBPUhz4QwUco3rfFQqTFAGSmfd+61da/yyuJPGR49CeFJ8XhZgYweB5jeX4iJHyIHgCzgg6g4mxyrWIc3IPpCeD/ZEiR2MmNlOSc6iPy+TmBTBvQ16Toop9UCQmBZMZm+ch4fHq/WQq5eaKeF4pT5DlXQ7C9HyF7VXeKwLTIRDSbW1IPvMMQosWvddu5c1xqUOHUPzHf4xA8Uc3TyVvJiNPOrL9m39nMvq1E8EJLygiUAJBLwME1GY7qpY+yd2zrE0+Ah/2kmBJcl44wogJP7nLz9mWFAVsh3BJwqZQ12QnVhnIa5jumWQ3SaxShPhFgDpDEZAq7CPH5rrOnbZ0G/q/EU60zGVYQYYp5PiUF0a2r9qWHgt6C3RfRL6ExMGIG+6d4KzIEJsXaSvfIWB5HjGlFyCjwkhOUqHfcyDx1wJNYCk9OWZ1iONBoAAJm79lG26IQWHoJFD6BZ0C1J1bxytkxIm3BJMeG4ZEVBvVdXUoKrZ1EPLk0ZJ/3ZgOgZDcvRvB1laE5s7NPwB+R48mtm9H9O67EWxuLri+2w5PDQIqxCDjwirnQNUDyDpZ4u7D2yEiLSN0wqIhJFpypg31YJeFj0yJHJmDcLVRkKQl6dNjQDLwexCkkFACQVqiFCMUCCQpv3dCChyOiT/9IodtylUGctMi/3n8WwoDGVaRsX0KAmnZU9SoHATmPTCBUPVFutwVUfIl32cxKNUWvR8Mg7AvitrVvPm3tiaeUvxQcHBMFENGIDgbK/lWfFBkSWEi915wJIQ7HkdRXPWG10mmznJc2UcrEKbmGTFjWp02gbBgAUJz5hQcbvEf/hCRrVsRbGkpuL7bDk8NAtqDIJaM6aREU1tRX5CJYnr5uyZ//bg39fUdS9Fzj5va+4y1BwJGHMi4PgWAP/xAEpGuefUeSdQfvzbhD5Ns6J4jVkVIEmcoxO8p8Fvsk7rondwBEjRFCslbg+TkXsj8A/m5FC6SnEnaUrzwPBd3UShJCiWZ82DaN1sw86XrPjh7MXB+JZbsh5lNb5OmSfvNtpwNrvTEOy/pVaEHgXhQIMmQLL07/s2ZlCeE2Go8HAEqr0NMjCgxgpDYqnuurqERRbaS4tQ8KGZCq1YgvPssWoEwE+7yD3YMSiDwIUtBwAe6JgsnHqziydw5T72vLVnHFcwHtfQCeC5gb1c+Qw6ZnGV0fu8AyUz1hQROy5fk4gkSU/iIyYYumThEaQhKiRzj8eCL/ZTvSW+EdPeTvLUOELUSKBi0OHFc6WzXj4PEV16Tbcr31FiYM+DlCHheGRkmyRUeptQyhZbqkxyTFA+u1e8KKhP3J+YkYhnmUKTPZEVew7QZgNmUyatZIIszcYx+L5La3pnnc17U2E3Z5JAueU3sr5wn/Yk7n2w775IUP9ivqm3t/SJgBYIVCO/3Hvqonf/9h73NmiShuKTvhBZSulBS7q56ARW8dohTPdh5PkMW0rVu2jPFliYLI0hSZZskQEUAFAI8zk84LnE6MXjZF+XJINlIcSDd0xQdkuT9xEQCzan1wP0ehCjhPUQi9osP6amYzGKX4QZ9rFvIyAgFKVS8sIYp9uR6Zpz6AnJnSBkCcSbOqUNhtmKWeKjP3RCEk5zonxd6htIpg6+b0OismqCgkGETLT70mFjJ0WwsJeea+HB5o/9+cso5uh4TjluFGIpLSqf0K3xNezGMjo8j4SydmdJe2cZdBGJlZQg7e7v7YckXgZA68RpShwZQ/Jn7kPjFj5DpH0Pw9ocQXVyPiSd+i6JP3IHk079Gpv0iQrfeh/SRHQjf9lmkd/4KoVvvR7g+ionvP4bw576GQO8BJPe0IbJtIxI/exLhOx8CuvYhfaILwQ23IxDvQPrwaQSaZqPowW3veqdYD4L9IvkRUKsYpDubD2OSmox5a5LnzodOiWLVnrdywaQ6SnLh9bx2TRiCbn/preCxfOAr4qBFSYKXbUvCkxayKwKcxEHWD9vIAAARF0lEQVQSvXIiSDe137KXSXdsQ/ZJjoXhAZfsVZhBhDik0JAhFtnnK7Z1dsSN/5oqHyTHY5GzLFFt5DRJxUFnRZsUJyR4F8ugOdcldl//3XwJZ98Ff1vuuLLOplcO0ftXL+jljs5cqIRXLrv07kWvsqWee6eeg/RkGLFhvCRGaF6ZA1Pb0JBfSYq86e1jZ3oRkA8DeeV8EQiqT4m9JxHduBTJJ3+GdKQC0dtuR3bwBFK7XkX47s8jc3QX0hfTyF5MI7KlBonfHECwpAbRP/qyTjdK/ORbSA00I5C5hNDy65AdbEfkwY8j+bPtiH78dsR3nUa29zKK7lqK+FN7EbrjdkSXL7QCYXpvxYK/GnMQSLy0pKWVL2PImlxEvDjXa+DthDhZ1URDUGZTIblEktckgfmv53+fn0tL2u8NkHsxeGTNjH/PPS3JkRa/vD7FhQx3yM9zkvQEKas+k9SlCJLCwxMuXnljegjkGFWSovSwcNzmp9np0e/tkKsXpECR11dL8fmZFDR+74y+yUUtBSlg9NyphAJR2porHYiBDhf4SjR7x5vQBfuhc1scoSS9PcZDZZZ0Sm+DLCxlkxQL/nE0tQPIF4GQSUwg8ewrCM5tAU4fAhYuRrCiGcmffRehjbcgW1SPwGgbstkaZEMVCNd2AzVLkPjHn6L4r/87gtkM4j/5ZyCUABbeCVzsRyDdh8CCZUi/8Qai965HsiuCbNdFhBcVI7WvA6FFsxC54QYrEKb2FptxrSuBQHHAh68kEfkw5uBlgiHf0w94FT5wxEMuUF4ymbkGP1XkkHJ3WZTEK93w0pKUBEGSYR+lWFF1Efi3JwK8uPZkoQZJcpKkSHTS4yAJW5GxP95P4UDxw7BBznnCY+APK8jxqxCD/FuKIVUoiN4MhmG0p0esJJjMQ6Bx1PsueKEFCjGJgztTzhhJ5tITEgxQ9JkQCBNcXa+HU32R7ZqxeJ4AeT331nBCV+ZeU/kUuStkZNhBr5UJADW19bru0FS+rinEMJUdsW1fOwJ5IxAuX0J2YAQoKUcgNYZsMoNAZQ2yQ5cQbGlAtn8E2UAKgWgJsmNjQCCJQHk9smMjCDbWI5BOId3ZhWBzHZBMInNpDMHmWqQ7OhFsmg2M9CMbKAHiYwgURZAdGQWixQg1NViBcO23zUf6DJWDIC1caT1qonHYXP6klUsvgRs+0BmBXllcL3Sh6cit0GfIlFandw1JphQt6j2ZuCctZSkQ2CcpWFg8Sb2nihqpgkmawJzERr8g8Vv3/v5QKLik6azl16WKRUY9yZykL28wkqYkRZmoyWNJwIZwvSTFXOFiSFO9uELB9Vo4ThI5Bjk+CgRVopkeCL8Icf9WAkVsx8z3XWEWyC3xTw+Cm2SpQgbOHg4eFrl7MHBedH9FISfTN7NCw+8p4Xi01yEURFV1DYptHYSP9PPsXQefLwIhX2fI5iDk68x8eP1SAkESrewJH8qSrCU5KnbS/KQT9VSAP3ebZVc4aPe0OZOiwU/u0sqdLFteihi2Qytdkir7wiWY8hiVrKgIkXkSkhDpAeBPf3KfuoYkfFrtuiyxWjEQULFzbx8Bjk/mU0js5LVlMiMJXYYFGGKgQDF9ZMKiVzyI7ev2nJAA8zhkOEPllirCZ5Eh9lGeL/unRaMvfKLnw1SI0kW0tEBztsnWmzQ5c63HI4pJcXzetuK54keFI/yhF4pJ10NktnwwyzjVhmFOAaeamjzbzfHD+1rbK0+GgBUI735fWIFgvzd+BCgQWH+fxCCtykQikVOUx3Xv6m30ZGEkb0tkmfio2vR2CPTq/Ju+MA6ufppYtJ9cPVIx7nTpRZDCgaSqiIOxbN2YL66t8h/YxmQWNi16WuNMlPQLBL/IISlLsUFhIfMbJCErIcK/5U/pQVAEKzFQyXoUCH7hQu+IronpYJkjDjTZe/vVSByk54OeJO0lcMorEwfTF73AUXtm1B4XqipkOmtWmxAn1xulhIPjFfBEkpl3zqdMiOR5FI3Ms+CxqYxaJOnkeGi1o0QIoARCkQ0x2Ifc1RCwAsEKBPvtuDYEVA4CLXb1wJYb9biJY04Smcw9UNbjlds/pxHWmeZGOJAo+fA3P02SmRfPZyxalNd1iMNf2IdCYzJyJ9kocaCIRa0uM2EFsxewzAFgqIHkKi17abmTbP0kKomcbWhB4iTiSSEhjyXJc/8FGeKgd0DmU5AQlQeBgsFsBR3RWfxSHBBTV0CJbZRzBJdmdm9raPZJ5kzweC3qwmY+/Ts4ag+AU36bQkSJElm4SnkD1Pk6b8ERLF6yp3k/Zw5EoScpAnWOo1PHQl9LbTvunMsKmsqLUFNbl18hhqGud/D6gdOYs/J6LJ9Xg/+3/ee47w9/HwPvHMbuN8+gcc58LKqLIB6bh+MvPQ0UR7F09Y24cPIANt26GY///Bl89vMPIZQaxVM7X8fHt23FW3t2onrFLWiuLsbzL72BrZs34MT+VxBqWIQTe57FvQ9sw45ndyNWPwcfWzMfz798GHdsXoODB45h7op1mFVXeW1PiBl09LQIhF27EJw3D6HW1oJDbuJf/gXRbdsQbGoquL7bDk8NAj995LuYGB93d2VUD2KZW0AC8ZMoyVr2yiUbRV4OyfNzkqHnmTDWo8xg5zGeeHCS3nSimicgJOHxd/W5Is9IOJyzbE+2RcGiQg0kKvW5LDE8mUXtWbJeDQKOi8StryMKJpH4GCfnWHOFiumH3+qWKyY0zmK7YyM4GCrx6iJIz4u+ZsjMI70g7Icpfp2b9JgjIISLX5E6Cd4VHnqXT2+zJ7ddh7jZD9Vm1glzEFMjRE1CI+fFPV5stuXNqbc7JIWWCVmoaJap0qlEIO8NlaRYVFQ0NV8Up9VrSlI8vu9ldI6FsGbZclSWh7H/raNYunAlanERTx8dRWjgBK7ffAeqq6rx1PbtiMxbis03XY+jLz+B/uAsXDjSia/+l9/Tl/719n/G8i3bsOv5F/D1r3wBSF3G7qd2YMHmB3H5nRNo2bAeB3+4HZv/4Ev4zTPPYWhwFF/47DY88+RvsWFlA/afm8DGjdehunxqszinFP332fh0CIRMXx8SP/2pLl5SaK9ALIboZz+LgN0Su9Cmbsr6e/6dM3hl57OuSHCtQcdCUxdWJMNaB/QiSDcwSd618hShi9CDJC9PMHjVDSX5kzx4TRIwyV0KAgmKS/4i+53Ef4UbW+1f6Cts5IkHz50vcwMm81pIEUDLloTJ9vzJgzLRjsewbX8YQrWlcwgcgeSFV1Qfvb0npAghkTLcIfM5PO+CZ73L/l5xk+kKzOY6bqKosyGTxI9ikXkKbFMFAqTlb85hgSRvPw99XeE94PmmplLuJlva6+CIBFe0IoDSsjJUVFbllJueii/NNQmE9nPvoKI0gudeOY+N8+N4qyeLTFkLtq0owi9f78Ndt65HMj7iCITHsfUPPomJoctoP3MI9VXl+Om/ncWfOgLhzTf24fjBA9h4z11YPHce9j71E/SEqlFZ3YKW4iwiC5bitR//CJ/++tfw1plOXLrQgdtuXY8dT/wWmzcuRCRWh/1tl3Hz6sLbROiDmsjpEAgfVF9tOxYBi4BFwCJQWAhck0CIjwziyMmzWLF6FdqPH8fiNavw1tETaKiLYSwdwfzZjRjoOoeRcB2GetoQTyQxZ34r+js7sGTlcrSd78Oi+U1AYgwH3+7AigVzcLGrHYGaueg9dxIrVq7FmTOnsWxRK44dPoz6+cvRUJzEsY4BNJYFECmpQnt3D5a2zsKbB49j7bo1KC7yElAKC/r331srEN4/hrYFi4BFwCJgEZgcgWsSCBbE/ELACoT8mg/bG4uARcAiMJMQsAKhgGfTCoQCnjzbdYuARcAikOcIWIGQ5xP0bt2zAqGAJ8923SJgEbAI5DkCViDk+QRZgVDAE2S7bhGwCFgEChgBKxAKePKsB6GAJ8923SJgEbAI5DkC1yQQUul0Tm3xPB/bjOieqtSmKrhN9rICYUZMsR2ERcAiYBHISwSuSSCYAiF5OY4Z2yklDlikwz9IKxBm7LTbgVkELAIWgQ8dgWsSCB96b20HchCwAsHeEBYBi4BFwCIwVQhYgTBVyE5Du1YgTAPI9hIWAYuAReAjioAVCAU88VYgFPDk2a5bBCwCFoE8R8AKhDyfoHfrnhUIBTx5tusWAYuARSDPEbACIc8nyAqEAp4g23WLgEXAIlDACFyzQEinUgiGw0Amg7GJBMpKi5GMTwDBMFKJODIASktLMT42plc8RIqKEI2EkU4mkMwE3M2V1F7maktNddDE+CgiRWVIJSYQjESQUfucRyOYGJ8w5yKEomhY73+uz7EvjYD1INgbwSJgEbAIWASmCoFrFggvPvlTNN38EBbF0vjMl/4E23/wf7H9b/8Sd335z9Cx99cob1yCFRuuxyt79mHwUh+amlpwy8Z16G1vw0B5I5ZWlwLI4l+/tx1f/MqXMNh1Dse6x3Hm8EncNDeByPJ78doT2/HxL34ZP/jur/H1r23Bud4sliycg0e/vx2f//KX5VbaU4VLQbRrBUJBTJPtpEXAImARKEgErlEgJPHi83swNDyGBx7YiocffxP331yPt1/YidWf+gbOv/IYhkMtuHvrZr12//UjJ7Fp9VINzKXefqQbalEPIDlwBvuPdWM8WIf5JZ1oXX87Usk0eg49h8zCreg5uQdDfX240BnFF79xJ7ovjKA02Y0DZ8eRqW7F7WuaChLsD7rTViB80Ija9iwCFgGLgEWACFyTQDi481cYqFyFeNtr2HjfQ/jfD/8YG+dWoCQyhtkbt+H0rsdRVLcA6++6Hy2pXvxo5yF8+ZN362t1nDiEPW3dCKfqMdr1Kj627ffw6jNP4IEH7sXzLx9CPFCG+ak2lFx3H469uAMff+Bu/OPP9+M/3T0fx4dKcX7/67j1gTvwmx8/iW/86X+2M2hDDPYesAhYBCwCFoEpROCaBMJU9SObVZkLV68YOFXXLfR2rQeh0GfQ9t8iYBGwCOQvAnkhEPIXnvzumRUI+T0/tncWAYuARaCQEbACoYBnzwqEAp4823WLgEXAIpDnCFiBkOcT9G7dswKhgCfPdt0iYBGwCOQ5AlYg5PkEWYFQwBNku24RsAhYBAoYASsQCnjyrAehgCfPdt0iYBGwCOQ5AlYg5PkEfdgehEQyiXgiWcAo2a5bBCwCFoGZh0BJUZGupjuVLysQphLdKW57OjwIiUQCE/HEFI/ENm8RsAhYBCwC14JASUkxIlO89YAVCNcyI3l27HQIhDwbsu2ORcAiYBGwCEwTAlYgTBPQU3EZKxCmAlXbpkXAImARsAgoBKxAKOD7wAqEAp4823WLgEXAIpDnCFiBkOcT9G7dswKhgCfPdt0iYBGwCOQ5AlYg5PkEWYFQwBNku24RsAhYBAoYASsQCnjyrAehgCfPdt0iYBGwCOQ5AlYg5PkEWQ9CAU+Q7bpFwCJgEShgBKxAKODJsx6EAp4823WLgEXAIpDnCFiBkOcTZD0IBTxBtusWAYuARaCAEbACoYAnz3oQCnjybNctAhYBi0CeI2AFQp5PkPUgFPAE2a5bBCwCFoECRuCaBEI6nUY2my3g4RZe10OhEAKBwKQdtx6EwptP22OLgEXAIlAoCFyTQBgdH0fC7uw3rXMbKyu76o5dViBM61TYi1kELAIWgY8UAtckED5SyBTAYK1AKIBJsl20CFgELAIFioAVCAU6carbViAU8OTZrlsELAIWgTxHwAqEPJ+gd+ueFQgFPHm26xYBi4BFIM8RsAIhzyfICoQCniDbdYuARcAiUMAIWIFQwJNnPQgFPHm26xYBi4BFIM8RuJpA+P/AHcDEE5C1SAAAAABJRU5ErkJggg==;strokeWidth=10;imageBorder=#99CCFF;" vertex="1" parent="WIyWlLk6GJQsqaUBKTNV-1">
          <mxGeometry x="340" y="420" width="177.27" height="90" as="geometry" />
        </mxCell>
        <mxCell id="nKdXJ1BQ_bNErxqdGN9c-14" value="" style="rounded=0;html=1;jettySize=auto;orthogonalLoop=1;fontSize=11;endArrow=block;endFill=0;endSize=8;strokeWidth=1;shadow=0;labelBackgroundColor=none;edgeStyle=orthogonalEdgeStyle;entryX=0.5;entryY=0;entryDx=0;entryDy=0;" edge="1" parent="WIyWlLk6GJQsqaUBKTNV-1" target="nKdXJ1BQ_bNErxqdGN9c-15">
          <mxGeometry relative="1" as="geometry">
            <mxPoint x="420" y="750" as="sourcePoint" />
            <mxPoint x="420" y="560" as="targetPoint" />
            <Array as="points">
              <mxPoint x="414" y="750" />
              <mxPoint x="414" y="830" />
            </Array>
          </mxGeometry>
        </mxCell>
        <UserObject label="&lt;b&gt;DB와 스프링 연동&lt;/b&gt;" id="nKdXJ1BQ_bNErxqdGN9c-15">
          <mxCell style="rounded=1;whiteSpace=wrap;html=1;fontSize=12;glass=0;strokeWidth=1;shadow=0;flipV=1;" vertex="1" parent="WIyWlLk6GJQsqaUBKTNV-1">
            <mxGeometry x="334" y="830" width="160" height="60" as="geometry" />
          </mxCell>
        </UserObject>
        <mxCell id="nKdXJ1BQ_bNErxqdGN9c-7" value="&lt;b&gt;스프링 프로젝트 내부에서 process를 생성하여 jplag jar파일 실행&lt;/b&gt;" style="rounded=1;whiteSpace=wrap;html=1;fontSize=12;glass=0;strokeWidth=1;shadow=0;fillColor=#dae8fc;strokeColor=#6c8ebf;" vertex="1" parent="WIyWlLk6GJQsqaUBKTNV-1">
          <mxGeometry x="314" y="700" width="200" height="60" as="geometry" />
        </mxCell>
        <mxCell id="nKdXJ1BQ_bNErxqdGN9c-16" value="&lt;b&gt;jplag 로컬에서 실행시켜보기&lt;/b&gt;" style="rounded=1;whiteSpace=wrap;html=1;fontSize=12;glass=0;strokeWidth=1;shadow=0;" vertex="1" parent="WIyWlLk6GJQsqaUBKTNV-1">
          <mxGeometry x="130" y="310" width="160" height="50" as="geometry" />
        </mxCell>
        <mxCell id="nKdXJ1BQ_bNErxqdGN9c-17" value="" style="rounded=0;html=1;jettySize=auto;orthogonalLoop=1;fontSize=11;endArrow=block;endFill=0;endSize=8;strokeWidth=1;shadow=0;labelBackgroundColor=none;edgeStyle=orthogonalEdgeStyle;exitX=0.5;exitY=1;exitDx=0;exitDy=0;entryX=0.5;entryY=0;entryDx=0;entryDy=0;" edge="1" parent="WIyWlLk6GJQsqaUBKTNV-1" source="nKdXJ1BQ_bNErxqdGN9c-16" target="WIyWlLk6GJQsqaUBKTNV-3">
          <mxGeometry relative="1" as="geometry">
            <mxPoint x="220" y="130" as="sourcePoint" />
            <mxPoint x="210" y="80" as="targetPoint" />
            <Array as="points">
              <mxPoint x="210" y="360" />
              <mxPoint x="210" y="360" />
            </Array>
          </mxGeometry>
        </mxCell>
        <mxCell id="nKdXJ1BQ_bNErxqdGN9c-20" value="" style="rounded=0;html=1;jettySize=auto;orthogonalLoop=1;fontSize=11;endArrow=block;endFill=0;endSize=8;strokeWidth=1;shadow=0;labelBackgroundColor=none;edgeStyle=orthogonalEdgeStyle;exitX=0.5;exitY=1;exitDx=0;exitDy=0;entryX=0.5;entryY=0;entryDx=0;entryDy=0;" edge="1" parent="WIyWlLk6GJQsqaUBKTNV-1" source="nKdXJ1BQ_bNErxqdGN9c-15" target="nKdXJ1BQ_bNErxqdGN9c-21">
          <mxGeometry relative="1" as="geometry">
            <mxPoint x="430" y="390" as="sourcePoint" />
            <mxPoint x="430" y="470" as="targetPoint" />
            <Array as="points" />
          </mxGeometry>
        </mxCell>
        <mxCell id="nKdXJ1BQ_bNErxqdGN9c-21" value="&lt;b&gt;압축된 코드를 받아 압축 푸는 코드 작성&lt;/b&gt;" style="rounded=1;whiteSpace=wrap;html=1;fontSize=12;glass=0;strokeWidth=1;shadow=0;" vertex="1" parent="WIyWlLk6GJQsqaUBKTNV-1">
          <mxGeometry x="334" y="970" width="160" height="60" as="geometry" />
        </mxCell>
        <mxCell id="nKdXJ1BQ_bNErxqdGN9c-0" value="&lt;b&gt;외부프로그램(jplag)를 스프링 프로젝트 내부에서 사용할 방법&lt;/b&gt;" style="rounded=1;whiteSpace=wrap;html=1;fontSize=12;glass=0;strokeWidth=1;shadow=0;" vertex="1" parent="WIyWlLk6GJQsqaUBKTNV-1">
          <mxGeometry x="140" y="510" width="140" height="60" as="geometry" />
        </mxCell>
        <mxCell id="nKdXJ1BQ_bNErxqdGN9c-23" value="" style="rounded=0;html=1;jettySize=auto;orthogonalLoop=1;fontSize=11;endArrow=none;endFill=0;endSize=8;strokeWidth=1;shadow=0;labelBackgroundColor=none;edgeStyle=orthogonalEdgeStyle;entryX=0.5;entryY=0;entryDx=0;entryDy=0;startArrow=none;" edge="1" parent="WIyWlLk6GJQsqaUBKTNV-1" source="WIyWlLk6GJQsqaUBKTNV-3" target="nKdXJ1BQ_bNErxqdGN9c-0">
          <mxGeometry relative="1" as="geometry">
            <mxPoint x="210" y="300" as="sourcePoint" />
            <mxPoint x="420" y="490" as="targetPoint" />
            <Array as="points" />
          </mxGeometry>
        </mxCell>
        <mxCell id="nKdXJ1BQ_bNErxqdGN9c-24" value="&lt;b&gt;요구사항 분석&lt;/b&gt;" style="rounded=1;whiteSpace=wrap;html=1;fontSize=12;glass=0;strokeWidth=1;shadow=0;" vertex="1" parent="WIyWlLk6GJQsqaUBKTNV-1">
          <mxGeometry x="130" y="30" width="160" height="50" as="geometry" />
        </mxCell>
        <mxCell id="WIyWlLk6GJQsqaUBKTNV-3" value="&lt;b&gt;참고할 ui 템플릿 선정&lt;/b&gt;" style="rounded=1;whiteSpace=wrap;html=1;fontSize=12;glass=0;strokeWidth=1;shadow=0;" parent="WIyWlLk6GJQsqaUBKTNV-1" vertex="1">
          <mxGeometry x="145" y="430" width="130" height="40" as="geometry" />
        </mxCell>
        <mxCell id="nKdXJ1BQ_bNErxqdGN9c-29" value="" style="rounded=0;html=1;jettySize=auto;orthogonalLoop=1;fontSize=11;endArrow=none;endFill=0;endSize=8;strokeWidth=1;shadow=0;labelBackgroundColor=none;edgeStyle=orthogonalEdgeStyle;entryX=0.5;entryY=0;entryDx=0;entryDy=0;" edge="1" parent="WIyWlLk6GJQsqaUBKTNV-1" target="WIyWlLk6GJQsqaUBKTNV-3">
          <mxGeometry relative="1" as="geometry">
            <mxPoint x="210" y="360" as="sourcePoint" />
            <mxPoint x="210" y="510" as="targetPoint" />
            <Array as="points">
              <mxPoint x="210" y="370" />
              <mxPoint x="210" y="370" />
            </Array>
          </mxGeometry>
        </mxCell>
        <mxCell id="nKdXJ1BQ_bNErxqdGN9c-35" value="&lt;b&gt;DB설계&lt;/b&gt;" style="rounded=1;whiteSpace=wrap;html=1;fontSize=12;glass=0;strokeWidth=1;shadow=0;" vertex="1" parent="WIyWlLk6GJQsqaUBKTNV-1">
          <mxGeometry x="130" y="150" width="160" height="50" as="geometry" />
        </mxCell>
        <mxCell id="nKdXJ1BQ_bNErxqdGN9c-38" value="" style="endArrow=classic;html=1;rounded=0;exitX=0.5;exitY=1;exitDx=0;exitDy=0;" edge="1" parent="WIyWlLk6GJQsqaUBKTNV-1" source="nKdXJ1BQ_bNErxqdGN9c-35" target="nKdXJ1BQ_bNErxqdGN9c-16">
          <mxGeometry width="50" height="50" relative="1" as="geometry">
            <mxPoint x="490" y="350" as="sourcePoint" />
            <mxPoint x="540" y="300" as="targetPoint" />
          </mxGeometry>
        </mxCell>
        <mxCell id="nKdXJ1BQ_bNErxqdGN9c-39" value="" style="endArrow=classic;html=1;rounded=0;" edge="1" parent="WIyWlLk6GJQsqaUBKTNV-1" source="nKdXJ1BQ_bNErxqdGN9c-24" target="nKdXJ1BQ_bNErxqdGN9c-35">
          <mxGeometry width="50" height="50" relative="1" as="geometry">
            <mxPoint x="220" y="210" as="sourcePoint" />
            <mxPoint x="220" y="320" as="targetPoint" />
          </mxGeometry>
        </mxCell>
      </root>
    </mxGraphModel>
  </diagram>
</mxfile>
